<svg width="30" height="30" viewBox="0 0 30 30" fill="none" xmlns="http://www.w3.org/2000/svg">
<circle cx="15" cy="15" r="15" fill="#54108E"/>
<g clip-path="url(#clip0)">
<path d="M25.0742 11.1926C24.5088 10.6271 23.5888 10.6272 23.0232 11.1927C22.8492 11.3668 21.7385 12.4784 21.5688 12.6482V8.81744C21.5688 8.43008 21.418 8.06592 21.1441 7.79202L19.7769 6.42475C19.503 6.15082 19.1388 6 18.7514 6H10.4507C9.65105 6 9.00049 6.65056 9.00049 7.4502V21.0498C9.00049 21.8494 9.65105 22.5 10.4507 22.5H20.1187C20.9183 22.5 21.5688 21.8494 21.5688 21.0498V16.7518L25.0742 13.2435C25.641 12.6767 25.6411 11.7594 25.0742 11.1926ZM18.6685 6.9668C18.7598 6.9668 18.9358 6.95097 19.0932 7.10837L20.4605 8.47564C20.6139 8.62908 20.6021 8.7972 20.6021 8.90039H18.6685V6.9668ZM20.602 21.0498C20.602 21.3164 20.3852 21.5332 20.1187 21.5332H10.4507C10.1841 21.5332 9.96729 21.3164 9.96729 21.0498V7.4502C9.96729 7.18365 10.1841 6.9668 10.4507 6.9668H17.7017V9.38379C17.7017 9.65075 17.9181 9.86719 18.1851 9.86719H20.602V13.6159C20.602 13.6159 19.1759 15.0433 19.1758 15.0433L18.4925 15.7266C18.4395 15.7797 18.3995 15.8444 18.3757 15.9156L17.6921 17.9665C17.6342 18.1402 17.6794 18.3317 17.8089 18.4611C17.9385 18.5908 18.1301 18.6358 18.3036 18.5779L20.3545 17.8943C20.4256 17.8706 20.4904 17.8306 20.5434 17.7775L20.602 17.7189V21.0498ZM19.5179 16.0684L20.2016 16.7521L19.9404 17.0132L18.915 17.355L19.2568 16.3295L19.5179 16.0684ZM20.8851 16.0683L20.2014 15.3847C20.5655 15.0203 22.1822 13.4022 22.5251 13.059L23.2088 13.7426L20.8851 16.0683ZM24.3904 12.56L23.8921 13.0587L23.2085 12.3751L23.707 11.8762C23.8956 11.6877 24.2022 11.6877 24.3906 11.8762C24.5791 12.0647 24.5801 12.3703 24.3904 12.56Z" fill="white"/>
<path d="M18.1853 10.834H11.4177C11.1508 10.834 10.9343 11.0504 10.9343 11.3174C10.9343 11.5843 11.1508 11.8008 11.4177 11.8008H18.1853C18.4523 11.8008 18.6687 11.5843 18.6687 11.3174C18.6687 11.0504 18.4523 10.834 18.1853 10.834Z" fill="white"/>
<path d="M16.2517 12.7676H11.4177C11.1508 12.7676 10.9343 12.984 10.9343 13.251C10.9343 13.5179 11.1508 13.7344 11.4177 13.7344H16.2517C16.5187 13.7344 16.7351 13.5179 16.7351 13.251C16.7351 12.984 16.5187 12.7676 16.2517 12.7676Z" fill="white"/>
<path d="M16.2517 14.7012H11.4177C11.1508 14.7012 10.9343 14.9176 10.9343 15.1846C10.9343 15.4515 11.1508 15.668 11.4177 15.668H16.2517C16.5187 15.668 16.7351 15.4515 16.7351 15.1846C16.7351 14.9176 16.5187 14.7012 16.2517 14.7012Z" fill="white"/>
<path d="M16.2517 16.6348H11.4177C11.1508 16.6348 10.9343 16.8512 10.9343 17.1182C10.9343 17.3851 11.1508 17.6016 11.4177 17.6016H16.2517C16.5187 17.6016 16.7351 17.3851 16.7351 17.1182C16.7351 16.8512 16.5187 16.6348 16.2517 16.6348Z" fill="white"/>
<path d="M18.1851 19.5996H15.2847C15.0177 19.5996 14.8013 19.816 14.8013 20.083C14.8013 20.35 15.0177 20.5664 15.2847 20.5664H18.1851C18.452 20.5664 18.6685 20.35 18.6685 20.083C18.6685 19.816 18.452 19.5996 18.1851 19.5996Z" fill="white"/>
</g>
<defs>
<clipPath id="clip0">
<rect width="16.5" height="16.5" fill="white" transform="translate(9 6)"/>
</clipPath>
</defs>
</svg>
