<svg xmlns="http://www.w3.org/2000/svg" height="63" viewBox="0 0 512 63" fill="none">
  <path d="M0 11C0 4.92487 4.92487 0 11 0H501C507.075 0 512 4.92487 512 11V52C512 58.0751 507.075 63 501 63H11C4.92487 63 0 58.0751 0 52V11Z" fill="#FFF1E5" />
  <circle cx="43.5" cy="32.5" r="19.5" fill="#F49979" />
  <path d="M43.5435 22.3437C44.067 22.3432 44.5889 22.401 45.0996 22.5161H42.002C42.5078 22.4017 43.0248 22.3439 43.5435 22.3437Z" fill="white" />
  <path d="M50.5781 32.5C49.5289 32.5001 48.5054 32.1751 47.6484 31.5698C46.7913 30.9644 46.1429 30.1085 45.7921 29.1196C45.4414 28.1307 45.4056 27.0575 45.6896 26.0474C45.9737 25.0374 46.5636 24.1401 47.3784 23.479L49.7969 30.2974L50.0239 30.9375L50.5781 32.5Z" fill="white" />
  <path d="M50.5781 22.3437C49.5738 22.3437 48.592 22.6416 47.7569 23.1995C46.9218 23.7575 46.2709 24.5506 45.8865 25.4785C45.5022 26.4064 45.4016 27.4275 45.5976 28.4125C45.7935 29.3976 46.2771 30.3024 46.9873 31.0126C47.6975 31.7228 48.6024 32.2065 49.5874 32.4024C50.5725 32.5983 51.5935 32.4978 52.5214 32.1134C53.4493 31.7291 54.2424 31.0782 54.8004 30.2431C55.3584 29.408 55.6562 28.4262 55.6562 27.4218C55.6594 26.7541 55.5303 26.0923 55.2762 25.4748C55.0221 24.8572 54.6482 24.2961 54.176 23.824C53.7038 23.3518 53.1427 22.9778 52.5252 22.7238C51.9076 22.4697 51.2459 22.3405 50.5781 22.3437ZM51.3594 30.9375H50.0239L49.7969 30.2973V29.375H51.3594V30.9375ZM51.3594 28.2031H49.7969V23.9062H51.3594V28.2031Z" fill="white" />
  <path d="M45.1094 22.3437C45.1093 22.4013 45.1061 22.4589 45.0996 22.5161H41.9942C41.9704 22.3048 41.9901 22.0909 42.0519 21.8874C42.1137 21.684 42.2164 21.4953 42.3537 21.3329C42.491 21.1705 42.6599 21.0379 42.8503 20.9431C43.0406 20.8483 43.2483 20.7933 43.4606 20.7816C43.6729 20.7698 43.8854 20.8015 44.085 20.8748C44.2846 20.948 44.4672 21.0612 44.6215 21.2074C44.7759 21.3537 44.8988 21.5299 44.9827 21.7253C45.0665 21.9207 45.1097 22.1311 45.1094 22.3437Z" fill="white" />
  <path d="M45.8906 41.875C45.8906 42.4966 45.6437 43.0927 45.2042 43.5323C44.7646 43.9718 44.1685 44.2188 43.5469 44.2188C42.9253 44.2188 42.3291 43.9718 41.8896 43.5323C41.4501 43.0927 41.2031 42.4966 41.2031 41.875H45.8906Z" fill="white" />
  <path d="M50.0239 30.9375H49.7969V30.2973L50.0239 30.9375Z" fill="white" />
  <path d="M45.1094 40.3125H36.9062C36.8026 40.3125 36.7033 40.3537 36.63 40.4269C36.5568 40.5002 36.5156 40.5995 36.5156 40.7031C36.5156 40.8067 36.5568 40.9061 36.63 40.9793C36.7033 41.0526 36.8026 41.0938 36.9062 41.0938H45.1094C45.213 41.0938 45.3123 41.0526 45.3856 40.9793C45.4588 40.9061 45.5 40.8067 45.5 40.7031C45.5 40.5995 45.4588 40.5002 45.3856 40.4269C45.3123 40.3537 45.213 40.3125 45.1094 40.3125Z" fill="white" />
  <path d="M47.0625 40.3125H46.2812C46.1776 40.3125 46.0783 40.3537 46.005 40.4269C45.9318 40.5002 45.8906 40.5995 45.8906 40.7031C45.8906 40.8067 45.9318 40.9061 46.005 40.9793C46.0783 41.0526 46.1776 41.0938 46.2812 41.0938H47.0625C47.1661 41.0938 47.2655 41.0526 47.3387 40.9793C47.412 40.9061 47.4531 40.8067 47.4531 40.7031C47.4531 40.5995 47.412 40.5002 47.3387 40.4269C47.2655 40.3537 47.1661 40.3125 47.0625 40.3125Z" fill="white" />
  <path d="M49.7969 28.5938H51.3594C51.463 28.5938 51.5623 28.5526 51.6356 28.4793C51.7088 28.4061 51.75 28.3067 51.75 28.2031V23.9062C51.75 23.8026 51.7088 23.7033 51.6356 23.63C51.5623 23.5568 51.463 23.5156 51.3594 23.5156H49.7969C49.6933 23.5156 49.5939 23.5568 49.5207 23.63C49.4474 23.7033 49.4062 23.8026 49.4062 23.9062V28.2031C49.4062 28.3067 49.4474 28.4061 49.5207 28.4793C49.5939 28.5526 49.6933 28.5938 49.7969 28.5938ZM50.1875 24.2969H50.9688V27.8125H50.1875V24.2969Z" fill="white" />
  <path d="M49.7969 31.3281H51.3594C51.463 31.3281 51.5623 31.287 51.6356 31.2137C51.7088 31.1405 51.75 31.0411 51.75 30.9375V29.375C51.75 29.2714 51.7088 29.172 51.6356 29.0988C51.5623 29.0255 51.463 28.9844 51.3594 28.9844H49.7969C49.6933 28.9844 49.5939 29.0255 49.5207 29.0988C49.4474 29.172 49.4062 29.2714 49.4062 29.375V30.9375C49.4062 31.0411 49.4474 31.1405 49.5207 31.2137C49.5939 31.287 49.6933 31.3281 49.7969 31.3281ZM50.1875 29.7656H50.9688V30.5469H50.1875V29.7656Z" fill="white" />
  <path d="M56.0468 27.4219C56.0475 26.4124 55.7685 25.4225 55.2409 24.5619C54.7133 23.7014 53.9577 23.0037 53.0578 22.5463C52.1579 22.0889 51.149 21.8897 50.1428 21.9708C49.1366 22.0518 48.1725 22.4099 47.3574 23.0054C46.776 22.6569 46.1493 22.3903 45.4951 22.2129C45.462 21.7184 45.2422 21.2551 44.8802 20.9167C44.5182 20.5783 44.041 20.3902 43.5455 20.3906C43.0499 20.391 42.5731 20.5797 42.2115 20.9187C41.85 21.2576 41.6309 21.7213 41.5986 22.2158C38.4482 23.0815 36.125 25.9936 36.125 29.4424V38.4141C36.125 38.5605 36.0839 38.7039 36.0063 38.8281L35.352 39.875C35.2041 40.1115 35.1221 40.3832 35.1147 40.6621C35.1073 40.9409 35.1747 41.2167 35.3099 41.4607C35.4451 41.7047 35.6432 41.908 35.8835 42.0495C36.1239 42.1911 36.3978 42.2657 36.6767 42.2656H40.8408C40.9347 42.9163 41.2599 43.5115 41.7569 43.9419C42.2539 44.3723 42.8894 44.6092 43.5468 44.6092C44.2043 44.6092 44.8398 44.3723 45.3368 43.9419C45.8338 43.5115 46.159 42.9163 46.2529 42.2656H50.417C50.6959 42.2657 50.9698 42.1911 51.2101 42.0495C51.4505 41.908 51.6486 41.7047 51.7838 41.4607C51.919 41.2167 51.9864 40.9409 51.979 40.6621C51.9716 40.3832 51.8896 40.1115 51.7417 39.875L51.0874 38.8281C51.0098 38.7039 50.9687 38.5605 50.9687 38.4141V32.8765C52.3474 32.7761 53.637 32.1581 54.5789 31.1464C55.5208 30.1347 56.0452 28.8041 56.0468 27.4219ZM43.5468 21.1719C43.8047 21.1722 44.0552 21.2574 44.2597 21.4143C44.4643 21.5713 44.6115 21.7911 44.6787 22.04C44.3038 21.9824 43.9251 21.9533 43.5459 21.9531H43.5434C43.1656 21.9531 42.7884 21.9821 42.415 22.04C42.4822 21.7911 42.6294 21.5713 42.834 21.4143C43.0385 21.2574 43.289 21.1722 43.5468 21.1719ZM43.5468 43.8281C43.0968 43.8276 42.6606 43.6719 42.312 43.3872C41.9633 43.1026 41.7234 42.7065 41.6328 42.2656H45.4609C45.3703 42.7065 45.1304 43.1026 44.7817 43.3872C44.4331 43.6719 43.9969 43.8276 43.5468 43.8281ZM51.0796 40.2891C51.1535 40.4073 51.1944 40.5432 51.198 40.6826C51.2017 40.8221 51.168 40.9599 51.1004 41.0819C51.0327 41.2039 50.9337 41.3055 50.8135 41.3763C50.6934 41.4471 50.5564 41.4844 50.417 41.4844H36.6767C36.5373 41.4844 36.4003 41.4471 36.2802 41.3763C36.16 41.3055 36.061 41.2039 35.9933 41.0819C35.9257 40.9599 35.892 40.8221 35.8956 40.6826C35.8993 40.5432 35.9402 40.4073 36.0141 40.2891L36.6684 39.2422C36.824 38.994 36.9064 38.707 36.9062 38.4141V29.4424C36.9062 25.7456 39.8838 22.7363 43.5434 22.7344H43.5459C44.6569 22.733 45.7505 23.0114 46.7256 23.5439C45.9803 24.2834 45.4637 25.2218 45.2376 26.247C45.0115 27.2723 45.0855 28.3409 45.4506 29.3252C45.8158 30.3096 46.4566 31.1679 47.2966 31.7977C48.1367 32.4274 49.1403 32.8019 50.1875 32.8765V38.4141C50.1873 38.707 50.2697 38.994 50.4253 39.2422L51.0796 40.2891ZM50.5781 32.1094C49.651 32.1094 48.7447 31.8345 47.9739 31.3194C47.203 30.8043 46.6022 30.0722 46.2474 29.2157C45.8926 28.3592 45.7998 27.4167 45.9807 26.5074C46.1615 25.5981 46.608 24.7629 47.2635 24.1073C47.9191 23.4517 48.7543 23.0053 49.6636 22.8244C50.5729 22.6436 51.5154 22.7364 52.3719 23.0912C53.2285 23.446 53.9605 24.0468 54.4756 24.8176C54.9907 25.5885 55.2656 26.4948 55.2656 27.4219C55.2641 28.6646 54.7698 29.856 53.891 30.7348C53.0123 31.6135 51.8208 32.1079 50.5781 32.1094Z" fill="white" />
  <path d="M82.194 34.364L82.176 35.66V35.678C82.728 35.654 83.172 35.642 83.508 35.642H87.684C87.684 36.086 87.666 36.428 87.63 36.668C87.486 37.592 86.874 38.054 85.794 38.054H81.006C80.49 38.054 80.082 37.904 79.782 37.604C79.494 37.304 79.35 36.896 79.35 36.38V25.832L79.476 25.706H87.234C87.306 26.054 87.342 26.432 87.342 26.84C87.342 27.248 87.258 27.674 87.09 28.118H82.176L82.194 29.414V30.674C82.506 30.662 82.914 30.656 83.418 30.656H86.172C86.28 30.992 86.334 31.376 86.334 31.808C86.334 32.24 86.28 32.636 86.172 32.996H82.194V34.364ZM88.8584 30.314C88.9184 30.074 89.0324 29.81 89.2004 29.522C89.3684 29.222 89.5364 29.006 89.7044 28.874C90.8084 28.958 91.5764 29.504 92.0084 30.512C92.4644 29.432 93.2144 28.892 94.2584 28.892C94.5704 28.892 94.9664 28.94 95.4464 29.036C95.4464 29.408 95.3804 29.852 95.2484 30.368C95.1284 30.872 94.9604 31.304 94.7444 31.664C94.5404 31.592 94.2344 31.532 93.8264 31.484C93.2264 31.484 92.7344 31.79 92.3504 32.402V38C91.9544 38.072 91.4864 38.108 90.9464 38.108C90.4184 38.108 89.9504 38.072 89.5424 38V32.186C89.5424 31.286 89.3144 30.662 88.8584 30.314ZM96.0127 30.314C96.0727 30.074 96.1867 29.81 96.3547 29.522C96.5227 29.222 96.6907 29.006 96.8587 28.874C97.9627 28.958 98.7307 29.504 99.1627 30.512C99.6187 29.432 100.369 28.892 101.413 28.892C101.725 28.892 102.121 28.94 102.601 29.036C102.601 29.408 102.535 29.852 102.403 30.368C102.283 30.872 102.115 31.304 101.899 31.664C101.695 31.592 101.389 31.532 100.981 31.484C100.381 31.484 99.8887 31.79 99.5047 32.402V38C99.1087 38.072 98.6407 38.108 98.1007 38.108C97.5727 38.108 97.1047 38.072 96.6967 38V32.186C96.6967 31.286 96.4687 30.662 96.0127 30.314ZM110.445 34.418H105.747C105.771 34.958 105.909 35.378 106.161 35.678C106.413 35.978 106.827 36.128 107.403 36.128C107.691 36.128 108.021 36.086 108.393 36.002C108.777 35.918 109.215 35.78 109.707 35.588C110.103 35.996 110.349 36.548 110.445 37.244C109.485 37.928 108.309 38.27 106.917 38.27C106.161 38.27 105.525 38.15 105.009 37.91C104.505 37.67 104.091 37.334 103.767 36.902C103.455 36.47 103.233 35.96 103.101 35.372C102.969 34.784 102.903 34.142 102.903 33.446C102.903 32.774 102.981 32.156 103.137 31.592C103.305 31.016 103.551 30.518 103.875 30.098C104.211 29.678 104.631 29.348 105.135 29.108C105.651 28.868 106.251 28.748 106.935 28.748C107.511 28.748 108.027 28.844 108.483 29.036C108.951 29.228 109.347 29.492 109.671 29.828C109.995 30.164 110.241 30.566 110.409 31.034C110.589 31.502 110.679 32.012 110.679 32.564C110.679 33.296 110.601 33.914 110.445 34.418ZM105.729 32.474H108.105V32.276C108.105 31.832 108.003 31.466 107.799 31.178C107.607 30.89 107.313 30.746 106.917 30.746C106.533 30.746 106.245 30.884 106.053 31.16C105.873 31.424 105.765 31.862 105.729 32.474ZM112.337 34.958V31.268C112.337 30.488 112.193 29.888 111.905 29.468C112.349 29.072 112.889 28.874 113.525 28.874C114.161 28.874 114.593 29.018 114.821 29.306C115.049 29.594 115.163 30.032 115.163 30.62V34.436C115.163 34.856 115.211 35.162 115.307 35.354C115.403 35.546 115.655 35.642 116.063 35.642C116.459 35.642 116.861 35.438 117.269 35.03V29.018C117.665 28.946 118.127 28.91 118.655 28.91C119.183 28.91 119.657 28.946 120.077 29.018V35.426C120.077 36.074 120.245 36.512 120.581 36.74C120.521 36.98 120.407 37.244 120.239 37.532C120.071 37.808 119.897 38.012 119.717 38.144C118.733 38.108 118.025 37.688 117.593 36.884C116.645 37.736 115.751 38.162 114.911 38.162C114.071 38.162 113.429 37.874 112.985 37.298C112.553 36.71 112.337 35.93 112.337 34.958ZM121.729 30.314C121.789 30.074 121.903 29.81 122.071 29.522C122.239 29.222 122.407 29.006 122.575 28.874C123.679 28.958 124.447 29.504 124.879 30.512C125.335 29.432 126.085 28.892 127.129 28.892C127.441 28.892 127.837 28.94 128.317 29.036C128.317 29.408 128.251 29.852 128.119 30.368C127.999 30.872 127.831 31.304 127.615 31.664C127.411 31.592 127.105 31.532 126.697 31.484C126.097 31.484 125.605 31.79 125.221 32.402V38C124.825 38.072 124.357 38.108 123.817 38.108C123.289 38.108 122.821 38.072 122.413 38V32.186C122.413 31.286 122.185 30.662 121.729 30.314ZM138.635 29C138.707 29.336 138.743 29.672 138.743 30.008C138.743 30.344 138.707 30.674 138.635 30.998L136.493 30.962V35.102C136.493 35.666 136.757 35.948 137.285 35.948H138.293C138.449 36.38 138.527 36.776 138.527 37.136C138.527 37.496 138.503 37.754 138.455 37.91C137.567 38.03 136.751 38.09 136.007 38.09C134.495 38.09 133.739 37.256 133.739 35.588V30.98L132.335 30.998C132.251 30.698 132.209 30.374 132.209 30.026C132.209 29.666 132.251 29.324 132.335 29L133.739 29.036V27.992C133.739 27.38 133.853 26.948 134.081 26.696C134.321 26.432 134.717 26.3 135.269 26.3H136.367L136.493 26.426V29.036L138.635 29ZM147.008 34.418H142.31C142.334 34.958 142.472 35.378 142.724 35.678C142.976 35.978 143.39 36.128 143.966 36.128C144.254 36.128 144.584 36.086 144.956 36.002C145.34 35.918 145.778 35.78 146.27 35.588C146.666 35.996 146.912 36.548 147.008 37.244C146.048 37.928 144.872 38.27 143.48 38.27C142.724 38.27 142.088 38.15 141.572 37.91C141.068 37.67 140.654 37.334 140.33 36.902C140.018 36.47 139.796 35.96 139.664 35.372C139.532 34.784 139.466 34.142 139.466 33.446C139.466 32.774 139.544 32.156 139.7 31.592C139.868 31.016 140.114 30.518 140.438 30.098C140.774 29.678 141.194 29.348 141.698 29.108C142.214 28.868 142.814 28.748 143.498 28.748C144.074 28.748 144.59 28.844 145.046 29.036C145.514 29.228 145.91 29.492 146.234 29.828C146.558 30.164 146.804 30.566 146.972 31.034C147.152 31.502 147.242 32.012 147.242 32.564C147.242 33.296 147.164 33.914 147.008 34.418ZM142.292 32.474H144.668V32.276C144.668 31.832 144.566 31.466 144.362 31.178C144.17 30.89 143.876 30.746 143.48 30.746C143.096 30.746 142.808 30.884 142.616 31.16C142.436 31.424 142.328 31.862 142.292 32.474ZM153.435 32.996V32.762C153.435 32.09 153.363 31.604 153.219 31.304C153.075 30.992 152.805 30.836 152.409 30.836C151.989 30.836 151.695 31.046 151.527 31.466C151.359 31.874 151.275 32.558 151.275 33.518C151.275 33.998 151.305 34.4 151.365 34.724C151.437 35.048 151.533 35.312 151.653 35.516C151.785 35.708 151.947 35.852 152.139 35.948C152.331 36.032 152.559 36.074 152.823 36.074C153.099 36.074 153.405 36.014 153.741 35.894C154.077 35.774 154.437 35.582 154.821 35.318C154.929 35.378 155.037 35.468 155.145 35.588C155.265 35.696 155.373 35.822 155.469 35.966C155.565 36.11 155.649 36.266 155.721 36.434C155.793 36.59 155.847 36.74 155.883 36.884C155.487 37.304 154.971 37.64 154.335 37.892C153.699 38.144 153.051 38.27 152.391 38.27C151.107 38.27 150.123 37.85 149.439 37.01C148.755 36.17 148.413 34.976 148.413 33.428C148.413 32.636 148.521 31.946 148.737 31.358C148.965 30.77 149.259 30.284 149.619 29.9C149.991 29.516 150.411 29.228 150.879 29.036C151.359 28.844 151.857 28.748 152.373 28.748C152.901 28.748 153.381 28.82 153.813 28.964C154.257 29.108 154.635 29.312 154.947 29.576C155.271 29.84 155.517 30.158 155.685 30.53C155.865 30.89 155.955 31.292 155.955 31.736C155.955 32.24 155.805 32.594 155.505 32.798C155.217 33.002 154.857 33.104 154.425 33.104C154.065 33.104 153.735 33.068 153.435 32.996ZM165.164 32.06V35.75C165.164 36.554 165.314 37.148 165.614 37.532C165.158 37.94 164.606 38.144 163.958 38.144C163.334 38.144 162.908 38 162.68 37.712C162.452 37.424 162.338 36.986 162.338 36.398V32.564C162.338 32.156 162.284 31.856 162.176 31.664C162.068 31.472 161.858 31.376 161.546 31.376C161.366 31.376 161.162 31.424 160.934 31.52C160.706 31.616 160.472 31.772 160.232 31.988V38C159.836 38.072 159.38 38.108 158.864 38.108C158.348 38.108 157.892 38.072 157.496 38V24.878L157.622 24.752H158.702C159.278 24.752 159.674 24.878 159.89 25.13C160.118 25.382 160.232 25.82 160.232 26.444V29.846C161.036 29.186 161.84 28.856 162.644 28.856C163.448 28.856 164.066 29.15 164.498 29.738C164.942 30.314 165.164 31.088 165.164 32.06ZM175.009 32.06V35.75C175.009 36.542 175.153 37.136 175.441 37.532C174.985 37.94 174.439 38.144 173.803 38.144C173.179 38.144 172.753 38 172.525 37.712C172.297 37.424 172.183 36.986 172.183 36.398V32.564C172.183 32.156 172.129 31.856 172.021 31.664C171.913 31.472 171.703 31.376 171.391 31.376C171.211 31.376 171.007 31.424 170.779 31.52C170.551 31.616 170.317 31.772 170.077 31.988V38C169.873 38.036 169.651 38.06 169.411 38.072C169.171 38.096 168.925 38.108 168.673 38.108C168.421 38.108 168.175 38.096 167.935 38.072C167.695 38.06 167.473 38.036 167.269 38V29.018L167.395 28.892H168.457C169.189 28.892 169.681 29.252 169.933 29.972C170.773 29.228 171.607 28.856 172.435 28.856C173.275 28.856 173.911 29.15 174.343 29.738C174.787 30.314 175.009 31.088 175.009 32.06ZM180.353 31.088V38C180.149 38.036 179.927 38.06 179.687 38.072C179.447 38.096 179.201 38.108 178.949 38.108C178.697 38.108 178.445 38.096 178.193 38.072C177.953 38.06 177.731 38.036 177.527 38V32.042C177.527 31.346 177.245 30.998 176.681 30.998H176.411C176.339 30.77 176.303 30.452 176.303 30.044C176.303 29.648 176.339 29.312 176.411 29.036C176.723 29.012 177.011 28.994 177.275 28.982C177.539 28.958 177.779 28.946 177.995 28.946H178.391C179.003 28.946 179.483 29.138 179.831 29.522C180.179 29.906 180.353 30.428 180.353 31.088ZM177.203 25.4C177.551 25.208 178.001 25.112 178.553 25.112C179.117 25.112 179.555 25.208 179.867 25.4C180.011 25.724 180.083 26.072 180.083 26.444C180.083 26.816 180.011 27.164 179.867 27.488C179.519 27.668 179.063 27.758 178.499 27.758C177.935 27.758 177.503 27.668 177.203 27.488C177.059 27.164 176.987 26.816 176.987 26.444C176.987 26.072 177.059 25.724 177.203 25.4ZM187.245 40.196V37.496C186.621 37.952 185.943 38.18 185.211 38.18C184.143 38.18 183.333 37.76 182.781 36.92C182.241 36.068 181.971 34.916 181.971 33.464C181.971 32.732 182.067 32.078 182.259 31.502C182.451 30.914 182.703 30.416 183.015 30.008C183.339 29.6 183.711 29.288 184.131 29.072C184.563 28.856 185.013 28.748 185.481 28.748C186.453 28.748 187.269 29.024 187.929 29.576C188.349 29.12 188.919 28.886 189.639 28.874C189.723 28.946 189.807 29.036 189.891 29.144C189.987 29.252 190.071 29.372 190.143 29.504C190.227 29.636 190.299 29.774 190.359 29.918C190.419 30.062 190.461 30.194 190.485 30.314C190.149 30.566 189.981 30.998 189.981 31.61V41.762L189.855 41.888H188.757C188.205 41.888 187.815 41.762 187.587 41.51C187.359 41.258 187.245 40.82 187.245 40.196ZM185.913 35.912C186.405 35.912 186.849 35.714 187.245 35.318V31.43C186.813 31.034 186.423 30.836 186.075 30.836C185.259 30.836 184.851 31.736 184.851 33.536C184.851 35.12 185.205 35.912 185.913 35.912ZM192.124 34.958V31.268C192.124 30.488 191.98 29.888 191.692 29.468C192.136 29.072 192.676 28.874 193.312 28.874C193.948 28.874 194.38 29.018 194.608 29.306C194.836 29.594 194.95 30.032 194.95 30.62V34.436C194.95 34.856 194.998 35.162 195.094 35.354C195.19 35.546 195.442 35.642 195.85 35.642C196.246 35.642 196.648 35.438 197.056 35.03V29.018C197.452 28.946 197.914 28.91 198.442 28.91C198.97 28.91 199.444 28.946 199.864 29.018V35.426C199.864 36.074 200.032 36.512 200.368 36.74C200.308 36.98 200.194 37.244 200.026 37.532C199.858 37.808 199.684 38.012 199.504 38.144C198.52 38.108 197.812 37.688 197.38 36.884C196.432 37.736 195.538 38.162 194.698 38.162C193.858 38.162 193.216 37.874 192.772 37.298C192.34 36.71 192.124 35.93 192.124 34.958ZM209.059 34.418H204.361C204.385 34.958 204.523 35.378 204.775 35.678C205.027 35.978 205.441 36.128 206.017 36.128C206.305 36.128 206.635 36.086 207.007 36.002C207.391 35.918 207.829 35.78 208.321 35.588C208.717 35.996 208.963 36.548 209.059 37.244C208.099 37.928 206.923 38.27 205.531 38.27C204.775 38.27 204.139 38.15 203.623 37.91C203.119 37.67 202.705 37.334 202.381 36.902C202.069 36.47 201.847 35.96 201.715 35.372C201.583 34.784 201.517 34.142 201.517 33.446C201.517 32.774 201.595 32.156 201.751 31.592C201.919 31.016 202.165 30.518 202.489 30.098C202.825 29.678 203.245 29.348 203.749 29.108C204.265 28.868 204.865 28.748 205.549 28.748C206.125 28.748 206.641 28.844 207.097 29.036C207.565 29.228 207.961 29.492 208.285 29.828C208.609 30.164 208.855 30.566 209.023 31.034C209.203 31.502 209.293 32.012 209.293 32.564C209.293 33.296 209.215 33.914 209.059 34.418ZM204.343 32.474H206.719V32.276C206.719 31.832 206.617 31.466 206.413 31.178C206.221 30.89 205.927 30.746 205.531 30.746C205.147 30.746 204.859 30.884 204.667 31.16C204.487 31.424 204.379 31.862 204.343 32.474ZM219.765 32.582C219.765 31.778 219.495 31.376 218.955 31.376C218.763 31.376 218.565 31.436 218.361 31.556C218.169 31.664 217.971 31.808 217.767 31.988V38C217.563 38.036 217.341 38.06 217.101 38.072C216.861 38.096 216.615 38.108 216.363 38.108C216.111 38.108 215.865 38.096 215.625 38.072C215.385 38.06 215.163 38.036 214.959 38V29.018L215.085 28.892H216.129C216.897 28.892 217.401 29.27 217.641 30.026C218.493 29.246 219.321 28.856 220.125 28.856C221.097 28.856 221.799 29.27 222.231 30.098C223.167 29.27 224.055 28.856 224.895 28.856C225.735 28.856 226.359 29.12 226.767 29.648C227.187 30.164 227.397 30.854 227.397 31.718V35.75C227.397 36.53 227.547 37.124 227.847 37.532C227.391 37.94 226.845 38.144 226.209 38.144C225.585 38.144 225.159 38 224.931 37.712C224.703 37.424 224.589 36.986 224.589 36.398V32.564C224.589 31.772 224.307 31.376 223.743 31.376C223.395 31.376 223.011 31.586 222.591 32.006V38C222.387 38.036 222.165 38.06 221.925 38.072C221.685 38.096 221.439 38.108 221.187 38.108C220.935 38.108 220.683 38.096 220.431 38.072C220.191 38.06 219.969 38.036 219.765 38V32.582ZM235.976 29.81C236.84 30.674 237.272 31.91 237.272 33.518C237.272 34.238 237.176 34.892 236.984 35.48C236.804 36.068 236.534 36.572 236.174 36.992C235.826 37.4 235.394 37.718 234.878 37.946C234.362 38.162 233.768 38.27 233.096 38.27C232.424 38.27 231.83 38.156 231.314 37.928C230.81 37.7 230.378 37.382 230.018 36.974C229.67 36.554 229.406 36.05 229.226 35.462C229.046 34.874 228.956 34.226 228.956 33.518C228.956 32.798 229.046 32.15 229.226 31.574C229.406 30.986 229.67 30.482 230.018 30.062C230.366 29.642 230.798 29.318 231.314 29.09C231.83 28.862 232.424 28.748 233.096 28.748C234.284 28.748 235.244 29.102 235.976 29.81ZM233.114 30.854C232.85 30.854 232.634 30.92 232.466 31.052C232.31 31.172 232.184 31.34 232.088 31.556C231.992 31.772 231.926 32.024 231.89 32.312C231.854 32.588 231.836 32.888 231.836 33.212C231.836 33.716 231.848 34.154 231.872 34.526C231.908 34.886 231.968 35.192 232.052 35.444C232.148 35.684 232.274 35.864 232.43 35.984C232.598 36.104 232.814 36.164 233.078 36.164C233.606 36.164 233.954 35.936 234.122 35.48C234.29 35.012 234.374 34.352 234.374 33.5C234.374 32.636 234.29 31.982 234.122 31.538C233.954 31.082 233.618 30.854 233.114 30.854ZM243.706 32.582C243.706 31.778 243.436 31.376 242.896 31.376C242.704 31.376 242.506 31.436 242.302 31.556C242.11 31.664 241.912 31.808 241.708 31.988V38C241.504 38.036 241.282 38.06 241.042 38.072C240.802 38.096 240.556 38.108 240.304 38.108C240.052 38.108 239.806 38.096 239.566 38.072C239.326 38.06 239.104 38.036 238.9 38V29.018L239.026 28.892H240.07C240.838 28.892 241.342 29.27 241.582 30.026C242.434 29.246 243.262 28.856 244.066 28.856C245.038 28.856 245.74 29.27 246.172 30.098C247.108 29.27 247.996 28.856 248.836 28.856C249.676 28.856 250.3 29.12 250.708 29.648C251.128 30.164 251.338 30.854 251.338 31.718V35.75C251.338 36.53 251.488 37.124 251.788 37.532C251.332 37.94 250.786 38.144 250.15 38.144C249.526 38.144 249.1 38 248.872 37.712C248.644 37.424 248.53 36.986 248.53 36.398V32.564C248.53 31.772 248.248 31.376 247.684 31.376C247.336 31.376 246.952 31.586 246.532 32.006V38C246.328 38.036 246.106 38.06 245.866 38.072C245.626 38.096 245.38 38.108 245.128 38.108C244.876 38.108 244.624 38.096 244.372 38.072C244.132 38.06 243.91 38.036 243.706 38V32.582ZM260.439 34.418H255.741C255.765 34.958 255.903 35.378 256.155 35.678C256.407 35.978 256.821 36.128 257.397 36.128C257.685 36.128 258.015 36.086 258.387 36.002C258.771 35.918 259.209 35.78 259.701 35.588C260.097 35.996 260.343 36.548 260.439 37.244C259.479 37.928 258.303 38.27 256.911 38.27C256.155 38.27 255.519 38.15 255.003 37.91C254.499 37.67 254.085 37.334 253.761 36.902C253.449 36.47 253.227 35.96 253.095 35.372C252.963 34.784 252.897 34.142 252.897 33.446C252.897 32.774 252.975 32.156 253.131 31.592C253.299 31.016 253.545 30.518 253.869 30.098C254.205 29.678 254.625 29.348 255.129 29.108C255.645 28.868 256.245 28.748 256.929 28.748C257.505 28.748 258.021 28.844 258.477 29.036C258.945 29.228 259.341 29.492 259.665 29.828C259.989 30.164 260.235 30.566 260.403 31.034C260.583 31.502 260.673 32.012 260.673 32.564C260.673 33.296 260.595 33.914 260.439 34.418ZM255.723 32.474H258.099V32.276C258.099 31.832 257.997 31.466 257.793 31.178C257.601 30.89 257.307 30.746 256.911 30.746C256.527 30.746 256.239 30.884 256.047 31.16C255.867 31.424 255.759 31.862 255.723 32.474ZM270.125 32.06V35.75C270.125 36.542 270.269 37.136 270.557 37.532C270.101 37.94 269.555 38.144 268.919 38.144C268.295 38.144 267.869 38 267.641 37.712C267.413 37.424 267.299 36.986 267.299 36.398V32.564C267.299 32.156 267.245 31.856 267.137 31.664C267.029 31.472 266.819 31.376 266.507 31.376C266.327 31.376 266.123 31.424 265.895 31.52C265.667 31.616 265.433 31.772 265.193 31.988V38C264.989 38.036 264.767 38.06 264.527 38.072C264.287 38.096 264.041 38.108 263.789 38.108C263.537 38.108 263.291 38.096 263.051 38.072C262.811 38.06 262.589 38.036 262.385 38V29.018L262.511 28.892H263.573C264.305 28.892 264.797 29.252 265.049 29.972C265.889 29.228 266.723 28.856 267.551 28.856C268.391 28.856 269.027 29.15 269.459 29.738C269.903 30.314 270.125 31.088 270.125 32.06ZM277.484 29C277.556 29.336 277.592 29.672 277.592 30.008C277.592 30.344 277.556 30.674 277.484 30.998L275.342 30.962V35.102C275.342 35.666 275.606 35.948 276.134 35.948H277.142C277.298 36.38 277.376 36.776 277.376 37.136C277.376 37.496 277.352 37.754 277.304 37.91C276.416 38.03 275.6 38.09 274.856 38.09C273.344 38.09 272.588 37.256 272.588 35.588V30.98L271.184 30.998C271.1 30.698 271.058 30.374 271.058 30.026C271.058 29.666 271.1 29.324 271.184 29L272.588 29.036V27.992C272.588 27.38 272.702 26.948 272.93 26.696C273.17 26.432 273.566 26.3 274.118 26.3H275.216L275.342 26.426V29.036L277.484 29ZM286.61 36.704C286.55 36.956 286.436 37.226 286.268 37.514C286.1 37.802 285.926 38.012 285.746 38.144C284.906 38.12 284.258 37.802 283.802 37.19C283.022 37.91 282.176 38.27 281.264 38.27C280.796 38.27 280.388 38.192 280.04 38.036C279.692 37.892 279.398 37.694 279.158 37.442C278.918 37.19 278.738 36.902 278.618 36.578C278.498 36.242 278.438 35.894 278.438 35.534C278.438 35.018 278.528 34.568 278.708 34.184C278.9 33.788 279.158 33.464 279.482 33.212C279.806 32.948 280.184 32.75 280.616 32.618C281.048 32.486 281.51 32.42 282.002 32.42C282.278 32.42 282.518 32.426 282.722 32.438C282.938 32.438 283.124 32.444 283.28 32.456V32.114C283.28 31.358 282.89 30.98 282.11 30.98C281.606 30.98 280.724 31.172 279.464 31.556C279.104 31.136 278.876 30.482 278.78 29.594C279.068 29.486 279.386 29.384 279.734 29.288C280.094 29.192 280.46 29.108 280.832 29.036C281.204 28.964 281.57 28.91 281.93 28.874C282.29 28.826 282.614 28.802 282.902 28.802C283.322 28.802 283.724 28.862 284.108 28.982C284.504 29.102 284.846 29.288 285.134 29.54C285.434 29.78 285.668 30.098 285.836 30.494C286.016 30.878 286.106 31.34 286.106 31.88V35.534C286.106 36.086 286.274 36.476 286.61 36.704ZM281.174 35.354C281.174 35.918 281.498 36.2 282.146 36.2C282.482 36.2 282.86 36.026 283.28 35.678V34.238C283.04 34.226 282.836 34.22 282.668 34.22C282.512 34.208 282.392 34.202 282.308 34.202C281.552 34.202 281.174 34.586 281.174 35.354ZM295.947 32.06V35.75C295.947 36.542 296.091 37.136 296.379 37.532C295.923 37.94 295.377 38.144 294.741 38.144C294.117 38.144 293.691 38 293.463 37.712C293.235 37.424 293.121 36.986 293.121 36.398V32.564C293.121 32.156 293.067 31.856 292.959 31.664C292.851 31.472 292.641 31.376 292.329 31.376C292.149 31.376 291.945 31.424 291.717 31.52C291.489 31.616 291.255 31.772 291.015 31.988V38C290.811 38.036 290.589 38.06 290.349 38.072C290.109 38.096 289.863 38.108 289.611 38.108C289.359 38.108 289.113 38.096 288.873 38.072C288.633 38.06 288.411 38.036 288.207 38V29.018L288.333 28.892H289.395C290.127 28.892 290.619 29.252 290.871 29.972C291.711 29.228 292.545 28.856 293.373 28.856C294.213 28.856 294.849 29.15 295.281 29.738C295.725 30.314 295.947 31.088 295.947 32.06ZM305.053 34.418H300.355C300.379 34.958 300.517 35.378 300.769 35.678C301.021 35.978 301.435 36.128 302.011 36.128C302.299 36.128 302.629 36.086 303.001 36.002C303.385 35.918 303.823 35.78 304.315 35.588C304.711 35.996 304.957 36.548 305.053 37.244C304.093 37.928 302.917 38.27 301.525 38.27C300.769 38.27 300.133 38.15 299.617 37.91C299.113 37.67 298.699 37.334 298.375 36.902C298.063 36.47 297.841 35.96 297.709 35.372C297.577 34.784 297.511 34.142 297.511 33.446C297.511 32.774 297.589 32.156 297.745 31.592C297.913 31.016 298.159 30.518 298.483 30.098C298.819 29.678 299.239 29.348 299.743 29.108C300.259 28.868 300.859 28.748 301.543 28.748C302.119 28.748 302.635 28.844 303.091 29.036C303.559 29.228 303.955 29.492 304.279 29.828C304.603 30.164 304.849 30.566 305.017 31.034C305.197 31.502 305.287 32.012 305.287 32.564C305.287 33.296 305.209 33.914 305.053 34.418ZM300.337 32.474H302.713V32.276C302.713 31.832 302.611 31.466 302.407 31.178C302.215 30.89 301.921 30.746 301.525 30.746C301.141 30.746 300.853 30.884 300.661 31.16C300.481 31.424 300.373 31.862 300.337 32.474ZM299.905 27.182L302.695 24.14C303.043 24.248 303.385 24.464 303.721 24.788C304.057 25.1 304.279 25.424 304.387 25.76L301.057 28.262C300.817 28.202 300.583 28.07 300.355 27.866C300.139 27.662 299.989 27.434 299.905 27.182ZM314 34.418H309.302C309.326 34.958 309.464 35.378 309.716 35.678C309.968 35.978 310.382 36.128 310.958 36.128C311.246 36.128 311.576 36.086 311.948 36.002C312.332 35.918 312.77 35.78 313.262 35.588C313.658 35.996 313.904 36.548 314 37.244C313.04 37.928 311.864 38.27 310.472 38.27C309.716 38.27 309.08 38.15 308.564 37.91C308.06 37.67 307.646 37.334 307.322 36.902C307.01 36.47 306.788 35.96 306.656 35.372C306.524 34.784 306.458 34.142 306.458 33.446C306.458 32.774 306.536 32.156 306.692 31.592C306.86 31.016 307.106 30.518 307.43 30.098C307.766 29.678 308.186 29.348 308.69 29.108C309.206 28.868 309.806 28.748 310.49 28.748C311.066 28.748 311.582 28.844 312.038 29.036C312.506 29.228 312.902 29.492 313.226 29.828C313.55 30.164 313.796 30.566 313.964 31.034C314.144 31.502 314.234 32.012 314.234 32.564C314.234 33.296 314.156 33.914 314 34.418ZM309.284 32.474H311.66V32.276C311.66 31.832 311.558 31.466 311.354 31.178C311.162 30.89 310.868 30.746 310.472 30.746C310.088 30.746 309.8 30.884 309.608 31.16C309.428 31.424 309.32 31.862 309.284 32.474Z" fill="#4A4A4A" />
</svg>
