<svg width="23" height="23" viewBox="0 0 23 23" fill="none" xmlns="http://www.w3.org/2000/svg">
<circle cx="11.5" cy="11.5" r="11.5" fill="#00AC8C"/>
<path d="M16.6749 16.1L8.62495 16.1C8.31995 16.1 8.02744 15.9788 7.81178 15.7632C7.59611 15.5475 7.47495 15.255 7.47495 14.95C7.47495 14.645 7.59611 14.3525 7.81178 14.1368C8.02744 13.9212 8.31995 13.8 8.62495 13.8L16.6749 13.8L16.6749 6.325C16.6749 6.1725 16.6144 6.02625 16.5065 5.91841C16.3987 5.81058 16.2524 5.75 16.0999 5.75L8.62495 5.75C8.01495 5.75 7.42994 5.99232 6.9986 6.42365C6.56727 6.85499 6.32495 7.44 6.32495 8.05L6.32495 14.95C6.32495 15.56 6.56727 16.145 6.99861 16.5763C7.42994 17.0077 8.01495 17.25 8.62495 17.25L16.0999 17.25C16.2524 17.25 16.3987 17.1894 16.5065 17.0816C16.6144 16.9738 16.6749 16.8275 16.6749 16.675L16.6749 16.1ZM16.0999 14.375L8.62495 14.375C8.47245 14.375 8.3262 14.4356 8.21836 14.5434C8.11053 14.6512 8.04995 14.7975 8.04995 14.95C8.04995 15.1025 8.11053 15.2488 8.21836 15.3566C8.3262 15.4644 8.47245 15.525 8.62495 15.525L16.0999 15.525L16.0999 14.375Z" fill="white"/>
</svg>
