<svg width="30" height="31" viewBox="0 0 50 51" fill="none" xmlns="http://www.w3.org/2000/svg">
  <defs>
    <filter id="filter0_d" x="0" y="0" width="50" height="51" filterUnits="userSpaceOnUse" color-interpolation-filters="sRGB">
    <feFlood flood-opacity="0" result="BackgroundImageFix"/>
    <feColorMatrix in="SourceAlpha" type="matrix" values="0 0 0 0 0 0 0 0 0 0 0 0 0 0 0 0 0 0 127 0"/>
    <feOffset dy="1"/>
    <feColorMatrix type="matrix" values="0 0 0 0 0.85098 0 0 0 0 0.839216 0 0 0 0 0.796078 0 0 0 1 0"/>
    <feBlend mode="normal" in2="BackgroundImageFix" result="effect1_dropShadow"/>
    <feBlend mode="normal" in="SourceGraphic" in2="effect1_dropShadow" result="shape"/>
  </filter>
  </defs>
  <g filter="url(#filter0_d)">
    <circle cx="25" cy="25" r="25" fill="#00AC8C"/>
    <path d="M36.25 35L18.75 35C18.087 35 17.4511 34.7366 16.9822 34.2678C16.5134 33.7989 16.25 33.163 16.25 32.5C16.25 31.837 16.5134 31.2011 16.9822 30.7322C17.4511 30.2634 18.087 30 18.75 30L36.25 30L36.25 13.75C36.25 13.4185 36.1183 13.1005 35.8839 12.8661C35.6495 12.6317 35.3315 12.5 35 12.5L18.75 12.5C17.4239 12.5 16.1521 13.0268 15.2145 13.9645C14.2768 14.9021 13.75 16.1739 13.75 17.5L13.75 32.5C13.75 33.8261 14.2768 35.0979 15.2145 36.0355C16.1521 36.9732 17.4239 37.5 18.75 37.5L35 37.5C35.3315 37.5 35.6495 37.3683 35.8839 37.1339C36.1183 36.8995 36.25 36.5815 36.25 36.25L36.25 35ZM35 31.25L18.75 31.25C18.4185 31.25 18.1005 31.3817 17.8661 31.6161C17.6317 31.8505 17.5 32.1685 17.5 32.5C17.5 32.8315 17.6317 33.1495 17.8661 33.3839C18.1005 33.6183 18.4185 33.75 18.75 33.75L35 33.75L35 31.25Z" fill="white"/>
  </g>
</svg>
