<?xml version="1.0" encoding="UTF-8"?>
<svg width="23px" height="23px" viewBox="0 0 23 23" version="1.1" xmlns="http://www.w3.org/2000/svg" xmlns:xlink="http://www.w3.org/1999/xlink">
    <title>livre</title>
    <g id="Page-1" stroke="none" stroke-width="1" fill="none" fill-rule="evenodd">
        <g id="book" fill-rule="nonzero">
            <circle id="Oval" fill="#22967E" cx="11.5" cy="11.5" r="11.5"></circle>
            <path d="M16.2118375,15.6527458 L8.38543583,15.6527458 C8.08890833,15.6527458 7.80452292,15.5349667 7.59484917,15.3252833 C7.38517542,15.1156 7.26737708,14.8312625 7.26737708,14.5347542 C7.26737708,14.23815 7.38517542,13.9538125 7.59484917,13.7441292 C7.80452292,13.5344458 8.08890833,13.4166667 8.38543583,13.4166667 L16.2118375,13.4166667 L16.2118375,6.14930875 C16.2118375,6.001045 16.1529,5.8588475 16.0480583,5.75401542 C15.9432167,5.64917375 15.8010958,5.59027458 15.6528417,5.59027458 L8.38543583,5.59027458 C7.79238083,5.59027458 7.22361958,5.82587125 6.8042625,6.24521875 C6.384915,6.66457583 6.14932792,7.23333708 6.14932792,7.82639208 L6.14932792,14.5347542 C6.14932792,15.1277708 6.384915,15.6965417 6.8042625,16.1159083 C7.22361958,16.535275 7.79238083,16.7708333 8.38543583,16.7708333 L15.6528417,16.7708333 C15.8010958,16.7708333 15.9432167,16.7118958 16.0480583,16.6070542 C16.1529,16.5022125 16.2118375,16.3600917 16.2118375,16.2118375 L16.2118375,15.6527458 Z M15.6528417,13.9756625 L8.38543583,13.9756625 C8.23717208,13.9756625 8.09498417,14.0346 7.9901425,14.1394417 C7.88531042,14.2442833 7.82641125,14.3865 7.82641125,14.5347542 C7.82641125,14.6830083 7.88531042,14.8251292 7.9901425,14.9299708 C8.09498417,15.0348125 8.23717208,15.09375 8.38543583,15.09375 L15.6528417,15.09375 L15.6528417,13.9756625 Z" id="Shape" fill="#FFFFFF"></path>
        </g>
    </g>
</svg>
