<svg width="29" height="30" viewBox="0 0 29 30" fill="none" xmlns="http://www.w3.org/2000/svg">
<g filter="url(#filter0_d)">
<circle cx="14.5" cy="14.5" r="14.5" fill="#FF8D7E"/>
<path d="M12.325 15.2249V17.3999H16.675V15.2249H21.75V20.2999C21.75 20.4922 21.6736 20.6766 21.5377 20.8126C21.4017 20.9485 21.2173 21.0249 21.025 21.0249H7.975C7.78272 21.0249 7.59831 20.9485 7.46235 20.8126C7.32638 20.6766 7.25 20.4922 7.25 20.2999V15.2249H12.325ZM13.775 13.7749H15.225V15.9499H13.775V13.7749ZM10.875 9.4249V7.2499C10.875 7.05762 10.9514 6.87321 11.0873 6.73725C11.2233 6.60129 11.4077 6.5249 11.6 6.5249H17.4C17.5923 6.5249 17.7767 6.60129 17.9127 6.73725C18.0486 6.87321 18.125 7.05762 18.125 7.2499V9.4249H21.025C21.2173 9.4249 21.4017 9.50129 21.5377 9.63725C21.6736 9.77321 21.75 9.95762 21.75 10.1499V13.7749H16.675V12.3249H12.325V13.7749H7.25V10.1499C7.25 9.95762 7.32638 9.77321 7.46235 9.63725C7.59831 9.50129 7.78272 9.4249 7.975 9.4249H10.875ZM12.325 7.9749V9.4249H16.675V7.9749H12.325Z" fill="#F8F8F8"/>
</g>
<defs>
<filter id="filter0_d" x="0" y="0" width="29" height="30" filterUnits="userSpaceOnUse" color-interpolation-filters="sRGB">
<feFlood flood-opacity="0" result="BackgroundImageFix"/>
<feColorMatrix in="SourceAlpha" type="matrix" values="0 0 0 0 0 0 0 0 0 0 0 0 0 0 0 0 0 0 127 0"/>
<feOffset dy="1"/>
<feColorMatrix type="matrix" values="0 0 0 0 0.85098 0 0 0 0 0.839216 0 0 0 0 0.796078 0 0 0 1 0"/>
<feBlend mode="normal" in2="BackgroundImageFix" result="effect1_dropShadow"/>
<feBlend mode="normal" in="SourceGraphic" in2="effect1_dropShadow" result="shape"/>
</filter>
</defs>
</svg>
