<svg width="23" height="23" viewBox="0 0 23 23" fill="none" xmlns="http://www.w3.org/2000/svg">
  <circle cx="11.5" cy="11.5" r="11.5" fill="#FF8D7E"/>
  <path d="M9.775 12.075V13.8H13.225V12.075H17.25V16.1C17.25 16.2525 17.1894 16.3987 17.0816 16.5066C16.9738 16.6144 16.8275 16.675 16.675 16.675H6.325C6.1725 16.675 6.02625 16.6144 5.91841 16.5066C5.81058 16.3987 5.75 16.2525 5.75 16.1V12.075H9.775ZM10.925 10.925H12.075V12.65H10.925V10.925ZM8.625 7.47499V5.74999C8.625 5.59749 8.68558 5.45123 8.79341 5.3434C8.90125 5.23557 9.0475 5.17499 9.2 5.17499H13.8C13.9525 5.17499 14.0988 5.23557 14.2066 5.3434C14.3144 5.45123 14.375 5.59749 14.375 5.74999V7.47499H16.675C16.8275 7.47499 16.9738 7.53557 17.0816 7.6434C17.1894 7.75123 17.25 7.89749 17.25 8.04999V10.925H13.225V9.77499H9.775V10.925H5.75V8.04999C5.75 7.89749 5.81058 7.75123 5.91841 7.6434C6.02625 7.53557 6.1725 7.47499 6.325 7.47499H8.625ZM9.775 6.32499V7.47499H13.225V6.32499H9.775Z" fill="#F8F8F8"/>
</svg>
