<?xml version="1.0" encoding="UTF-8"?>
<svg width="25px" height="25px" viewBox="0 0 25 25" version="1.1" xmlns="http://www.w3.org/2000/svg" xmlns:xlink="http://www.w3.org/1999/xlink">
    <title>job</title>
    <defs></defs>
    <g id="Page-1" stroke="none" stroke-width="1" fill="none" fill-rule="evenodd">
        <g id="job" transform="translate(1.000000, 1.000000)" fill-rule="nonzero">
            <circle id="Oval" fill="#D07C75" cx="11.5" cy="11.5" r="11.2788462"></circle>
            <path d="M9.84134615,12.0528846 L9.84134615,13.7115385 L13.1586538,13.7115385 L13.1586538,12.0528846 L17.0288462,12.0528846 L17.0288462,15.9230769 C17.0288462,16.0697019 16.9705942,16.2103558 16.8669173,16.3140327 C16.7632404,16.4177096 16.6225865,16.4759615 16.4759615,16.4759615 L6.52403846,16.4759615 C6.37741346,16.4759615 6.23675962,16.4177096 6.13308269,16.3140327 C6.02940577,16.2103558 5.97115385,16.0697019 5.97115385,15.9230769 L5.97115385,12.0528846 L9.84134615,12.0528846 Z M10.9471154,10.9471154 L12.0528846,10.9471154 L12.0528846,12.6057692 L10.9471154,12.6057692 L10.9471154,10.9471154 Z M8.73557692,7.62980769 L8.73557692,5.97115385 C8.73557692,5.82452885 8.79382885,5.683875 8.89750577,5.58019808 C9.00118269,5.47652115 9.14183654,5.41826923 9.28846154,5.41826923 L13.7115385,5.41826923 C13.8581635,5.41826923 13.9988173,5.47652115 14.1024942,5.58019808 C14.2061712,5.683875 14.2644231,5.82452885 14.2644231,5.97115385 L14.2644231,7.62980769 L16.4759615,7.62980769 C16.6225865,7.62980769 16.7632404,7.68805962 16.8669173,7.79173654 C16.9705942,7.89541346 17.0288462,8.03606731 17.0288462,8.18269231 L17.0288462,10.9471154 L13.1586538,10.9471154 L13.1586538,9.84134615 L9.84134615,9.84134615 L9.84134615,10.9471154 L5.97115385,10.9471154 L5.97115385,8.18269231 C5.97115385,8.03606731 6.02940577,7.89541346 6.13308269,7.79173654 C6.23675962,7.68805962 6.37741346,7.62980769 6.52403846,7.62980769 L8.73557692,7.62980769 Z M9.84134615,6.52403846 L9.84134615,7.62980769 L13.1586538,7.62980769 L13.1586538,6.52403846 L9.84134615,6.52403846 Z" id="Shape" fill="#F8F8F8"></path>
        </g>
    </g>
</svg>
