<svg width="834" height="602" viewBox="0 0 834 602" fill="none" xmlns="http://www.w3.org/2000/svg">
<path d="M218.662 490.533L253.058 599.661H76.4409C76.4409 599.661 98.6493 522.172 115.306 490.533H218.662Z" fill="#185E3D"/>
<path d="M123.407 490.533L101.906 599.661" stroke="#092E1C" stroke-width="1.06" stroke-miterlimit="10"/>
<path d="M144.286 506.53L133.142 599" stroke="#092E1C" stroke-width="1.06" stroke-miterlimit="10"/>
<path d="M165 491V599" stroke="#092E1C" stroke-width="1.06" stroke-miterlimit="10"/>
<path d="M187 491L197 599" stroke="#092E1C" stroke-width="1.06" stroke-miterlimit="10"/>
<path d="M208 490.999L228 598.999" stroke="#092E1C" stroke-width="1.06" stroke-miterlimit="10"/>
<path d="M167.769 523.554C185.168 537.329 214.995 544.336 232.772 535.3L218.662 490.533H115.306C112.617 495.642 109.783 501.951 106.92 508.93C113.986 513.153 128.126 519.527 146.757 517.473C154.284 516.643 161.83 518.852 167.769 523.554Z" fill="#092E1C"/>
<path d="M176.243 302.821L179.092 316.094C179.092 316.094 186.555 321.552 184.345 329.662C182.135 337.773 173.296 339.159 173.296 339.159L155.62 309.457L176.243 302.821Z" fill="#FF8D7E"/>
<path d="M113.381 357.393C135.243 355.215 193.357 349.428 193.357 349.428L257.89 281.134L289.132 199.683C289.132 199.683 285.556 187.177 292.175 186.856C293.777 177.236 298.956 179.053 300.877 182.26C305.148 180.549 307.711 183.008 308.137 185.786C310.807 184.291 313.69 186.535 312.943 190.169C316.894 190.169 316.787 198.4 308.458 205.882L290.142 282.56C286.111 299.431 278.225 315.136 267.104 328.44L224.084 379.907L200.083 462.815H121.926C121.926 462.815 111.036 470.01 101.105 477.065C91.176 484.12 77.7229 487.326 66.1906 480.592C51.7129 472.137 60.1051 444.677 69.0734 421.587C78.0428 398.501 92.7611 359.445 113.381 357.393Z" fill="#FF8D7E"/>
<path d="M111.707 408.126C111.707 408.126 101.28 434.712 98.1664 443.672C95.0527 452.635 105.123 456.579 112.761 449.322C118.869 443.519 134.61 449.322 134.61 449.322L111.707 408.126Z" fill="#C73A32"/>
<path d="M90.2148 464.665L113.598 402.028" stroke="#C73A32" stroke-miterlimit="10"/>
<path d="M131.93 386.314H178.638C184.019 386.314 189.034 388.949 192.151 393.34C196.849 399.958 205.348 408.428 216.726 405.323C216.726 405.323 229.131 419.087 212.114 436.66L225.049 496.946H108.152L122.567 469.048L108.773 412.245C107.557 407.235 109.541 401.954 113.83 399.1C116.994 396.993 120.734 394.004 124.081 390.017C126.034 387.691 128.894 386.314 131.93 386.314Z" fill="#FFE2DF"/>
<path d="M150.943 488.333C148.892 487.606 147.134 486.309 145.945 484.488C143.222 480.316 137.973 478.841 131.847 479.76C129.284 480.144 126.665 479.462 124.547 477.966C122.87 476.779 120.819 476.261 118.944 476.061L108.152 496.946H157.924C156.533 493.759 154.136 489.463 150.943 488.333Z" fill="#FF7DA8"/>
<path d="M154.742 448.204C159.51 442.746 170.327 445.901 174.365 446.595C178.404 447.29 181.481 443.216 186.482 447.276C191.481 451.334 188.405 459.997 187.443 463.656C186.482 467.314 191.552 474.714 184.559 477.519C176.138 480.895 172.366 473.175 164.674 470.864C156.981 468.554 144.123 460.36 154.742 448.204Z" fill="#FF7DA8"/>
<path d="M212.115 436.66L207.868 416.959" stroke="#FF7DA8" stroke-width="1.26267" stroke-miterlimit="10"/>
<path d="M187.062 350.055L189.263 394.964H180.015L174.559 351.273L187.062 350.055Z" fill="#FFF0F5"/>
<path d="M213.348 442.408C211.284 444.24 208.957 447.334 208.839 452.053C208.626 460.603 208.198 467.053 205.209 473.342C202.419 479.21 206.889 489.265 221.71 481.386L213.348 442.408Z" fill="#FF7DA8"/>
<path d="M186.917 423.672C191.748 424.09 195.091 418.118 195.997 411.199C196.242 409.338 197.062 407.567 198.474 406.332C199.823 405.154 200.732 403.882 201.158 402.477C197.385 399.945 194.351 396.44 192.151 393.34C189.034 388.949 184.019 386.315 178.638 386.315H174.925C177.037 397.253 182.517 423.293 186.917 423.672Z" fill="#FF7DA8"/>
<path d="M117.83 356.949L123.421 393.476L130.414 391.338L131.6 355.578L117.83 356.949Z" fill="#FFF0F5"/>
<path d="M114.064 442.746H192.935L175.07 327.416C172.729 328.331 169.922 326.971 168.715 324.275C167.475 321.507 168.395 318.398 170.77 317.331C171.634 316.944 172.569 316.887 173.471 317.095L172.895 313.382C185.669 299.271 176.295 286.85 161.413 287.091C137.599 287.475 126.647 298.102 125.51 317.405C124.821 329.091 128.191 341.381 127.09 354.387C125.989 367.395 116.96 377.757 116.74 389.882C116.52 402.008 125.29 408.845 120.263 417.431C110.345 434.371 114.064 442.746 114.064 442.746Z" fill="#111C5C"/>
<path d="M167.726 326.426L179.438 442.746" stroke="#6273CC" stroke-miterlimit="10"/>
<path d="M156.75 326.426L162.974 442.746" stroke="#6273CC" stroke-miterlimit="10"/>
<path d="M145.775 326.426L146.511 442.746" stroke="#6273CC" stroke-miterlimit="10"/>
<path d="M134.799 326.426L130.046 442.746" stroke="#6273CC" stroke-miterlimit="10"/>
<path d="M352.955 520.609L371.468 599.661H302.92L294.925 571.023L283.701 570.701L286.753 599.661H232.13C232.13 599.661 219.617 559.799 237.254 514.904L352.955 520.609Z" fill="#24348C"/>
<path d="M286.753 599.661L283.7 570.701L271.368 569.579C271.368 569.579 267.792 574.762 271.943 580.218C273.731 582.569 274.809 585.388 275.175 588.319C275.876 593.952 276.494 599.661 276.494 599.661H286.753Z" fill="#111C5C"/>
<path d="M268.539 569.579L294.924 571.022" stroke="#6273CC" stroke-width="1.388" stroke-miterlimit="10"/>
<path d="M359.901 550.269L352.956 520.608L237.254 514.904C236.148 517.721 235.16 520.518 234.28 523.287L292.296 529.536C295.549 529.886 298.713 530.778 301.672 532.176C312.15 537.126 339.611 549.213 359.901 550.269Z" fill="#111C5C"/>
<path d="M236.638 534.144H274.436C274.436 534.144 271.632 559.958 254.215 559.958C236.798 559.958 236.638 534.144 236.638 534.144Z" stroke="#6273CC" stroke-width="1.388" stroke-miterlimit="10"/>
<path d="M305.06 534.144H342.858C342.858 534.144 340.054 559.958 322.637 559.958C305.22 559.958 305.06 534.144 305.06 534.144Z" stroke="#6273CC" stroke-width="1.388" stroke-miterlimit="10"/>
<path d="M247.627 363.687L176.627 337.044L130.183 276.276C128.823 274.497 128.172 272.28 128.359 270.048C128.548 267.789 128.738 264.732 128.699 261.914C128.626 256.611 128.708 253.844 126.48 254.635C124.202 255.446 125.361 260.5 123.852 263.113C123.852 263.113 119.024 253.189 120.753 245.36C121.032 244.093 119.769 243.018 118.545 243.442C117.417 243.832 116.172 244.918 115.306 247.54C111.92 245.787 110.348 250.409 110.612 252.416C106.159 250.623 106.777 259.429 107.612 261.192C107.612 261.192 105.644 261.814 106.408 267.522C107.042 272.267 110.197 278.193 114.225 281.462C114.225 281.462 134.853 332.366 143.967 350.833C153.08 369.3 245.517 413.668 245.517 413.668L247.627 363.687Z" fill="#D08A77"/>
<path d="M115.306 247.54C115.306 247.54 115.831 256.244 118.675 263.515" stroke="#C73A32" stroke-width="1.08667" stroke-miterlimit="10"/>
<path d="M110.612 252.416C110.57 255.848 112.723 262.763 114.036 265.568" stroke="#C73A32" stroke-width="1.08667" stroke-miterlimit="10"/>
<path d="M107.611 261.192C108.497 263.82 110.56 268.165 110.56 268.165" stroke="#C73A32" stroke-width="1.08667" stroke-miterlimit="10"/>
<path d="M207.283 362.191C209.703 370.356 212.838 378.786 213.956 389.416C214.539 394.969 217.979 399.816 222.937 402.37C236.078 409.137 245.516 413.668 245.516 413.668L247.627 363.686L209.63 349.427C207.003 352.892 205.899 357.521 207.283 362.191Z" fill="#C73A32"/>
<path d="M290.688 311.27C290.688 311.27 297.299 318.899 297.919 327.239C298.539 335.577 302.078 336.959 301.109 343.383C300.4 348.085 296.079 350.125 296.079 350.125L293.768 373.456L265.323 371.149L272.221 344.27L290.688 311.27Z" fill="#D08A77"/>
<path d="M245.424 360.384L262.24 366.433C262.24 366.433 276.064 359.858 300.357 368.357H330.65L352.954 520.608H233.468C233.468 520.608 239.07 501.008 243.996 490.988C236.293 466.59 220.445 409.563 220.445 409.563C220.445 409.563 215.862 387.53 228.253 366.581C231.753 360.664 238.96 358.059 245.424 360.384Z" fill="#FFC29E"/>
<path d="M280.879 364.156C280.088 364.099 279.325 364.064 278.581 364.04L292.636 520.608H294.924L280.879 364.156Z" fill="#24348C"/>
<path d="M302.811 368.357H300.524L314.192 520.608H316.48L302.811 368.357Z" fill="#24348C"/>
<path d="M237.388 359.916C236.628 360.092 235.884 360.328 235.164 360.623L249.526 520.609H251.814L237.388 359.916Z" fill="#24348C"/>
<path d="M257.074 364.574L271.08 520.609H273.368L259.437 365.424L257.074 364.574Z" fill="#24348C"/>
<path d="M324.367 368.357H322.08L335.747 520.608H338.034L324.367 368.357Z" fill="#24348C"/>
<path d="M361.532 408.521C361.532 408.521 342.583 368.357 330.65 368.357C321.124 368.357 311.749 383.874 317.726 400.908C320.095 407.66 335.646 439.3 346.4 460.94C352.287 472.782 366.166 478.246 378.534 473.598C389.117 469.62 395.876 459.206 395.206 447.91L387.432 316.839C387.432 316.839 389.059 304.056 387.719 301.485C385.92 298.024 383.255 299.376 383.255 299.376C383.255 299.376 380.663 295.717 376.99 298.095C375.046 296.148 370.726 297.086 369.861 298.672C367.413 297.952 365.324 299.376 364.965 302.132C364.77 303.625 364.965 306.891 365.973 308.188C363.74 311.504 365.262 318.023 371.599 318.666L361.532 408.521Z" fill="#D08A77"/>
<path d="M365.985 308.212L371.794 305.352" stroke="#C73A32" stroke-width="1.136" stroke-miterlimit="10"/>
<path d="M367.917 301.772L368.89 306.782" stroke="#C73A32" stroke-width="1.136" stroke-miterlimit="10"/>
<path d="M279.488 305.77C297.483 307.9 293.754 324.221 289.634 331.319C289.634 331.319 284.804 328.125 283.741 332.915C282.677 337.705 285.424 340.012 289.634 340.545C289.634 340.545 287.571 358.135 275.411 358.135C265.841 358.135 256.489 348.662 254.854 332.422C252.904 313.071 266.083 304.184 279.488 305.77Z" fill="#A6302A"/>
<path d="M275.986 318.438C275.986 313.605 274.076 309.262 271.037 306.199C261.124 308.484 253.323 317.224 254.854 332.421C254.914 333.027 254.989 333.62 255.071 334.208C256.73 334.853 258.511 335.222 260.376 335.222C268.997 335.222 275.986 327.707 275.986 318.438Z" fill="#7A231F"/>
<path d="M273.849 315.637C273.849 324.067 267.494 330.901 259.655 330.901C251.816 330.901 245.46 324.067 245.46 315.637C245.46 307.207 251.816 300.373 259.655 300.373C267.494 300.373 273.849 307.207 273.849 315.637Z" fill="#A6302A"/>
<path d="M728.288 294.682C728.288 294.682 714.436 297.329 714.433 287.867C714.432 279.744 722.122 279.53 722.122 279.53C722.122 279.53 720.591 271.751 728.822 269.162C736.295 266.81 740.113 274.719 740.113 274.719C740.113 274.719 749.216 272.048 749.643 282.522C756.37 281.454 759.186 288.712 757.506 292.722C764.051 293.523 764.164 305.344 756.796 307.75L749.429 316.942L739.499 319.132C739.499 319.132 727.166 301.496 728.288 294.682Z" fill="#111C5C"/>
<path d="M730.744 333.51L725.299 317.904C725.299 317.904 717.611 319.08 716.65 311.597C715.689 304.116 722.951 299.197 722.951 299.197L726.292 289.043C726.292 289.043 729.569 289.899 732.132 289.043C731.171 293.64 736.617 299.411 740.353 301.015C744.198 298.557 747.401 299.519 747.401 303.259C747.401 307 744.198 311.063 739.499 310.742C741.635 317.582 749.429 316.942 749.429 316.942L763.662 333.51H730.744Z" fill="#A26959"/>
<path d="M730.744 333.51H763.662C763.662 333.51 756.556 325.237 753.322 321.474C747.265 319.611 745.799 326.509 728.858 328.106C729.569 330.197 730.744 333.51 730.744 333.51Z" fill="#875547"/>
<path d="M725.299 317.904C725.299 317.904 730.424 318.652 737.044 313.201" stroke="#875547" stroke-width="1.26267" stroke-miterlimit="10"/>
<path d="M672.594 485.011L671.271 599.882H733.423L732.085 553.669L744.704 552.102L754.911 599.882H818.136L805.162 538.313C805.162 538.313 811.113 515.723 803.509 485.011H672.594Z" fill="#24348C"/>
<path d="M744.704 504.322C744.704 504.322 774.287 516.27 798.1 511.177C803.396 510.045 806.977 505.022 806.272 499.648C805.668 495.041 804.778 490.14 803.509 485.011H672.594L672.47 495.668L744.704 504.322Z" fill="#111C5C"/>
<path d="M749.687 538.938L724.673 559.872" stroke="#6273CC" stroke-width="1.28267" stroke-miterlimit="10"/>
<path d="M689.317 508.277H724.673C724.673 508.277 729.798 533.503 706.995 533.503C684.191 533.503 689.317 508.277 689.317 508.277Z" stroke="#6273CC" stroke-width="1.28267" stroke-miterlimit="10"/>
<path d="M760.516 508.277H795.873C795.873 508.277 800.997 533.503 778.194 533.503C755.391 533.503 760.516 508.277 760.516 508.277Z" stroke="#6273CC" stroke-width="1.28267" stroke-miterlimit="10"/>
<path d="M678.425 485.011L680.56 599.563" stroke="#6273CC" stroke-width="1.28267" stroke-miterlimit="10"/>
<path d="M833.352 398.269C833.352 398.269 838.798 430.567 841.36 448.846C843.923 467.123 833.352 478.988 808.688 477.064L790.826 400.926L833.352 398.269Z" fill="#A26959"/>
<path d="M833.352 398.269L790.826 400.926L797.848 430.856L836.318 416.225C834.673 406.098 833.352 398.269 833.352 398.269Z" fill="#875547"/>
<path d="M807.178 464.452L804.649 442.218C809.153 429.819 810.221 411.861 810.221 411.861H843.069C843.069 411.861 840.933 395.613 833.887 388.559C836.45 379.58 830.683 369.318 823.209 361.809C822.141 350.238 814.668 342.169 803.777 339.389C803.777 339.389 788.251 336.125 770.032 334.096L769.449 329.716H725.886L726.395 333.367C705.654 335.192 689.209 339.336 689.209 339.336L669.67 466.376C667.535 473.645 662.623 493.525 676.716 493.525H777.939C797.156 493.525 810.396 493.312 812.751 481.184C815.105 469.057 807.178 464.452 807.178 464.452Z" fill="#FFC29E"/>
<path d="M826.051 411.862C822.955 396.835 816.607 368.295 811.348 359.269C813.421 368.193 810.221 411.862 810.221 411.862H826.051Z" fill="#AD6708"/>
<path d="M715.001 383.514C715.001 383.514 715.796 390.644 712.754 397.056C709.711 403.47 709.069 413.024 709.069 413.024L687.928 394.545L715.001 383.514Z" fill="#AD6708"/>
<path d="M546.023 599.661H364.729L373.695 549.217H537.057L546.023 599.661Z" fill="#185E3D"/>
<path d="M537.057 549.216H377.979L374.43 562.871C374.43 562.871 382.203 571.165 397.542 572.232C412.879 573.298 420.312 567.987 435.969 569.074C451.628 570.161 454.421 576.183 471.037 577.337C487.654 578.491 486.503 571.941 501.225 572.643C515.945 573.343 516.141 579.786 532.074 581.537C536.289 581.999 539.829 581.867 542.784 581.437L537.057 549.216Z" fill="#092E1C"/>
<path d="M291.695 430.032L249.627 370.815C249.627 370.815 252.722 358.309 245.783 356.813C245.783 356.813 245.516 350.451 238.735 351.36C234.532 351.924 229.384 353.23 225.402 354.331C224.226 354.656 223.713 356.028 224.379 357.051C225.41 358.304 225.988 359.864 226.05 361.486C226.215 365.917 227.199 374.975 232.436 376.266L260.197 464.665L291.695 430.032Z" fill="#FF8D7E"/>
<path d="M279.077 412.272C266.554 420.865 267.729 448.905 257.345 455.584L260.197 464.666L291.695 430.032L279.077 412.272Z" fill="#C73A32"/>
<path d="M245.783 356.813L246.908 362.279" stroke="#C73A32" stroke-width="1.26267" stroke-miterlimit="10"/>
<path d="M241.626 362.279L238.9 351.346" stroke="#C73A32" stroke-width="1.26267" stroke-miterlimit="10"/>
<path d="M236.491 363.274L233.764 352.34" stroke="#C73A32" stroke-width="1.26267" stroke-miterlimit="10"/>
<path d="M231.858 364.444L229.13 353.51" stroke="#C73A32" stroke-width="1.26267" stroke-miterlimit="10"/>
<path d="M434.126 314.459C436.512 317.975 436.51 322.142 434.12 323.767C431.731 325.394 427.858 323.862 425.472 320.346C423.086 316.831 423.088 312.663 425.478 311.036C427.868 309.412 431.74 310.943 434.126 314.459Z" fill="#FF8D7E"/>
<path d="M556.705 266.917L597.177 200.195C598.68 197.716 599.159 194.76 598.559 191.923C597.659 187.677 596.784 181.18 598.585 177.002C600.802 171.865 604.644 174.242 604.644 174.242C604.644 174.242 606.982 167.622 611.051 169.005C616.711 170.929 623.657 174.029 625.045 180.335C626.285 185.968 621.982 192.454 615.799 198.041C614.308 199.388 613.207 201.113 612.685 203.054L591.713 280.892L556.705 266.917Z" fill="#FF8D7E"/>
<path d="M564.381 256.623C563.838 256.626 563.304 256.728 562.781 256.899L556.705 266.916L591.714 280.891L595.306 267.561C596.076 264.696 593.486 262.098 590.608 262.8C573.975 266.857 575.285 256.574 564.381 256.623Z" fill="#C73A32"/>
<path d="M435.271 331.748L429.799 367.394L467.277 356.812L464.346 325.707C464.346 325.707 468.443 323.776 469.472 318.171C470.5 312.565 466.167 303.507 466.167 303.507L435.271 331.748Z" fill="#FF8D7E"/>
<path d="M406.049 358.737C435.172 351.602 517.199 323.143 517.199 323.143L555.638 267.985L590.551 281.915L533.214 432.171L545.386 559.478C545.386 559.478 539.301 566.533 523.285 565.892C507.269 565.249 506.629 558.837 491.894 559.157C477.159 559.478 478.761 565.933 462.104 565.933C445.448 565.933 442.244 560.12 426.548 560.12C410.853 560.12 403.806 565.933 388.431 565.933C373.056 565.933 364.727 558.195 364.727 558.195L386.83 440.187C386.83 440.187 340.704 484.12 326.609 495.664C312.516 507.208 287.638 509.132 271.835 480.058C271.835 480.058 325.542 416.288 337.219 400.573C355.438 376.053 375.939 366.112 406.049 358.737Z" fill="#3A55D1"/>
<path d="M284.235 495.686L305.078 442.746L300.982 445.204C285.767 463.515 271.835 480.059 271.835 480.059C275.551 486.895 279.773 491.999 284.235 495.686Z" fill="#111C5C"/>
<path d="M555.637 267.986L545.335 282.77L580.129 309.23L590.551 281.916L555.637 267.986Z" fill="#111C5C"/>
<path d="M533.214 432.171L541.148 411.38C524.902 420.778 494.998 437.318 494.998 437.318L458.109 391.334L431.062 408.763C431.062 408.763 432.551 413.324 439.391 419.778C446.23 426.234 444.979 430.635 446.892 435.557C448.801 440.476 455.054 444.247 459.049 448.468C463.045 452.69 462.994 461.161 469.688 469.579L469.89 469.833C480.456 483.146 498.902 487.213 514.076 479.576L536.66 468.21L533.214 432.171Z" fill="#111C5C"/>
<path d="M432.072 474.562V467.788H438.838V466.028H432.072V459.254H430.314V466.028H423.549V467.788H430.314V474.562H432.072Z" fill="#111C5C"/>
<path d="M444.471 497.072V490.298H451.236V488.538H444.471V481.764H442.712V488.538H435.946V490.298H442.712V497.072H444.471Z" fill="#111C5C"/>
<path d="M456.868 474.562V467.788H463.635V466.028H456.868V459.254H455.11V466.028H448.345V467.788H455.11V474.562H456.868Z" fill="#111C5C"/>
<path d="M394.878 497.072V490.298H401.643V488.538H394.878V481.764H393.12V488.538H386.354V490.298H393.12V497.072H394.878Z" fill="#111C5C"/>
<path d="M531.258 474.562V467.788H536.62L536.452 466.028H531.258V459.254H529.499V466.028H522.733V467.788H529.499V474.562H531.258Z" fill="#111C5C"/>
<path d="M407.276 474.562V467.788H414.042V466.028H407.276V459.254H405.518V466.028H398.753V467.788H405.518V474.562H407.276Z" fill="#111C5C"/>
<path d="M518.86 497.072V490.298H525.625V488.538H518.86V481.764H517.1V488.538H510.335V490.298H517.1V497.072H518.86Z" fill="#111C5C"/>
<path d="M506.461 474.562V467.788H513.227V466.028H506.461V459.254H504.702V466.028H497.936V467.788H504.702V474.562H506.461Z" fill="#111C5C"/>
<path d="M481.665 474.562V467.788H488.431V466.028H481.665V459.254H479.907V466.028H473.141V467.788H479.907V474.562H481.665Z" fill="#111C5C"/>
<path d="M469.267 497.072V490.298H476.032V488.538H469.267V481.764H467.508V488.538H460.743V490.298H467.508V497.072H469.267Z" fill="#111C5C"/>
<path d="M494.063 497.072V490.298H500.829V488.538H494.063V481.764H492.305V488.538H485.538V490.298H492.305V497.072H494.063Z" fill="#111C5C"/>
<path d="M419.674 497.072V490.298H426.439V488.538H419.674V481.764H417.916V488.538H411.15V490.298H417.916V497.072H419.674Z" fill="#111C5C"/>
<path d="M529.499 367.269V374.043H522.733V375.803H529.499V382.577H531.258V375.803H538.024V374.043H531.258V367.269H529.499Z" fill="#111C5C"/>
<path d="M517.1 389.78V396.553H510.335V398.313H517.1V405.087H518.86V398.313H525.625V396.553H518.86V389.78H517.1Z" fill="#111C5C"/>
<path d="M504.703 367.269V374.043H497.936V375.803H504.703V382.577H506.461V375.803H513.227V374.043H506.461V367.269H504.703Z" fill="#111C5C"/>
<path d="M541.897 343.786V350.56H535.131V352.32H541.897V359.094H543.655V352.32H550.422V350.56H543.655V343.786H541.897Z" fill="#111C5C"/>
<path d="M531.258 428.569V421.796H537.174L537.846 420.036H531.258V413.262H529.499V420.036H522.733V421.796H529.499V428.569H531.258Z" fill="#111C5C"/>
<path d="M308.091 474.562V467.788H314.857V466.028H308.091V459.254H306.333V466.028H299.568V467.788H306.333V474.562H308.091Z" fill="#111C5C"/>
<path d="M492.305 343.786V350.56H485.539V352.32H492.305V359.094H494.063V352.32H500.829V350.56H494.063V343.786H492.305Z" fill="#111C5C"/>
<path d="M430.314 367.269V374.043H423.549V375.803H430.314V382.577H432.072V375.803H438.839V374.043H432.072V367.269H430.314Z" fill="#111C5C"/>
<path d="M442.712 389.78V396.553H435.946V398.313H442.712V405.087H444.471V398.313H451.236V396.553H444.471V389.78H442.712Z" fill="#111C5C"/>
<path d="M455.11 367.269V374.043H448.345V375.803H455.11V382.577H456.869V375.803H463.635V374.043H456.869V367.269H455.11Z" fill="#111C5C"/>
<path d="M479.907 367.269V374.043H473.141V375.803H479.907V382.577H481.665V375.803H488.431V374.043H481.665V367.269H479.907Z" fill="#111C5C"/>
<path d="M467.508 343.786V350.56H460.743V352.32H467.508V359.094H469.267V352.32H476.032V350.56H469.267V343.786H467.508Z" fill="#111C5C"/>
<path d="M456.868 520.554V513.781H463.635V512.02H456.868V505.247H455.11V512.02H448.345V513.781H455.11V520.554H456.868Z" fill="#111C5C"/>
<path d="M518.86 543.065V536.291H525.625V534.531H518.86V527.757H517.1V534.531H510.335V536.291H517.1V543.065H518.86Z" fill="#111C5C"/>
<path d="M506.461 520.554V513.781H513.227V512.02H506.461V505.247H504.702V512.02H497.936V513.781H504.702V520.554H506.461Z" fill="#111C5C"/>
<path d="M531.258 520.554V513.781H538.024V512.02H531.258V505.247H529.499V512.02H522.733V513.781H529.499V520.554H531.258Z" fill="#111C5C"/>
<path d="M500.829 534.531H494.063V527.757H492.305V534.531H485.538V536.291H492.305V543.065H494.063V536.291H500.829V534.531Z" fill="#111C5C"/>
<path d="M481.665 520.554V513.781H488.431V512.02H481.665V505.247H479.907V512.02H473.141V513.781H479.907V520.554H481.665Z" fill="#111C5C"/>
<path d="M469.267 543.065V536.291H476.032V534.531H469.267V527.757H467.508V534.531H460.743V536.291H467.508V543.065H469.267Z" fill="#111C5C"/>
<path d="M488.431 558.014H481.665V551.24H479.907V558.014H473.141V559.774H479.907V561.651C480.471 561.401 481.052 561.157 481.665 560.926V559.774H485.73C486.555 559.612 487.45 559.476 488.431 559.372V558.014Z" fill="#111C5C"/>
<path d="M543.655 543.065V541.371L542.354 527.757H541.897V534.531H535.131V536.291H541.897V543.065H543.655Z" fill="#111C5C"/>
<path d="M506.461 561.898V559.773H513.227V558.013H506.461V551.239H504.702V558.013H497.936V559.462C498.589 559.549 499.21 559.654 499.803 559.773H504.702V561.209C505.296 561.43 505.88 561.662 506.461 561.898Z" fill="#111C5C"/>
<path d="M579.092 277.344V282.057H572.326V283.816H579.092V290.59H580.85V283.816H587.616V282.057H580.85V278.045L579.092 277.344Z" fill="#111C5C"/>
<path d="M283.295 467.788H290.061V466.028H283.61C282.895 466.882 282.203 467.708 281.537 468.503V474.562H283.295V467.788Z" fill="#111C5C"/>
<path d="M554.295 321.276V328.05H547.53V329.81H554.295V336.584H556.053V329.81H562.819V328.05H556.053V321.276H554.295Z" fill="#111C5C"/>
<path d="M370.082 536.291H376.847V534.531H370.082V529.605L368.324 538.993V543.065H370.082V536.291Z" fill="#111C5C"/>
<path d="M504.703 329.81V336.584H506.461V329.81H513.227V328.05H506.461V326.834C505.893 327.027 505.306 327.229 504.703 327.434V328.05H502.902C501.343 328.581 499.684 329.145 497.936 329.739V329.81H504.703Z" fill="#111C5C"/>
<path d="M529.499 321.276V328.05H522.733V329.81H529.499V336.584H531.258V329.81H538.024V328.05H531.258V321.276H529.499Z" fill="#111C5C"/>
<path d="M382.48 520.554V513.781H389.246V512.02H382.48V505.247H380.721V512.02H373.956V513.781H380.721V520.554H382.48Z" fill="#111C5C"/>
<path d="M517.1 343.786V350.56H510.335V352.32H517.1V359.094H518.86V352.32H525.625V350.56H518.86V343.786H517.1Z" fill="#111C5C"/>
<path d="M407.276 520.554V513.781H414.042V512.02H407.276V505.247H405.518V512.02H398.753V513.781H405.518V520.554H407.276Z" fill="#111C5C"/>
<path d="M444.471 543.065V536.291H451.236V534.531H444.471V527.757H442.712V534.531H435.946V536.291H442.712V543.065H444.471Z" fill="#111C5C"/>
<path d="M432.072 520.554V513.781H438.838V512.02H432.072V505.247H430.314V512.02H423.549V513.781H430.314V520.554H432.072Z" fill="#111C5C"/>
<path d="M518.86 451.079V444.306H525.625V442.546H518.86V435.772H517.1V442.546H510.335V444.306H517.1V451.079H518.86Z" fill="#111C5C"/>
<path d="M394.878 543.065V536.291H401.643V534.531H394.878V527.757H393.12V534.531H386.354V536.291H393.12V543.065H394.878Z" fill="#111C5C"/>
<path d="M419.674 543.065V536.291H426.439V534.531H419.674V527.757H417.916V534.531H411.15V536.291H417.916V543.065H419.674Z" fill="#111C5C"/>
<path d="M541.897 297.794V304.567H535.131V306.327H541.897V313.1H543.655V306.327H550.422V304.567H543.655V297.794H541.897Z" fill="#111C5C"/>
<path d="M382.48 467.788H389.246V466.028H382.48V463.409L380.721 472.796V474.562H382.48V467.788Z" fill="#111C5C"/>
<path d="M343.528 405.087H345.286V398.313H352.051V396.553H345.286V390.827C344.697 391.465 344.11 392.114 343.528 392.774V396.553H340.338C339.869 397.133 339.401 397.715 338.937 398.313H343.528V405.087Z" fill="#111C5C"/>
<path d="M364.45 375.803V374.875C363.96 375.18 363.47 375.486 362.985 375.803H364.45Z" fill="#111C5C"/>
<path d="M442.712 347.962V350.56H435.946V352.32H442.712V359.094H444.471V352.32H451.236V350.56H444.471V347.403C443.883 347.59 443.297 347.776 442.712 347.962Z" fill="#111C5C"/>
<path d="M481.665 336.584V335.226C481.083 335.419 480.495 335.616 479.907 335.813V336.584H481.665Z" fill="#111C5C"/>
<path d="M559.928 352.32H563.685L564.357 350.56H559.928V352.32Z" fill="#111C5C"/>
<path d="M417.916 359.094H419.674V355.016C419.08 355.189 418.495 355.358 417.916 355.525V359.094Z" fill="#111C5C"/>
<path d="M467.508 389.78V396.553H460.743V398.313H467.508V405.087H469.267V398.313H476.032V396.553H469.267V389.78H467.508Z" fill="#111C5C"/>
<path d="M359.401 466.028H357.683V459.254H355.925V466.028H349.16V467.788H355.925V469.264C357.088 468.183 358.249 467.103 359.401 466.028Z" fill="#111C5C"/>
<path d="M492.305 389.78V396.553H485.539V398.313H492.305V405.087H494.063V398.313H500.829V396.553H494.063V389.78H492.305Z" fill="#111C5C"/>
<path d="M541.897 389.78V396.553H535.131V398.313H541.897V405.087H543.55L543.655 404.809V398.313H546.134L546.806 396.553H543.655V389.78H541.897Z" fill="#111C5C"/>
<path d="M554.295 374.043H547.53V375.803H554.295V376.928L556.053 372.32V367.269H554.295V374.043Z" fill="#111C5C"/>
<path d="M538.604 488.538H535.131V490.298H538.772L538.604 488.538Z" fill="#111C5C"/>
<path d="M407.276 563.05V559.774H414.042V558.013H407.276V551.24H405.518V558.013H398.753V559.774H405.518V563.5C406.105 563.351 406.69 563.2 407.276 563.05Z" fill="#111C5C"/>
<path d="M430.314 560.242C430.918 560.281 431.506 560.33 432.072 560.387V559.773H438.839V558.013H432.072V551.239H430.314V558.013H423.549V559.773H430.314V560.242Z" fill="#111C5C"/>
<path d="M456.868 565.718V559.773H463.635V558.014H456.868V551.241H455.11V558.014H448.345V559.773H455.11V565.542C455.677 565.609 456.266 565.666 456.868 565.718Z" fill="#111C5C"/>
<path d="M506.461 428.569V421.796H513.227V420.036H506.461V413.262H504.702V420.036H497.936V421.796H504.702V428.569H506.461Z" fill="#111C5C"/>
<path d="M572.326 329.678L572.947 328.049H572.326V329.678Z" fill="#111C5C"/>
<path d="M382.48 565.52V559.775H389.246V558.014H382.48V551.241H380.721V558.014H373.956V559.775H380.721V565.247C381.29 565.35 381.882 565.438 382.48 565.52Z" fill="#111C5C"/>
<path d="M287.169 490.298H293.935V497.072H295.693V490.298H302.458V488.538H295.693V481.764H293.935V488.538H287.169V490.298Z" fill="#111C5C"/>
<path d="M566.694 344.438L566.942 343.786H566.694V344.438Z" fill="#111C5C"/>
<path d="M554.295 275.284V282.056H547.53V283.816H554.295V290.59H556.053V283.816H562.819V282.056H556.053V275.284H554.295Z" fill="#111C5C"/>
<path d="M302.459 443.427C302.216 443.719 301.972 444.013 301.729 444.306H302.459V443.427Z" fill="#111C5C"/>
<path d="M575.217 304.567H568.452V297.795H566.694V304.567H559.928V306.327H566.694V313.101H568.452V306.327H575.217V304.567Z" fill="#111C5C"/>
<path d="M529.499 565.728C530.097 565.671 530.697 565.616 531.258 565.539V559.774H538.024V558.014H531.258V551.24H529.499V558.014H522.733V559.774H529.499V565.728Z" fill="#111C5C"/>
<path d="M419.674 451.079V444.306H426.439V442.546H419.674V435.772H417.916V442.546H411.15V444.306H417.916V451.079H419.674Z" fill="#111C5C"/>
<path d="M432.072 428.569V421.796H438.838V420.036H432.072V413.262H430.314V420.036H423.549V421.796H430.314V428.569H432.072Z" fill="#111C5C"/>
<path d="M407.276 428.569V421.796H414.042V420.036H407.276V413.262H405.518V420.036H398.753V421.796H405.518V428.569H407.276Z" fill="#111C5C"/>
<path d="M318.731 435.772V442.546H311.965V444.306H318.731V451.079H320.49V444.306H327.255V442.546H320.49V435.772H318.731Z" fill="#111C5C"/>
<path d="M394.878 451.079V444.306H401.643V442.546H394.878V435.772H393.12V442.546H386.387L386.354 442.725V444.306H393.12V451.079H394.878Z" fill="#111C5C"/>
<path d="M320.49 497.072V490.298H327.255V488.538H320.49V481.764H318.731V488.538H311.965V490.298H318.731V497.072H320.49Z" fill="#111C5C"/>
<path d="M481.665 428.569V421.796H488.431V420.036H481.665V413.262H479.907V420.036H473.141V421.796H479.907V428.569H481.665Z" fill="#111C5C"/>
<path d="M444.471 451.079V444.306H451.236V442.546H444.471V435.772H442.712V442.546H435.946V444.306H442.712V451.079H444.471Z" fill="#111C5C"/>
<path d="M494.063 451.079V444.306H500.829V442.546H494.063V435.772H492.305V442.546H485.538V444.306H492.305V451.079H494.063Z" fill="#111C5C"/>
<path d="M469.267 451.079V444.306H476.032V442.546H469.267V435.772H467.508V442.546H460.743V444.306H467.508V451.079H469.267Z" fill="#111C5C"/>
<path d="M456.868 428.569V421.796H463.635V420.036H456.868V413.262H455.11V420.036H448.345V421.796H455.11V428.569H456.868Z" fill="#111C5C"/>
<path d="M332.887 474.562V467.788H339.654V466.028H332.887V459.254H331.129V466.028H324.364V467.788H331.129V474.562H332.887Z" fill="#111C5C"/>
<path d="M345.286 451.079V444.306H352.051V442.546H345.286V435.772H343.527V442.546H336.761V444.306H343.527V451.079H345.286Z" fill="#111C5C"/>
<path d="M405.518 367.269V374.043H398.753V375.803H405.518V382.577H407.276V375.803H414.042V374.043H407.276V367.269H405.518Z" fill="#111C5C"/>
<path d="M357.684 428.569V421.796H364.45V420.036H357.684V413.262H355.925V420.036H349.16V421.796H355.925V428.569H357.684Z" fill="#111C5C"/>
<path d="M368.324 451.079H370.082V444.306H376.847V442.546H370.082V435.772H368.324V442.546H361.558V444.306H368.324V451.079Z" fill="#111C5C"/>
<path d="M331.129 413.262V420.036H324.364V421.796H331.129V428.569H332.888V421.796H339.654V420.036H332.888V413.262H331.129Z" fill="#111C5C"/>
<path d="M389.246 420.036H382.48V413.262H380.721V420.036H373.956V421.796H380.721V428.569H382.48V421.796H389.246V420.036Z" fill="#111C5C"/>
<path d="M368.324 389.78V396.553H361.558V398.313H368.324V405.087H370.082V398.313H376.847V396.553H370.082V389.78H368.324Z" fill="#111C5C"/>
<path d="M417.916 389.78V396.553H411.15V398.313H417.916V405.087H419.675V398.313H426.439V396.553H419.675V389.78H417.916Z" fill="#111C5C"/>
<path d="M357.684 382.577V379.54C357.094 379.988 356.507 380.444 355.925 380.908V382.577H357.684Z" fill="#111C5C"/>
<path d="M380.722 367.269V374.043H373.957V375.803H380.722V382.577H382.48V375.803H389.246V374.043H382.48V367.269H380.722Z" fill="#111C5C"/>
<path d="M393.12 389.78V396.553H386.354V398.313H393.12V405.087H394.878V398.313H401.643V396.553H394.878V389.78H393.12Z" fill="#111C5C"/>
<path d="M312.195 446.281L318.175 465.093" stroke="#6273CC" stroke-width="1.26267" stroke-miterlimit="10"/>
<path d="M308.351 446.28L306.215 470.865" stroke="#6273CC" stroke-width="1.26267" stroke-miterlimit="10"/>
<path d="M375.405 430.674C372.552 446.176 354.749 450.4 359.054 466.351C373.544 452.841 386.83 440.187 386.83 440.187L388.936 425.627C389.858 419.259 381.17 416.472 378.237 422.197C377.016 424.581 376.01 427.388 375.405 430.674Z" fill="#111C5C"/>
<path d="M540.552 383.244C535.16 382.355 530.342 386.718 530.687 392.178L533.214 432.171L551.213 385.005L540.552 383.244Z" fill="#111C5C"/>
<path d="M521.043 326.562C521.043 326.562 538.554 345.589 532.36 377.015" stroke="#6273CC" stroke-width="1.26267" stroke-miterlimit="10"/>
<path d="M296.642 429.101L304.641 436.612C307.368 439.173 307.667 443.403 305.328 446.323L277.086 481.576C274.124 485.272 268.458 485.124 265.693 481.28L257.309 469.623C255.324 466.861 255.551 463.083 257.854 460.581L286.48 429.472C289.176 426.543 293.74 426.375 296.642 429.101Z" fill="#6273CC"/>
<path d="M297.941 432.491L264.777 473.343" stroke="#111C5C" stroke-width="1.26267" stroke-miterlimit="10"/>
<path d="M557.096 264.92L592.333 278.638C593.316 279.021 593.84 280.096 593.534 281.107L589.169 295.564C588.822 296.708 587.566 297.304 586.462 296.846L547.098 280.507C545.896 280.008 545.472 278.518 546.232 277.459L554.723 265.624C555.262 264.875 556.237 264.585 557.096 264.92Z" fill="#6273CC"/>
<path d="M553.822 271.727L588.454 287.414" stroke="#111C5C" stroke-width="1.26267" stroke-miterlimit="10"/>
<path d="M613.336 169.781L610.113 176.102" stroke="#C73A32" stroke-width="1.26267" stroke-miterlimit="10"/>
<path d="M617.386 171.968L614.162 178.289" stroke="#C73A32" stroke-width="1.26267" stroke-miterlimit="10"/>
<path d="M621.436 174.604L618.213 180.926" stroke="#C73A32" stroke-width="1.26267" stroke-miterlimit="10"/>
<path d="M470.499 312.566C469.193 316.61 465.908 319.169 463.158 318.279C460.408 317.39 459.238 313.391 460.543 309.345C461.849 305.301 465.134 302.744 467.884 303.632C470.633 304.522 471.804 308.522 470.499 312.566Z" fill="#FF8D7E"/>
<path d="M435.271 331.748L456.609 327.451C458.963 326.976 460.901 325.333 461.758 323.089C463.807 317.722 467.277 307.361 467.277 298.699C467.277 286.407 455.2 279.354 440.303 282.781C427.674 285.685 418.035 298.338 425.803 314.617C430.724 324.932 435.271 331.748 435.271 331.748Z" fill="#111C5C"/>
<path d="M691.782 599.661H536.087L558.84 526.128H669.03L691.782 599.661Z" fill="#E0840B"/>
<path d="M772.972 391.765L782.724 382.626L789.949 365.4L802.958 355.586C803.483 355.19 804.222 355.256 804.669 355.74L804.878 355.968C805.379 356.512 805.318 357.367 804.742 357.832L798.07 363.226L804.866 360.253C806.542 359.52 808.499 359.928 809.743 361.272L813.752 365.601C814.659 366.58 814.571 368.116 813.558 368.984L807.15 374.475C806.326 375.179 805.726 376.113 805.449 377.161C804.408 381.093 800.859 391.249 791.871 391.765L782.724 409.563L772.972 391.765Z" fill="#FF8D7E"/>
<path d="M810.222 361.809L799.076 368.948" stroke="#C73A32" stroke-width="1.26267" stroke-miterlimit="10"/>
<path d="M801.605 372.056L812.751 364.916" stroke="#C73A32" stroke-width="1.26267" stroke-miterlimit="10"/>
<path d="M454.896 391.765L445.146 382.626L437.92 365.4L424.91 355.586C424.386 355.19 423.646 355.256 423.201 355.74L422.992 355.968C422.489 356.512 422.552 357.367 423.128 357.832L429.799 363.226L423.004 360.253C421.328 359.52 419.37 359.928 418.126 361.272L414.116 365.601C413.21 366.58 413.299 368.116 414.311 368.984L420.72 374.475C421.543 375.179 422.143 376.113 422.421 377.161C423.461 381.093 427.01 391.249 435.998 391.765L445.146 409.563L454.896 391.765Z" fill="#FF8D7E"/>
<path d="M428.793 368.948L417.648 361.808" stroke="#C73A32" stroke-width="1.26267" stroke-miterlimit="10"/>
<path d="M426.264 372.056L415.119 364.916" stroke="#C73A32" stroke-width="1.26267" stroke-miterlimit="10"/>
<path d="M774.541 385.573L729.89 424.046C729.89 424.046 691.559 392.488 682.322 384.07C673.087 375.65 661.769 366.327 647.034 365.684C632.3 365.043 613.935 365.684 613.935 365.684C613.935 365.684 595.57 365.043 580.835 365.684C566.101 366.327 554.782 375.65 545.548 384.07C536.311 392.488 497.98 424.046 497.98 424.046L453.328 385.573L429.911 407.65C429.911 407.65 432.207 411.862 440.109 416.958C448.01 422.057 447.583 426.612 450.359 431.101C453.135 435.591 459.97 438.157 464.667 441.578C469.365 444.997 470.86 453.335 478.974 460.39L479.218 460.602C492.035 471.762 510.911 472.391 524.44 462.11L559.054 435.805L569.276 470.889C570.487 475.045 570.377 479.476 568.961 483.567L549.23 540.559H613.935H678.64L658.91 483.567C657.493 479.476 657.382 475.045 658.594 470.889L668.816 435.805L703.429 462.11C716.958 472.391 735.835 471.762 748.65 460.602L748.896 460.39C757.01 453.335 758.505 444.997 763.203 441.578C767.902 438.157 774.734 435.591 777.511 431.101C780.287 426.612 779.86 422.057 787.76 416.958C795.663 411.862 797.957 407.65 797.957 407.65L774.541 385.573Z" fill="#FFE2DF"/>
<path d="M561.462 390.163C561.462 390.163 574.158 472.567 658.184 480.861C657.519 477.565 657.646 474.144 658.594 470.89L668.816 435.804L600.481 422.139L561.462 390.163Z" fill="#FF7DA8"/>
<path d="M600.38 452.979L606.786 488.104L598.885 517.042" stroke="#FF7DA8" stroke-width="1.26267" stroke-miterlimit="10"/>
<path d="M627.49 452.979L621.083 488.104L628.984 517.042" stroke="#FF7DA8" stroke-width="1.26267" stroke-miterlimit="10"/>
<path d="M650.237 359.698C644.257 353.285 647.461 346.658 643.19 338.749C638.92 330.837 636.388 333.966 634.373 324.263C631.872 312.239 624.185 309.23 613.934 309.23C603.684 309.23 595.997 312.239 593.496 324.263C591.481 333.966 588.95 330.837 584.678 338.749C580.408 346.658 583.612 353.285 577.632 359.698C571.652 366.112 573.254 375.09 573.254 375.09H613.934H654.616C654.616 375.09 656.217 366.112 650.237 359.698Z" fill="#FFC29E"/>
<path d="M596.878 336.61L589.535 375.091" stroke="#694814" stroke-width="1.26267" stroke-miterlimit="10"/>
<path d="M608.249 336.61L605.802 375.091" stroke="#694814" stroke-width="1.26267" stroke-miterlimit="10"/>
<path d="M619.621 336.61L622.068 375.091" stroke="#694814" stroke-width="1.26267" stroke-miterlimit="10"/>
<path d="M630.992 336.61L638.334 375.091" stroke="#694814" stroke-width="1.26267" stroke-miterlimit="10"/>
<path d="M640.254 495.022C622.795 492.535 605.074 492.535 587.614 495.022L585.931 483.17C604.506 480.522 623.363 480.522 641.939 483.17C641.378 487.122 640.816 491.072 640.254 495.022Z" fill="#C73A32"/>
<path d="M642.336 394.545L625.033 418.222L573.126 373.994C573.126 373.994 575.296 368.375 576.37 367.184C577.445 365.994 577.836 362.431 573.126 365.4C573.126 365.4 567.054 360.496 563.931 360.179C560.807 359.862 559.652 362.891 559.652 362.891C559.652 362.891 555.69 363.916 555.222 366.873C552.735 367.184 551.647 369.987 552.268 372.01C549.314 374.968 550.558 379.219 557.244 382.386C557.244 382.386 577.77 421.201 591.764 438.635C605.76 456.07 621.436 464.539 637.479 459.107C655.576 452.979 686.771 416.959 686.771 416.959L642.336 394.545Z" fill="#A26959"/>
<path d="M625.034 418.221L634.664 426.056" stroke="#875547" stroke-width="1.26267" stroke-miterlimit="10"/>
<path d="M686.771 416.959L642.337 394.545L641.448 395.76L663.795 421.336C668.756 427.017 677.555 427.119 682.648 421.557C685.236 418.732 686.771 416.959 686.771 416.959Z" fill="#875547"/>
<path d="M689.21 339.336C689.21 339.336 706.618 352.73 714.55 377.5C715.172 379.442 715.354 381.506 715.001 383.513C714.425 386.798 712.947 391.689 709.176 394.117C703.197 397.965 702.768 398.608 700.848 404.165C698.926 409.723 697.858 412.074 693.587 414.213C689.317 416.351 686.754 424.474 686.754 424.474L642.336 394.544C642.336 394.544 667.602 358.417 671.593 352.857C677.037 345.268 682.243 341.235 689.21 339.336Z" fill="#FFC29E"/>
<path d="M715.18 381.183C716.115 366.753 704.785 344.893 690.832 341.474" stroke="#694814" stroke-width="1.26267" stroke-miterlimit="10"/>
<path d="M218.423 271.101C207.712 273.017 206.422 274.569 204.828 287.452C203.236 274.569 201.946 273.017 191.235 271.101C201.946 269.186 203.236 267.633 204.828 254.751C206.422 267.633 207.712 269.186 218.423 271.101Z" fill="#E0840B"/>
<path d="M804.42 288.608C793.709 290.524 792.419 292.076 790.825 304.957C789.233 292.076 787.942 290.524 777.232 288.608C787.942 286.693 789.233 285.141 790.825 272.258C792.419 285.141 793.709 286.693 804.42 288.608Z" fill="#E0840B"/>
<path d="M346.732 348.25C340.46 349.372 339.705 350.281 338.772 357.824C337.84 350.281 337.084 349.372 330.812 348.25C337.084 347.128 337.84 346.218 338.772 338.677C339.705 346.218 340.46 347.128 346.732 348.25Z" fill="#E0840B"/>
<path d="M676.776 326.426C670.504 327.547 669.748 328.457 668.816 335.999C667.883 328.457 667.128 327.547 660.856 326.426C667.128 325.304 667.883 324.395 668.816 316.852C669.748 324.395 670.504 325.304 676.776 326.426Z" fill="#E0840B"/>
<path d="M834.011 540.558C827.739 541.68 826.983 542.589 826.051 550.131C825.117 542.589 824.363 541.68 818.091 540.558C824.363 539.436 825.117 538.527 826.051 530.985C826.983 538.527 827.739 539.436 834.011 540.558Z" fill="#E0840B"/>
<path d="M84.4011 512.44C78.1292 513.563 77.3739 514.472 76.4406 522.015C75.5086 514.472 74.7533 513.563 68.4814 512.44C74.7533 511.32 75.5086 510.409 76.4406 502.867C77.3739 510.409 78.1292 511.32 84.4011 512.44Z" fill="#E0840B"/>
</svg>
