<svg width="24" height="24" viewBox="0 0 24 24" fill="none" xmlns="http://www.w3.org/2000/svg">
<path d="M15.8883 11.4037L10.2633 7.88812C10.0465 7.75265 9.77334 7.74548 9.5498 7.86937C9.3262 7.99326 9.1875 8.22876 9.1875 8.48437V15.5156C9.1875 15.7712 9.3262 16.0067 9.5498 16.1306C9.65602 16.1895 9.77339 16.2188 9.89062 16.2188C10.0201 16.2188 10.1495 16.183 10.2633 16.1119L15.8883 12.5962C16.0939 12.4678 16.2188 12.2424 16.2188 12C16.2188 11.7576 16.0939 11.5322 15.8883 11.4037ZM10.5938 14.247V9.75295L14.189 12L10.5938 14.247Z" fill="#066EE7"/>
<path d="M20.4844 2.85938H3.51562C1.57711 2.85938 0 4.43648 0 6.375V17.625C0 19.5635 1.57711 21.1406 3.51562 21.1406H20.4844C22.4229 21.1406 24 19.5635 24 17.625V6.375C24 4.43648 22.4229 2.85938 20.4844 2.85938ZM22.5938 17.625C22.5938 18.7881 21.6475 19.7344 20.4844 19.7344H3.51562C2.35252 19.7344 1.40625 18.7881 1.40625 17.625V6.375C1.40625 5.21189 2.35252 4.26562 3.51562 4.26562H20.4844C21.6475 4.26562 22.5938 5.21189 22.5938 6.375V17.625Z" fill="#066EE7"/>
</svg>
