<svg width="14" height="14" viewBox="0 0 14 14" fill="none" xmlns="http://www.w3.org/2000/svg">
<path d="M5.77847 6.99977L0.586735 1.80778C0.248865 1.47006 0.248865 0.924014 0.586735 0.586296C0.924445 0.248578 1.47048 0.248578 1.80819 0.586296L7.00008 5.77829L12.1918 0.586296C12.5297 0.248578 13.0756 0.248578 13.4133 0.586296C13.7511 0.924014 13.7511 1.47006 13.4133 1.80778L8.22153 6.99977L13.4133 12.1918C13.7511 12.5295 13.7511 13.0755 13.4133 13.4132C13.245 13.5817 13.0237 13.6663 12.8025 13.6663C12.5814 13.6663 12.3603 13.5817 12.1918 13.4132L7.00008 8.22125L1.80819 13.4132C1.63973 13.5817 1.4186 13.6663 1.19746 13.6663C0.976328 13.6663 0.755195 13.5817 0.586735 13.4132C0.248865 13.0755 0.248865 12.5295 0.586735 12.1918L5.77847 6.99977Z" fill="black"/>
</svg>
