<?xml version="1.0" encoding="UTF-8"?>
<svg version="1.1" viewBox="0 0 1440 574" xmlns="http://www.w3.org/2000/svg">
<title>hero</title>
<desc>Created with Sketch.</desc>
<g fill="none" fill-rule="evenodd">
<g transform="translate(0 5)">
<g transform="translate(654 137)">
<path id="Shape" d="m160.66 322.53 34.396 109.13h-176.62s22.208-77.489 38.865-109.13h103.36z" fill="#185E3D" fill-rule="nonzero"/>
<path id="Shape" d="m65.407 322.53-21.501 109.13" stroke="#092E1C" stroke-width="1.06"/>
<path id="Shape" d="M86.286,338.53 L75.142,431" stroke="#092E1C" stroke-width="1.06"/>
<path id="Shape" d="m107 323v108" stroke="#092E1C" stroke-width="1.06"/>
<path id="Shape" d="m129 323 10 108" stroke="#092E1C" stroke-width="1.06"/>
<path id="Shape" d="m150 323 20 108" stroke="#092E1C" stroke-width="1.06"/>
<path id="Shape" d="m109.77 355.55c17.399 13.775 47.226 20.782 65.003 11.746l-14.11-44.767h-103.36c-2.689 5.109-5.523 11.418-8.386 18.397 7.066 4.223 21.206 10.597 39.837 8.543 7.527-0.83 15.073 1.379 21.012 6.081z" fill="#092E1C" fill-rule="nonzero"/>
<path id="Shape" d="m118.24 134.82 2.849 13.273s7.463 5.458 5.253 13.568c-2.21 8.111-11.049 9.497-11.049 9.497l-17.676-29.702 20.623-6.636z" fill="#FF8D7E" fill-rule="nonzero"/>
<path id="Shape" d="m55.381 189.39c21.862-2.178 79.976-7.965 79.976-7.965l64.533-68.294 31.242-81.451s-3.576-12.506 3.043-12.827c1.602-9.62 6.781-7.803 8.702-4.596 4.271-1.711 6.834 0.748 7.26 3.526 2.67-1.495 5.553 0.749 4.806 4.383 3.951 0 3.844 8.231-4.485 15.713l-18.316 76.678c-4.031 16.871-11.917 32.576-23.038 45.88l-43.02 51.467-24.001 82.908h-78.157s-10.89 7.195-20.821 14.25c-9.929 7.055-23.382 10.261-34.914 3.527-14.478-8.455-6.0855-35.915 2.8828-59.005 8.9694-23.086 23.688-62.142 44.308-64.194z" fill="#FF8D7E" fill-rule="nonzero"/>
<path id="Shape" d="m53.707 240.13s-10.427 26.586-13.541 35.546c-3.1137 8.963 6.9566 12.907 14.595 5.65 6.108-5.803 21.849 0 21.849 0l-22.903-41.196z" fill="#C73A32" fill-rule="nonzero"/>
<path id="Shape" d="m32.215 296.66 23.383-62.637" stroke="#C73A32"/>
<path id="Shape" d="m73.93 218.31h46.708c5.381 0 10.396 2.635 13.513 7.026 4.698 6.618 13.197 15.088 24.575 11.983 0 0 12.405 13.764-4.612 31.337l12.935 60.286h-116.9l14.415-27.898-13.794-56.803c-1.216-5.01 0.768-10.291 5.057-13.145 3.164-2.107 6.904-5.096 10.251-9.083 1.953-2.326 4.813-3.703 7.849-3.703z" fill="#FFE2DF" fill-rule="nonzero"/>
<path id="Shape" d="m92.943 320.33c-2.051-0.727-3.809-2.024-4.998-3.845-2.723-4.172-7.972-5.647-14.098-4.728-2.563 0.384-5.182-0.298-7.3-1.794-1.677-1.187-3.728-1.705-5.603-1.905l-10.792 20.885h49.772c-1.391-3.187-3.788-7.483-6.981-8.613z" fill="#FF7DA8" fill-rule="nonzero"/>
<path id="Shape" d="m96.742 280.2c4.768-5.458 15.585-2.303 19.623-1.609 4.039 0.695 7.116-3.379 12.117 0.681 4.999 4.058 1.923 12.721 0.961 16.38-0.961 3.658 4.109 11.058-2.884 13.863-8.421 3.376-12.193-4.344-19.885-6.655-7.693-2.31-20.551-10.504-9.932-22.66z" fill="#FF7DA8" fill-rule="nonzero"/>
<path id="Shape" d="m154.12 268.66-4.247-19.701" stroke="#FF7DA8" stroke-width="1.2627"/>
<polygon id="Shape" points="129.06 182.06 131.26 226.96 122.02 226.96 116.56 183.27" fill="#FFF0F5" fill-rule="nonzero"/>
<path id="Shape" d="m155.35 274.41c-2.064 1.832-4.391 4.926-4.509 9.645-0.213 8.55-0.641 15-3.63 21.289-2.79 5.868 1.68 15.923 16.501 8.044l-8.362-38.978z" fill="#FF7DA8" fill-rule="nonzero"/>
<path id="Shape" d="m128.92 255.67c4.831 0.418 8.174-5.554 9.08-12.473 0.245-1.861 1.065-3.632 2.477-4.867 1.349-1.178 2.258-2.45 2.684-3.855-3.773-2.532-6.807-6.037-9.007-9.137-3.117-4.391-8.132-7.025-13.513-7.025h-3.713c2.112 10.938 7.592 36.978 11.992 37.357z" fill="#FF7DA8" fill-rule="nonzero"/>
<polygon id="Shape" points="59.83 188.95 65.421 225.48 72.414 223.34 73.6 187.58" fill="#FFF0F5" fill-rule="nonzero"/>
<path id="Shape" d="m56.064 274.75h78.871l-17.865-115.33c-2.341 0.915-5.148-0.445-6.355-3.141-1.24-2.768-0.32-5.877 2.055-6.944 0.864-0.387 1.799-0.444 2.701-0.236l-0.576-3.713c12.774-14.111 3.4-26.532-11.482-26.291-23.814 0.384-34.766 11.011-35.903 30.314-0.689 11.686 2.681 23.976 1.58 36.982-1.101 13.008-10.13 23.37-10.35 35.495-0.22 12.126 8.55 18.963 3.523 27.549-9.918 16.94-6.199 25.315-6.199 25.315z" fill="#111C5C" fill-rule="nonzero"/>
<path id="Shape" d="m109.73 158.43 11.712 116.32" stroke="#6273CC"/>
<path id="Shape" d="m98.75 158.43 6.224 116.32" stroke="#6273CC"/>
<path id="Shape" d="m87.775 158.43 0.736 116.32" stroke="#6273CC"/>
<path id="Shape" d="m76.799 158.43-4.753 116.32" stroke="#6273CC"/>
<path id="Shape" d="m294.96 352.61 18.513 79.052h-68.548l-7.995-28.638-11.224-0.322 3.052 28.96h-54.623s-12.513-39.862 5.124-84.757l115.7 5.705z" fill="#24348C" fill-rule="nonzero"/>
<path id="Shape" d="m228.75 431.66-3.053-28.96-12.332-1.122s-3.576 5.183 0.575 10.639c1.788 2.351 2.866 5.17 3.232 8.101 0.701 5.633 1.319 11.342 1.319 11.342h10.259z" fill="#111C5C" fill-rule="nonzero"/>
<path id="Shape" d="m210.54 401.58 26.385 1.443" stroke="#6273CC" stroke-width="1.388"/>
<path id="Shape" d="m301.9 382.27-6.945-29.661-115.7-5.704c-1.106 2.817-2.094 5.614-2.974 8.383l58.016 6.249c3.253 0.35 6.417 1.242 9.376 2.64 10.478 4.95 37.939 17.037 58.229 18.093z" fill="#111C5C" fill-rule="nonzero"/>
<path id="Shape" d="m178.64 366.14h37.798s-2.804 25.814-20.221 25.814-17.577-25.814-17.577-25.814z" stroke="#6273CC" stroke-width="1.388"/>
<path id="Shape" d="m247.06 366.14h37.798s-2.804 25.814-20.221 25.814-17.577-25.814-17.577-25.814z" stroke="#6273CC" stroke-width="1.388"/>
<path id="Shape" d="m189.63 195.69-71-26.643-46.444-60.768c-1.36-1.779-2.011-3.996-1.824-6.228 0.189-2.259 0.379-5.316 0.34-8.134-0.073-5.303 9e-3 -8.07-2.219-7.279-2.278 0.811-1.119 5.865-2.628 8.478 0 0-4.828-9.924-3.099-17.753 0.279-1.267-0.984-2.342-2.208-1.918-1.128 0.39-2.373 1.476-3.239 4.098-3.386-1.753-4.958 2.869-4.694 4.876-4.453-1.793-3.835 7.013-3 8.776 0 0-1.968 0.622-1.204 6.33 0.634 4.745 3.789 10.671 7.817 13.94 0 0 20.628 50.904 29.742 69.371 9.113 18.467 101.55 62.835 101.55 62.835l2.11-49.981z" fill="#D08A77" fill-rule="nonzero"/>
<path id="Shape" d="m57.306 79.54s0.525 8.704 3.369 15.975" stroke="#C73A32" stroke-width="1.0867"/>
<path id="Shape" d="m52.612 84.416c-0.042 3.432 2.111 10.347 3.424 13.152" stroke="#C73A32" stroke-width="1.0867"/>
<path id="Shape" d="m49.611 93.192c0.886 2.628 2.949 6.973 2.949 6.973" stroke="#C73A32" stroke-width="1.0867"/>
<path id="Shape" d="m149.28 194.19c2.42 8.165 5.555 16.595 6.673 27.225 0.583 5.553 4.023 10.4 8.981 12.954 13.141 6.767 22.579 11.298 22.579 11.298l2.111-49.982-37.997-14.259c-2.627 3.465-3.731 8.094-2.347 12.764z" fill="#C73A32" fill-rule="nonzero"/>
<path id="Shape" d="m232.69 143.27s6.611 7.629 7.231 15.969c0.62 8.338 4.159 9.72 3.19 16.144-0.709 4.702-5.03 6.742-5.03 6.742l-2.311 23.331-28.445-2.307 6.898-26.879 18.467-33z" fill="#D08A77" fill-rule="nonzero"/>
<path id="Shape" d="m187.42 192.38 16.816 6.049s13.824-6.575 38.117 1.924h30.293l22.304 152.25h-119.49s5.602-19.6 10.528-29.62c-7.703-24.398-23.551-81.425-23.551-81.425s-4.583-22.033 7.808-42.982c3.5-5.917 10.707-8.522 17.171-6.197z" fill="#FFC29E" fill-rule="nonzero"/>
<path id="Shape" d="m222.88 196.16c-0.791-0.057-1.554-0.092-2.298-0.116l14.055 156.57h2.288l-14.045-156.45z" fill="#24348C" fill-rule="nonzero"/>
<polygon id="Shape" points="244.81 200.36 242.52 200.36 256.19 352.61 258.48 352.61" fill="#24348C" fill-rule="nonzero"/>
<path id="Shape" d="m179.39 191.92c-0.76 0.176-1.504 0.412-2.224 0.707l14.362 159.99h2.288l-14.426-160.69z" fill="#24348C" fill-rule="nonzero"/>
<polygon id="Shape" points="199.07 196.57 213.08 352.61 215.37 352.61 201.44 197.42" fill="#24348C" fill-rule="nonzero"/>
<polygon id="Shape" points="266.37 200.36 264.08 200.36 277.75 352.61 280.03 352.61" fill="#24348C" fill-rule="nonzero"/>
<path id="Shape" d="m303.53 240.52s-18.949-40.164-30.882-40.164c-9.526 0-18.901 15.517-12.924 32.551 2.369 6.752 17.92 38.392 28.674 60.032 5.887 11.842 19.766 17.306 32.134 12.658 10.583-3.978 17.342-14.392 16.672-25.688l-7.774-131.07s1.627-12.783 0.287-15.354c-1.799-3.461-4.464-2.109-4.464-2.109s-2.592-3.659-6.265-1.281c-1.944-1.947-6.264-1.009-7.129 0.577-2.448-0.72-4.537 0.704-4.896 3.46-0.195 1.493 0 4.759 1.008 6.056-2.233 3.316-0.711 9.835 5.626 10.478l-10.067 89.855z" fill="#D08A77" fill-rule="nonzero"/>
<path id="Shape" d="m307.98 140.21 5.809-2.86" stroke="#C73A32" stroke-width="1.136"/>
<path id="Shape" d="m309.92 133.77 0.973 5.01" stroke="#C73A32" stroke-width="1.136"/>
<path id="Shape" d="m221.49 137.77c17.995 2.13 14.266 18.451 10.146 25.549 0 0-4.83-3.194-5.893 1.596-1.064 4.79 1.683 7.097 5.893 7.63 0 0-2.063 17.59-14.223 17.59-9.57 0-18.922-9.473-20.557-25.713-1.95-19.351 11.229-28.238 24.634-26.652z" fill="#A6302A" fill-rule="nonzero"/>
<path id="Shape" d="m217.99 150.44c0-4.833-1.91-9.176-4.949-12.239-9.913 2.285-17.714 11.025-16.183 26.222 0.06 0.606 0.135 1.199 0.217 1.787 1.659 0.645 3.44 1.014 5.305 1.014 8.621 0 15.61-7.515 15.61-16.784z" fill="#7A231F" fill-rule="nonzero"/>
<path id="Shape" d="m215.85 147.64c0 8.43-6.355 15.264-14.194 15.264s-14.195-6.834-14.195-15.264 6.356-15.264 14.195-15.264 14.194 6.834 14.194 15.264z" fill="#A6302A" fill-rule="nonzero"/>
<path id="Shape" d="m670.29 126.68s-13.852 2.647-13.855-6.815c-1e-3 -8.123 7.689-8.337 7.689-8.337s-1.531-7.779 6.7-10.368c7.473-2.352 11.291 5.557 11.291 5.557s9.103-2.671 9.53 7.803c6.727-1.068 9.543 6.19 7.863 10.2 6.545 0.801 6.658 12.622-0.71 15.028l-7.367 9.192-9.93 2.19s-12.333-17.636-11.211-24.45z" fill="#111C5C" fill-rule="nonzero"/>
<path id="Shape" d="m672.74 165.51-5.445-15.606s-7.688 1.176-8.649-6.307c-0.961-7.481 6.301-12.4 6.301-12.4l3.341-10.154s3.277 0.856 5.84 0c-0.961 4.597 4.485 10.368 8.221 11.972 3.845-2.458 7.048-1.496 7.048 2.244 0 3.741-3.203 7.804-7.902 7.483 2.136 6.84 9.93 6.2 9.93 6.2l14.233 16.568h-32.918z" fill="#A26959" fill-rule="nonzero"/>
<path id="Shape" d="m672.74 165.51h32.918s-7.106-8.273-10.34-12.036c-6.057-1.863-7.523 5.035-24.464 6.632 0.711 2.091 1.886 5.404 1.886 5.404z" fill="#875547" fill-rule="nonzero"/>
<path id="Shape" d="m667.3 149.9s5.125 0.748 11.745-4.703" stroke="#875547" stroke-width="1.2627"/>
<path id="Shape" d="m614.59 317.01-1.323 114.87h62.152l-1.338-46.213 12.619-1.567 10.207 47.78h63.225l-12.974-61.569s5.951-22.59-1.653-53.302h-130.92z" fill="#24348C" fill-rule="nonzero"/>
<path id="Shape" d="m686.7 336.32s29.583 11.948 53.396 6.855c5.296-1.132 8.877-6.155 8.172-11.529-0.604-4.607-1.494-9.508-2.763-14.637h-130.92l-0.124 10.657 72.234 8.654z" fill="#111C5C" fill-rule="nonzero"/>
<path id="Shape" d="m691.69 370.94-25.014 20.934" stroke="#6273CC" stroke-width="1.2827"/>
<path id="Shape" d="m631.32 340.28h35.356s5.125 25.226-17.678 25.226c-22.804 0-17.678-25.226-17.678-25.226z" stroke="#6273CC" stroke-width="1.2827"/>
<path id="Shape" d="m702.52 340.28h35.357s5.124 25.226-17.679 25.226-17.678-25.226-17.678-25.226z" stroke="#6273CC" stroke-width="1.2827"/>
<path id="Shape" d="m620.42 317.01 2.135 114.55" stroke="#6273CC" stroke-width="1.2827"/>
<path id="Shape" d="m775.35 230.27s5.446 32.298 8.008 50.577c2.563 18.277-8.008 30.142-32.672 28.218l-17.862-76.138 42.526-2.657z" fill="#A26959" fill-rule="nonzero"/>
<path id="Shape" d="m775.35 230.27-42.526 2.657 7.022 29.93 38.47-14.631c-1.645-10.127-2.966-17.956-2.966-17.956z" fill="#875547" fill-rule="nonzero"/>
<path id="Shape" d="m749.18 296.45-2.529-22.234c4.504-12.399 5.572-30.357 5.572-30.357h32.848s-2.136-16.248-9.182-23.302c2.563-8.979-3.204-19.241-10.678-26.75-1.068-11.571-8.541-19.64-19.432-22.42 0 0-15.526-3.264-33.745-5.293l-0.583-4.38h-43.563l0.509 3.651c-20.741 1.825-37.186 5.969-37.186 5.969l-19.539 127.04c-2.135 7.269-7.047 27.149 7.046 27.149h101.22c19.217 0 32.457-0.213 34.812-12.341 2.354-12.127-5.573-16.732-5.573-16.732z" fill="#FFC29E" fill-rule="nonzero"/>
<path id="Shape" d="m768.05 243.86c-3.096-15.027-9.444-43.567-14.703-52.593 2.073 8.924-1.127 52.593-1.127 52.593h15.83z" fill="#AD6708" fill-rule="nonzero"/>
<path id="Shape" d="m657 215.51s0.795 7.13-2.247 13.542c-3.043 6.414-3.685 15.968-3.685 15.968l-21.141-18.479 27.073-11.031z" fill="#AD6708" fill-rule="nonzero"/>
<polygon id="Shape" points="488.02 431.66 306.73 431.66 315.7 381.22 479.06 381.22" fill="#185E3D" fill-rule="nonzero"/>
<path id="Shape" d="m479.06 381.22h-159.08l-3.549 13.655s7.773 8.294 23.112 9.361c15.337 1.066 22.77-4.245 38.427-3.158 15.659 1.087 18.452 7.109 35.068 8.263 16.617 1.154 15.466-5.396 30.188-4.694 14.72 0.7 14.916 7.143 30.849 8.894 4.215 0.462 7.755 0.33 10.71-0.1l-5.727-32.221z" fill="#092E1C" fill-rule="nonzero"/>
<path id="Shape" d="m233.7 262.03-42.068-59.217s3.095-12.506-3.844-14.002c0 0-0.267-6.362-7.048-5.453-4.203 0.564-9.351 1.87-13.333 2.971-1.176 0.325-1.689 1.697-1.023 2.72 1.031 1.253 1.609 2.813 1.671 4.435 0.165 4.431 1.149 13.489 6.386 14.78l27.761 88.399 31.498-34.633z" fill="#FF8D7E" fill-rule="nonzero"/>
<path id="Shape" d="m221.08 244.27c-12.523 8.593-11.348 36.633-21.732 43.312l2.852 9.082 31.498-34.634-12.618-17.76z" fill="#C73A32" fill-rule="nonzero"/>
<path id="Shape" d="m187.78 188.81 1.125 5.466" stroke="#C73A32" stroke-width="1.2627"/>
<path id="Shape" d="m183.63 194.28-2.726-10.933" stroke="#C73A32" stroke-width="1.2627"/>
<path id="Shape" d="m178.49 195.27-2.727-10.934" stroke="#C73A32" stroke-width="1.2627"/>
<path id="Shape" d="m173.86 196.44-2.728-10.934" stroke="#C73A32" stroke-width="1.2627"/>
<path id="Shape" d="m376.13 146.46c2.386 3.516 2.384 7.683-6e-3 9.308-2.389 1.627-6.262 0.095-8.648-3.421-2.386-3.515-2.384-7.683 6e-3 -9.31 2.39-1.624 6.262-0.093 8.648 3.423z" fill="#FF8D7E" fill-rule="nonzero"/>
<path id="Shape" d="m498.7 98.917 40.472-66.722c1.503-2.479 1.982-5.435 1.382-8.272-0.9-4.246-1.775-10.743 0.026-14.921 2.217-5.137 6.059-2.76 6.059-2.76s2.338-6.62 6.407-5.237c5.66 1.924 12.606 5.024 13.994 11.33 1.24 5.633-3.063 12.119-9.246 17.706-1.491 1.347-2.592 3.072-3.114 5.013l-20.972 77.838-35.008-13.975z" fill="#FF8D7E" fill-rule="nonzero"/>
<path id="Shape" d="m506.38 88.623c-0.543 3e-3 -1.077 0.105-1.6 0.276l-6.076 10.017 35.009 13.975 3.592-13.33c0.77-2.865-1.82-5.463-4.698-4.761-16.633 4.057-15.323-6.226-26.227-6.177z" fill="#C73A32" fill-rule="nonzero"/>
<path id="Shape" d="m377.27 163.75-5.472 35.646 37.478-10.582-2.931-31.105s4.097-1.931 5.126-7.536c1.028-5.606-3.305-14.664-3.305-14.664l-30.896 28.241z" fill="#FF8D7E" fill-rule="nonzero"/>
<path id="Shape" d="m348.05 190.74c29.123-7.135 111.15-35.594 111.15-35.594l38.439-55.158 34.913 13.93-57.337 150.26 12.172 127.31s-6.085 7.055-22.101 6.414c-16.016-0.643-16.656-7.055-31.391-6.735-14.735 0.321-13.133 6.776-29.79 6.776-16.656 0-19.86-5.813-35.556-5.813-15.695 0-22.742 5.813-38.117 5.813s-23.704-7.738-23.704-7.738l22.103-118.01s-46.126 43.933-60.221 55.477c-14.093 11.544-38.971 13.468-54.774-15.606 0 0 53.707-63.77 65.384-79.485 18.219-24.52 38.72-34.461 68.83-41.836z" fill="#3A55D1" fill-rule="nonzero"/>
<path id="Shape" d="m226.24 327.69 20.843-52.94-4.096 2.458c-15.215 18.311-29.147 34.855-29.147 34.855 3.716 6.836 7.938 11.94 12.4 15.627z" fill="#111C5C" fill-rule="nonzero"/>
<polygon id="Shape" points="497.64 99.986 487.34 114.77 522.13 141.23 532.55 113.92" fill="#111C5C" fill-rule="nonzero"/>
<path id="Shape" d="m475.21 264.17 7.934-20.791c-16.246 9.398-46.15 25.938-46.15 25.938l-36.889-45.984-27.047 17.429s1.489 4.561 8.329 11.015c6.839 6.456 5.588 10.857 7.501 15.779 1.909 4.919 8.162 8.69 12.157 12.911 3.996 4.222 3.945 12.693 10.639 21.111l0.202 0.254c10.566 13.313 29.012 17.38 44.186 9.743l22.584-11.366-3.446-36.039z" fill="#111C5C" fill-rule="nonzero"/>
<polygon id="Shape" points="374.07 306.56 374.07 299.79 380.84 299.79 380.84 298.03 374.07 298.03 374.07 291.25 372.31 291.25 372.31 298.03 365.55 298.03 365.55 299.79 372.31 299.79 372.31 306.56" fill="#111C5C" fill-rule="nonzero"/>
<polygon id="Shape" points="386.47 329.07 386.47 322.3 393.24 322.3 393.24 320.54 386.47 320.54 386.47 313.76 384.71 313.76 384.71 320.54 377.95 320.54 377.95 322.3 384.71 322.3 384.71 329.07" fill="#111C5C" fill-rule="nonzero"/>
<polygon id="Shape" points="398.87 306.56 398.87 299.79 405.64 299.79 405.64 298.03 398.87 298.03 398.87 291.25 397.11 291.25 397.11 298.03 390.34 298.03 390.34 299.79 397.11 299.79 397.11 306.56" fill="#111C5C" fill-rule="nonzero"/>
<polygon id="Shape" points="336.88 329.07 336.88 322.3 343.64 322.3 343.64 320.54 336.88 320.54 336.88 313.76 335.12 313.76 335.12 320.54 328.35 320.54 328.35 322.3 335.12 322.3 335.12 329.07" fill="#111C5C" fill-rule="nonzero"/>
<polygon id="Shape" points="473.26 306.56 473.26 299.79 478.62 299.79 478.45 298.03 473.26 298.03 473.26 291.25 471.5 291.25 471.5 298.03 464.73 298.03 464.73 299.79 471.5 299.79 471.5 306.56" fill="#111C5C" fill-rule="nonzero"/>
<polygon id="Shape" points="349.28 306.56 349.28 299.79 356.04 299.79 356.04 298.03 349.28 298.03 349.28 291.25 347.52 291.25 347.52 298.03 340.75 298.03 340.75 299.79 347.52 299.79 347.52 306.56" fill="#111C5C" fill-rule="nonzero"/>
<polygon id="Shape" points="460.86 329.07 460.86 322.3 467.62 322.3 467.62 320.54 460.86 320.54 460.86 313.76 459.1 313.76 459.1 320.54 452.34 320.54 452.34 322.3 459.1 322.3 459.1 329.07" fill="#111C5C" fill-rule="nonzero"/>
<polygon id="Shape" points="448.46 306.56 448.46 299.79 455.23 299.79 455.23 298.03 448.46 298.03 448.46 291.25 446.7 291.25 446.7 298.03 439.94 298.03 439.94 299.79 446.7 299.79 446.7 306.56" fill="#111C5C" fill-rule="nonzero"/>
<polygon id="Shape" points="423.66 306.56 423.66 299.79 430.43 299.79 430.43 298.03 423.66 298.03 423.66 291.25 421.91 291.25 421.91 298.03 415.14 298.03 415.14 299.79 421.91 299.79 421.91 306.56" fill="#111C5C" fill-rule="nonzero"/>
<polygon id="Shape" points="411.27 329.07 411.27 322.3 418.03 322.3 418.03 320.54 411.27 320.54 411.27 313.76 409.51 313.76 409.51 320.54 402.74 320.54 402.74 322.3 409.51 322.3 409.51 329.07" fill="#111C5C" fill-rule="nonzero"/>
<polygon id="Shape" points="436.06 329.07 436.06 322.3 442.83 322.3 442.83 320.54 436.06 320.54 436.06 313.76 434.3 313.76 434.3 320.54 427.54 320.54 427.54 322.3 434.3 322.3 434.3 329.07" fill="#111C5C" fill-rule="nonzero"/>
<polygon id="Shape" points="361.67 329.07 361.67 322.3 368.44 322.3 368.44 320.54 361.67 320.54 361.67 313.76 359.92 313.76 359.92 320.54 353.15 320.54 353.15 322.3 359.92 322.3 359.92 329.07" fill="#111C5C" fill-rule="nonzero"/>
<polygon id="Shape" points="471.5 199.27 471.5 206.04 464.73 206.04 464.73 207.8 471.5 207.8 471.5 214.58 473.26 214.58 473.26 207.8 480.02 207.8 480.02 206.04 473.26 206.04 473.26 199.27" fill="#111C5C" fill-rule="nonzero"/>
<polygon id="Shape" points="459.1 221.78 459.1 228.55 452.34 228.55 452.34 230.31 459.1 230.31 459.1 237.09 460.86 237.09 460.86 230.31 467.62 230.31 467.62 228.55 460.86 228.55 460.86 221.78" fill="#111C5C" fill-rule="nonzero"/>
<polygon id="Shape" points="446.7 199.27 446.7 206.04 439.94 206.04 439.94 207.8 446.7 207.8 446.7 214.58 448.46 214.58 448.46 207.8 455.23 207.8 455.23 206.04 448.46 206.04 448.46 199.27" fill="#111C5C" fill-rule="nonzero"/>
<polygon id="Shape" points="483.9 175.79 483.9 182.56 477.13 182.56 477.13 184.32 483.9 184.32 483.9 191.09 485.66 191.09 485.66 184.32 492.42 184.32 492.42 182.56 485.66 182.56 485.66 175.79" fill="#111C5C" fill-rule="nonzero"/>
<polygon id="Shape" points="473.26 260.57 473.26 253.8 479.17 253.8 479.85 252.04 473.26 252.04 473.26 245.26 471.5 245.26 471.5 252.04 464.73 252.04 464.73 253.8 471.5 253.8 471.5 260.57" fill="#111C5C" fill-rule="nonzero"/>
<polygon id="Shape" points="250.09 306.56 250.09 299.79 256.86 299.79 256.86 298.03 250.09 298.03 250.09 291.25 248.33 291.25 248.33 298.03 241.57 298.03 241.57 299.79 248.33 299.79 248.33 306.56" fill="#111C5C" fill-rule="nonzero"/>
<polygon id="Shape" points="434.3 175.79 434.3 182.56 427.54 182.56 427.54 184.32 434.3 184.32 434.3 191.09 436.06 191.09 436.06 184.32 442.83 184.32 442.83 182.56 436.06 182.56 436.06 175.79" fill="#111C5C" fill-rule="nonzero"/>
<polygon id="Shape" points="372.31 199.27 372.31 206.04 365.55 206.04 365.55 207.8 372.31 207.8 372.31 214.58 374.07 214.58 374.07 207.8 380.84 207.8 380.84 206.04 374.07 206.04 374.07 199.27" fill="#111C5C" fill-rule="nonzero"/>
<polygon id="Shape" points="384.71 221.78 384.71 228.55 377.95 228.55 377.95 230.31 384.71 230.31 384.71 237.09 386.47 237.09 386.47 230.31 393.24 230.31 393.24 228.55 386.47 228.55 386.47 221.78" fill="#111C5C" fill-rule="nonzero"/>
<polygon id="Shape" points="397.11 199.27 397.11 206.04 390.34 206.04 390.34 207.8 397.11 207.8 397.11 214.58 398.87 214.58 398.87 207.8 405.64 207.8 405.64 206.04 398.87 206.04 398.87 199.27" fill="#111C5C" fill-rule="nonzero"/>
<polygon id="Shape" points="421.91 199.27 421.91 206.04 415.14 206.04 415.14 207.8 421.91 207.8 421.91 214.58 423.66 214.58 423.66 207.8 430.43 207.8 430.43 206.04 423.66 206.04 423.66 199.27" fill="#111C5C" fill-rule="nonzero"/>
<polygon id="Shape" points="409.51 175.79 409.51 182.56 402.74 182.56 402.74 184.32 409.51 184.32 409.51 191.09 411.27 191.09 411.27 184.32 418.03 184.32 418.03 182.56 411.27 182.56 411.27 175.79" fill="#111C5C" fill-rule="nonzero"/>
<polygon id="Shape" points="398.87 352.55 398.87 345.78 405.64 345.78 405.64 344.02 398.87 344.02 398.87 337.25 397.11 337.25 397.11 344.02 390.34 344.02 390.34 345.78 397.11 345.78 397.11 352.55" fill="#111C5C" fill-rule="nonzero"/>
<polygon id="Shape" points="460.86 375.06 460.86 368.29 467.62 368.29 467.62 366.53 460.86 366.53 460.86 359.76 459.1 359.76 459.1 366.53 452.34 366.53 452.34 368.29 459.1 368.29 459.1 375.06" fill="#111C5C" fill-rule="nonzero"/>
<polygon id="Shape" points="448.46 352.55 448.46 345.78 455.23 345.78 455.23 344.02 448.46 344.02 448.46 337.25 446.7 337.25 446.7 344.02 439.94 344.02 439.94 345.78 446.7 345.78 446.7 352.55" fill="#111C5C" fill-rule="nonzero"/>
<polygon id="Shape" points="473.26 352.55 473.26 345.78 480.02 345.78 480.02 344.02 473.26 344.02 473.26 337.25 471.5 337.25 471.5 344.02 464.73 344.02 464.73 345.78 471.5 345.78 471.5 352.55" fill="#111C5C" fill-rule="nonzero"/>
<polygon id="Shape" points="442.83 366.53 436.06 366.53 436.06 359.76 434.3 359.76 434.3 366.53 427.54 366.53 427.54 368.29 434.3 368.29 434.3 375.06 436.06 375.06 436.06 368.29 442.83 368.29" fill="#111C5C" fill-rule="nonzero"/>
<polygon id="Shape" points="423.66 352.55 423.66 345.78 430.43 345.78 430.43 344.02 423.66 344.02 423.66 337.25 421.91 337.25 421.91 344.02 415.14 344.02 415.14 345.78 421.91 345.78 421.91 352.55" fill="#111C5C" fill-rule="nonzero"/>
<polygon id="Shape" points="411.27 375.06 411.27 368.29 418.03 368.29 418.03 366.53 411.27 366.53 411.27 359.76 409.51 359.76 409.51 366.53 402.74 366.53 402.74 368.29 409.51 368.29 409.51 375.06" fill="#111C5C" fill-rule="nonzero"/>
<path id="Shape" d="m430.43 390.01h-6.766v-6.774h-1.758v6.774h-6.766v1.76h6.766v1.877c0.564-0.25 1.145-0.494 1.758-0.725v-1.152h4.065c0.825-0.162 1.72-0.298 2.701-0.402v-1.358z" fill="#111C5C" fill-rule="nonzero"/>
<polygon id="Shape" points="485.66 375.06 485.66 373.37 484.35 359.76 483.9 359.76 483.9 366.53 477.13 366.53 477.13 368.29 483.9 368.29 483.9 375.06" fill="#111C5C" fill-rule="nonzero"/>
<path id="Shape" d="m448.46 393.9v-2.125h6.766v-1.76h-6.766v-6.774h-1.759v6.774h-6.766v1.449c0.653 0.087 1.274 0.192 1.867 0.311h4.899v1.436c0.594 0.221 1.178 0.453 1.759 0.689z" fill="#111C5C" fill-rule="nonzero"/>
<polygon id="Shape" points="521.09 109.34 521.09 114.06 514.33 114.06 514.33 115.82 521.09 115.82 521.09 122.59 522.85 122.59 522.85 115.82 529.62 115.82 529.62 114.06 522.85 114.06 522.85 110.04" fill="#111C5C" fill-rule="nonzero"/>
<path id="Shape" d="m225.3 299.79h6.766v-1.76h-6.451c-0.715 0.854-1.407 1.68-2.073 2.475v6.059h1.758v-6.774z" fill="#111C5C" fill-rule="nonzero"/>
<polygon id="Shape" points="496.3 153.28 496.3 160.05 489.53 160.05 489.53 161.81 496.3 161.81 496.3 168.58 498.05 168.58 498.05 161.81 504.82 161.81 504.82 160.05 498.05 160.05 498.05 153.28" fill="#111C5C" fill-rule="nonzero"/>
<polygon id="Shape" points="312.08 368.29 318.85 368.29 318.85 366.53 312.08 366.53 312.08 361.6 310.32 370.99 310.32 375.06 312.08 375.06" fill="#111C5C" fill-rule="nonzero"/>
<path id="Shape" d="m446.7 161.81v6.774h1.758v-6.774h6.766v-1.76h-6.766v-1.216c-0.568 0.193-1.155 0.395-1.758 0.6v0.616h-1.801c-1.559 0.531-3.218 1.095-4.966 1.689v0.071h6.767z" fill="#111C5C" fill-rule="nonzero"/>
<polygon id="Shape" points="471.5 153.28 471.5 160.05 464.73 160.05 464.73 161.81 471.5 161.81 471.5 168.58 473.26 168.58 473.26 161.81 480.02 161.81 480.02 160.05 473.26 160.05 473.26 153.28" fill="#111C5C" fill-rule="nonzero"/>
<polygon id="Shape" points="324.48 352.55 324.48 345.78 331.25 345.78 331.25 344.02 324.48 344.02 324.48 337.25 322.72 337.25 322.72 344.02 315.96 344.02 315.96 345.78 322.72 345.78 322.72 352.55" fill="#111C5C" fill-rule="nonzero"/>
<polygon id="Shape" points="459.1 175.79 459.1 182.56 452.34 182.56 452.34 184.32 459.1 184.32 459.1 191.09 460.86 191.09 460.86 184.32 467.62 184.32 467.62 182.56 460.86 182.56 460.86 175.79" fill="#111C5C" fill-rule="nonzero"/>
<polygon id="Shape" points="349.28 352.55 349.28 345.78 356.04 345.78 356.04 344.02 349.28 344.02 349.28 337.25 347.52 337.25 347.52 344.02 340.75 344.02 340.75 345.78 347.52 345.78 347.52 352.55" fill="#111C5C" fill-rule="nonzero"/>
<polygon id="Shape" points="386.47 375.06 386.47 368.29 393.24 368.29 393.24 366.53 386.47 366.53 386.47 359.76 384.71 359.76 384.71 366.53 377.95 366.53 377.95 368.29 384.71 368.29 384.71 375.06" fill="#111C5C" fill-rule="nonzero"/>
<polygon id="Shape" points="374.07 352.55 374.07 345.78 380.84 345.78 380.84 344.02 374.07 344.02 374.07 337.25 372.31 337.25 372.31 344.02 365.55 344.02 365.55 345.78 372.31 345.78 372.31 352.55" fill="#111C5C" fill-rule="nonzero"/>
<polygon id="Shape" points="460.86 283.08 460.86 276.31 467.62 276.31 467.62 274.55 460.86 274.55 460.86 267.77 459.1 267.77 459.1 274.55 452.34 274.55 452.34 276.31 459.1 276.31 459.1 283.08" fill="#111C5C" fill-rule="nonzero"/>
<polygon id="Shape" points="336.88 375.06 336.88 368.29 343.64 368.29 343.64 366.53 336.88 366.53 336.88 359.76 335.12 359.76 335.12 366.53 328.35 366.53 328.35 368.29 335.12 368.29 335.12 375.06" fill="#111C5C" fill-rule="nonzero"/>
<polygon id="Shape" points="361.67 375.06 361.67 368.29 368.44 368.29 368.44 366.53 361.67 366.53 361.67 359.76 359.92 359.76 359.92 366.53 353.15 366.53 353.15 368.29 359.92 368.29 359.92 375.06" fill="#111C5C" fill-rule="nonzero"/>
<polygon id="Shape" points="483.9 129.79 483.9 136.57 477.13 136.57 477.13 138.33 483.9 138.33 483.9 145.1 485.66 145.1 485.66 138.33 492.42 138.33 492.42 136.57 485.66 136.57 485.66 129.79" fill="#111C5C" fill-rule="nonzero"/>
<polygon id="Shape" points="324.48 299.79 331.25 299.79 331.25 298.03 324.48 298.03 324.48 295.41 322.72 304.8 322.72 306.56 324.48 306.56" fill="#111C5C" fill-rule="nonzero"/>
<path id="Shape" d="m285.53 237.09h1.758v-6.774h6.765v-1.76h-6.765v-5.726c-0.589 0.638-1.176 1.287-1.758 1.947v3.779h-3.19c-0.469 0.58-0.937 1.162-1.401 1.76h4.591v6.774z" fill="#111C5C" fill-rule="nonzero"/>
<path id="Shape" d="m306.45 207.8v-0.928c-0.49 0.305-0.98 0.611-1.465 0.928h1.465z" fill="#111C5C" fill-rule="nonzero"/>
<path id="Shape" d="m384.71 179.96v2.598h-6.766v1.76h6.766v6.774h1.759v-6.774h6.765v-1.76h-6.765v-3.157c-0.588 0.187-1.174 0.373-1.759 0.559z" fill="#111C5C" fill-rule="nonzero"/>
<path id="Shape" d="m423.66 168.58v-1.358c-0.582 0.193-1.17 0.39-1.758 0.587v0.771h1.758z" fill="#111C5C" fill-rule="nonzero"/>
<polygon id="Shape" points="501.93 184.32 505.68 184.32 506.36 182.56 501.93 182.56" fill="#111C5C" fill-rule="nonzero"/>
<path id="Shape" d="m359.92 191.09h1.758v-4.078c-0.594 0.173-1.179 0.342-1.758 0.509v3.569z" fill="#111C5C" fill-rule="nonzero"/>
<polygon id="Shape" points="409.51 221.78 409.51 228.55 402.74 228.55 402.74 230.31 409.51 230.31 409.51 237.09 411.27 237.09 411.27 230.31 418.03 230.31 418.03 228.55 411.27 228.55 411.27 221.78" fill="#111C5C" fill-rule="nonzero"/>
<path id="Shape" d="m301.4 298.03h-1.718v-6.774h-1.758v6.774h-6.765v1.76h6.765v1.476c1.163-1.081 2.324-2.161 3.476-3.236z" fill="#111C5C" fill-rule="nonzero"/>
<polygon id="Shape" points="434.3 221.78 434.3 228.55 427.54 228.55 427.54 230.31 434.3 230.31 434.3 237.09 436.06 237.09 436.06 230.31 442.83 230.31 442.83 228.55 436.06 228.55 436.06 221.78" fill="#111C5C" fill-rule="nonzero"/>
<polygon id="Shape" points="483.9 221.78 483.9 228.55 477.13 228.55 477.13 230.31 483.9 230.31 483.9 237.09 485.55 237.09 485.66 236.81 485.66 230.31 488.13 230.31 488.81 228.55 485.66 228.55 485.66 221.78" fill="#111C5C" fill-rule="nonzero"/>
<polygon id="Shape" points="496.3 206.04 489.53 206.04 489.53 207.8 496.3 207.8 496.3 208.93 498.05 204.32 498.05 199.27 496.3 199.27" fill="#111C5C" fill-rule="nonzero"/>
<polygon id="Shape" points="480.6 320.54 477.13 320.54 477.13 322.3 480.77 322.3" fill="#111C5C" fill-rule="nonzero"/>
<path id="Shape" d="m349.28 395.05v-3.276h6.766v-1.761h-6.766v-6.773h-1.758v6.773h-6.765v1.761h6.765v3.726c0.587-0.149 1.172-0.3 1.758-0.45z" fill="#111C5C" fill-rule="nonzero"/>
<path id="Shape" d="m372.31 392.24c0.604 0.039 1.192 0.088 1.758 0.145v-0.614h6.767v-1.76h-6.767v-6.774h-1.758v6.774h-6.765v1.76h6.765v0.469z" fill="#111C5C" fill-rule="nonzero"/>
<path id="Shape" d="m398.87 397.72v-5.945h6.767v-1.759h-6.767v-6.773h-1.758v6.773h-6.765v1.759h6.765v5.769c0.567 0.067 1.156 0.124 1.758 0.176z" fill="#111C5C" fill-rule="nonzero"/>
<polygon id="Shape" points="448.46 260.57 448.46 253.8 455.23 253.8 455.23 252.04 448.46 252.04 448.46 245.26 446.7 245.26 446.7 252.04 439.94 252.04 439.94 253.8 446.7 253.8 446.7 260.57" fill="#111C5C" fill-rule="nonzero"/>
<polygon id="Shape" points="514.33 161.68 514.95 160.05 514.33 160.05" fill="#111C5C" fill-rule="nonzero"/>
<path id="Shape" d="m324.48 397.52v-5.745h6.766v-1.761h-6.766v-6.773h-1.759v6.773h-6.765v1.761h6.765v5.472c0.569 0.103 1.161 0.191 1.759 0.273z" fill="#111C5C" fill-rule="nonzero"/>
<polygon id="Shape" points="229.17 322.3 235.94 322.3 235.94 329.07 237.69 329.07 237.69 322.3 244.46 322.3 244.46 320.54 237.69 320.54 237.69 313.76 235.94 313.76 235.94 320.54 229.17 320.54" fill="#111C5C" fill-rule="nonzero"/>
<polygon id="Shape" points="508.69 176.44 508.94 175.79 508.69 175.79" fill="#111C5C" fill-rule="nonzero"/>
<polygon id="Shape" points="496.3 107.28 496.3 114.06 489.53 114.06 489.53 115.82 496.3 115.82 496.3 122.59 498.05 122.59 498.05 115.82 504.82 115.82 504.82 114.06 498.05 114.06 498.05 107.28" fill="#111C5C" fill-rule="nonzero"/>
<path id="Shape" d="m244.46 275.43c-0.243 0.292-0.487 0.586-0.73 0.879h0.73v-0.879z" fill="#111C5C" fill-rule="nonzero"/>
<polygon id="Shape" points="517.22 136.57 510.45 136.57 510.45 129.8 508.69 129.8 508.69 136.57 501.93 136.57 501.93 138.33 508.69 138.33 508.69 145.1 510.45 145.1 510.45 138.33 517.22 138.33" fill="#111C5C" fill-rule="nonzero"/>
<path id="Shape" d="m471.5 397.73c0.598-0.057 1.198-0.112 1.759-0.189v-5.765h6.766v-1.76h-6.766v-6.774h-1.759v6.774h-6.766v1.76h6.766v5.954z" fill="#111C5C" fill-rule="nonzero"/>
<polygon id="Shape" points="361.67 283.08 361.67 276.31 368.44 276.31 368.44 274.55 361.67 274.55 361.67 267.77 359.92 267.77 359.92 274.55 353.15 274.55 353.15 276.31 359.92 276.31 359.92 283.08" fill="#111C5C" fill-rule="nonzero"/>
<polygon id="Shape" points="374.07 260.57 374.07 253.8 380.84 253.8 380.84 252.04 374.07 252.04 374.07 245.26 372.31 245.26 372.31 252.04 365.55 252.04 365.55 253.8 372.31 253.8 372.31 260.57" fill="#111C5C" fill-rule="nonzero"/>
<polygon id="Shape" points="349.28 260.57 349.28 253.8 356.04 253.8 356.04 252.04 349.28 252.04 349.28 245.26 347.52 245.26 347.52 252.04 340.75 252.04 340.75 253.8 347.52 253.8 347.52 260.57" fill="#111C5C" fill-rule="nonzero"/>
<polygon id="Shape" points="260.73 267.77 260.73 274.55 253.96 274.55 253.96 276.31 260.73 276.31 260.73 283.08 262.49 283.08 262.49 276.31 269.26 276.31 269.26 274.55 262.49 274.55 262.49 267.77" fill="#111C5C" fill-rule="nonzero"/>
<polygon id="Shape" points="336.88 283.08 336.88 276.31 343.64 276.31 343.64 274.55 336.88 274.55 336.88 267.77 335.12 267.77 335.12 274.55 328.39 274.55 328.35 274.72 328.35 276.31 335.12 276.31 335.12 283.08" fill="#111C5C" fill-rule="nonzero"/>
<polygon id="Shape" points="262.49 329.07 262.49 322.3 269.26 322.3 269.26 320.54 262.49 320.54 262.49 313.76 260.73 313.76 260.73 320.54 253.96 320.54 253.96 322.3 260.73 322.3 260.73 329.07" fill="#111C5C" fill-rule="nonzero"/>
<polygon id="Shape" points="423.66 260.57 423.66 253.8 430.43 253.8 430.43 252.04 423.66 252.04 423.66 245.26 421.91 245.26 421.91 252.04 415.14 252.04 415.14 253.8 421.91 253.8 421.91 260.57" fill="#111C5C" fill-rule="nonzero"/>
<polygon id="Shape" points="386.47 283.08 386.47 276.31 393.24 276.31 393.24 274.55 386.47 274.55 386.47 267.77 384.71 267.77 384.71 274.55 377.95 274.55 377.95 276.31 384.71 276.31 384.71 283.08" fill="#111C5C" fill-rule="nonzero"/>
<polygon id="Shape" points="436.06 283.08 436.06 276.31 442.83 276.31 442.83 274.55 436.06 274.55 436.06 267.77 434.3 267.77 434.3 274.55 427.54 274.55 427.54 276.31 434.3 276.31 434.3 283.08" fill="#111C5C" fill-rule="nonzero"/>
<polygon id="Shape" points="411.27 283.08 411.27 276.31 418.03 276.31 418.03 274.55 411.27 274.55 411.27 267.77 409.51 267.77 409.51 274.55 402.74 274.55 402.74 276.31 409.51 276.31 409.51 283.08" fill="#111C5C" fill-rule="nonzero"/>
<polygon id="Shape" points="398.87 260.57 398.87 253.8 405.64 253.8 405.64 252.04 398.87 252.04 398.87 245.26 397.11 245.26 397.11 252.04 390.34 252.04 390.34 253.8 397.11 253.8 397.11 260.57" fill="#111C5C" fill-rule="nonzero"/>
<polygon id="Shape" points="274.89 306.56 274.89 299.79 281.65 299.79 281.65 298.03 274.89 298.03 274.89 291.25 273.13 291.25 273.13 298.03 266.36 298.03 266.36 299.79 273.13 299.79 273.13 306.56" fill="#111C5C" fill-rule="nonzero"/>
<polygon id="Shape" points="287.29 283.08 287.29 276.31 294.05 276.31 294.05 274.55 287.29 274.55 287.29 267.77 285.53 267.77 285.53 274.55 278.76 274.55 278.76 276.31 285.53 276.31 285.53 283.08" fill="#111C5C" fill-rule="nonzero"/>
<polygon id="Shape" points="347.52 199.27 347.52 206.04 340.75 206.04 340.75 207.8 347.52 207.8 347.52 214.58 349.28 214.58 349.28 207.8 356.04 207.8 356.04 206.04 349.28 206.04 349.28 199.27" fill="#111C5C" fill-rule="nonzero"/>
<polygon id="Shape" points="299.68 260.57 299.68 253.8 306.45 253.8 306.45 252.04 299.68 252.04 299.68 245.26 297.92 245.26 297.92 252.04 291.16 252.04 291.16 253.8 297.92 253.8 297.92 260.57" fill="#111C5C" fill-rule="nonzero"/>
<polygon id="Shape" points="310.32 283.08 312.08 283.08 312.08 276.31 318.85 276.31 318.85 274.55 312.08 274.55 312.08 267.77 310.32 267.77 310.32 274.55 303.56 274.55 303.56 276.31 310.32 276.31" fill="#111C5C" fill-rule="nonzero"/>
<polygon id="Shape" points="273.13 245.26 273.13 252.04 266.36 252.04 266.36 253.8 273.13 253.8 273.13 260.57 274.89 260.57 274.89 253.8 281.65 253.8 281.65 252.04 274.89 252.04 274.89 245.26" fill="#111C5C" fill-rule="nonzero"/>
<polygon id="Shape" points="331.25 252.04 324.48 252.04 324.48 245.26 322.72 245.26 322.72 252.04 315.96 252.04 315.96 253.8 322.72 253.8 322.72 260.57 324.48 260.57 324.48 253.8 331.25 253.8" fill="#111C5C" fill-rule="nonzero"/>
<polygon id="Shape" points="310.32 221.78 310.32 228.55 303.56 228.55 303.56 230.31 310.32 230.31 310.32 237.09 312.08 237.09 312.08 230.31 318.85 230.31 318.85 228.55 312.08 228.55 312.08 221.78" fill="#111C5C" fill-rule="nonzero"/>
<polygon id="Shape" points="359.92 221.78 359.92 228.55 353.15 228.55 353.15 230.31 359.92 230.31 359.92 237.09 361.68 237.09 361.68 230.31 368.44 230.31 368.44 228.55 361.68 228.55 361.68 221.78" fill="#111C5C" fill-rule="nonzero"/>
<path id="Shape" d="m299.68 214.58v-3.037c-0.59 0.448-1.177 0.904-1.759 1.368v1.669h1.759z" fill="#111C5C" fill-rule="nonzero"/>
<polygon id="Shape" points="322.72 199.27 322.72 206.04 315.96 206.04 315.96 207.8 322.72 207.8 322.72 214.58 324.48 214.58 324.48 207.8 331.25 207.8 331.25 206.04 324.48 206.04 324.48 199.27" fill="#111C5C" fill-rule="nonzero"/>
<polygon id="Shape" points="335.12 221.78 335.12 228.55 328.35 228.55 328.35 230.31 335.12 230.31 335.12 237.09 336.88 237.09 336.88 230.31 343.64 230.31 343.64 228.55 336.88 228.55 336.88 221.78" fill="#111C5C" fill-rule="nonzero"/>
<path id="Shape" d="m254.2 278.28 5.98 18.812" stroke="#6273CC" stroke-width="1.2627"/>
<path id="Shape" d="m250.35 278.28-2.136 24.585" stroke="#6273CC" stroke-width="1.2627"/>
<path id="Shape" d="m317.4 262.67c-2.853 15.502-20.656 19.726-16.351 35.677 14.49-13.51 27.776-26.164 27.776-26.164l2.106-14.56c0.922-6.368-7.766-9.155-10.699-3.43-1.221 2.384-2.227 5.191-2.832 8.477z" fill="#111C5C" fill-rule="nonzero"/>
<path id="Shape" d="m482.55 215.24c-5.392-0.889-10.21 3.474-9.865 8.934l2.527 39.993 17.999-47.166-10.661-1.761z" fill="#111C5C" fill-rule="nonzero"/>
<path id="Shape" d="m463.04 158.56s17.511 19.027 11.317 50.453" stroke="#6273CC" stroke-width="1.2627"/>
<path id="Shape" d="m238.64 261.1 7.999 7.511c2.727 2.561 3.026 6.791 0.687 9.711l-28.242 35.253c-2.962 3.696-8.628 3.548-11.393-0.296l-8.384-11.657c-1.985-2.762-1.758-6.54 0.545-9.042l28.626-31.109c2.696-2.929 7.26-3.097 10.162-0.371z" fill="#6273CC" fill-rule="nonzero"/>
<path id="Shape" d="m239.94 264.49-33.164 40.852" stroke="#111C5C" stroke-width="1.2627"/>
<path id="Shape" d="m499.1 96.92 35.237 13.718c0.983 0.383 1.507 1.458 1.201 2.469l-4.365 14.457c-0.347 1.144-1.603 1.74-2.707 1.282l-39.364-16.339c-1.202-0.499-1.626-1.989-0.866-3.048l8.491-11.835c0.539-0.749 1.514-1.039 2.373-0.704z" fill="#6273CC" fill-rule="nonzero"/>
<path id="Shape" d="m495.82 103.73 34.632 15.687" stroke="#111C5C" stroke-width="1.2627"/>
<path id="Shape" d="m555.34 1.781-3.223 6.321" stroke="#C73A32" stroke-width="1.2627"/>
<path id="Shape" d="m559.39 3.968-3.224 6.321" stroke="#C73A32" stroke-width="1.2627"/>
<path id="Shape" d="m563.44 6.604-3.223 6.322" stroke="#C73A32" stroke-width="1.2627"/>
<path id="Shape" d="m412.5 144.57c-1.306 4.044-4.591 6.603-7.341 5.713-2.75-0.889-3.92-4.888-2.615-8.934 1.306-4.044 4.591-6.601 7.341-5.713 2.749 0.89 3.92 4.89 2.615 8.934z" fill="#FF8D7E" fill-rule="nonzero"/>
<path id="Shape" d="m377.27 163.75 21.338-4.297c2.354-0.475 4.292-2.118 5.149-4.362 2.049-5.367 5.519-15.728 5.519-24.39 0-12.292-12.077-19.345-26.974-15.918-12.629 2.904-22.268 15.557-14.5 31.836 4.921 10.315 9.468 17.131 9.468 17.131z" fill="#111C5C" fill-rule="nonzero"/>
<polygon id="Shape" points="633.78 431.66 478.09 431.66 500.84 358.13 611.03 358.13" fill="#E0840B" fill-rule="nonzero"/>
<path id="Shape" d="m714.97 223.76 9.752-9.139 7.225-17.226 13.009-9.814c0.525-0.396 1.264-0.33 1.711 0.154l0.209 0.228c0.501 0.544 0.44 1.399-0.136 1.864l-6.672 5.394 6.796-2.973c1.676-0.733 3.633-0.325 4.877 1.019l4.009 4.329c0.907 0.979 0.819 2.515-0.194 3.383l-6.408 5.491c-0.824 0.704-1.424 1.638-1.701 2.686-1.041 3.932-4.59 14.088-13.578 14.604l-9.147 17.798-9.752-17.798z" fill="#FF8D7E" fill-rule="nonzero"/>
<path id="Shape" d="m752.22 193.81-11.146 7.139" stroke="#C73A32" stroke-width="1.2627"/>
<path id="Shape" d="m743.6 204.06 11.146-7.14" stroke="#C73A32" stroke-width="1.2627"/>
<path id="Shape" d="m396.9 223.76-9.75-9.139-7.226-17.226-13.01-9.814c-0.524-0.396-1.264-0.33-1.709 0.154l-0.209 0.228c-0.503 0.544-0.44 1.399 0.136 1.864l6.671 5.394-6.795-2.973c-1.676-0.733-3.634-0.325-4.878 1.019l-4.01 4.329c-0.906 0.979-0.817 2.515 0.195 3.383l6.409 5.491c0.823 0.704 1.423 1.638 1.701 2.686 1.04 3.932 4.589 14.088 13.577 14.604l9.148 17.798 9.75-17.798z" fill="#FF8D7E" fill-rule="nonzero"/>
<path id="Shape" d="m370.79 200.95-11.145-7.14" stroke="#C73A32" stroke-width="1.2627"/>
<path id="Shape" d="m368.26 204.06-11.145-7.14" stroke="#C73A32" stroke-width="1.2627"/>
<path id="Shape" d="m716.54 217.57-44.651 38.473s-38.331-31.558-47.568-39.976c-9.235-8.42-20.553-17.743-35.288-18.386-14.734-0.641-33.099 0-33.099 0s-18.365-0.641-33.1 0c-14.734 0.643-26.053 9.966-35.287 18.386-9.237 8.418-47.568 39.976-47.568 39.976l-44.652-38.473-23.417 22.077s2.296 4.212 10.198 9.308c7.901 5.099 7.474 9.654 10.25 14.143 2.776 4.49 9.611 7.056 14.308 10.477 4.698 3.419 6.193 11.757 14.307 18.812l0.244 0.212c12.817 11.16 31.693 11.789 45.222 1.508l34.614-26.305 10.222 35.084c1.211 4.156 1.101 8.587-0.315 12.678l-19.731 56.992h64.705 64.705l-19.73-56.992c-1.417-4.091-1.528-8.522-0.316-12.678l10.222-35.084 34.613 26.305c13.529 10.281 32.406 9.652 45.221-1.508l0.246-0.212c8.114-7.055 9.609-15.393 14.307-18.812 4.699-3.421 11.531-5.987 14.308-10.477 2.776-4.489 2.349-9.044 10.249-14.143 7.903-5.096 10.197-9.308 10.197-9.308l-23.416-22.077z" fill="#FFE2DF" fill-rule="nonzero"/>
<path id="Shape" d="m503.46 222.16s12.696 82.404 96.722 90.698c-0.665-3.296-0.538-6.717 0.41-9.971l10.222-35.086-68.335-13.665-39.019-31.976z" fill="#FF7DA8" fill-rule="nonzero"/>
<polyline id="Shape" points="542.38 284.98 548.79 320.1 540.88 349.04" stroke="#FF7DA8" stroke-width="1.2627"/>
<polyline id="Shape" points="569.49 284.98 563.08 320.1 570.98 349.04" stroke="#FF7DA8" stroke-width="1.2627"/>
<path id="Shape" d="m592.24 191.7c-5.98-6.413-2.776-13.04-7.047-20.949-4.27-7.912-6.802-4.783-8.817-14.486-2.501-12.024-10.188-15.033-20.439-15.033-10.25 0-17.937 3.009-20.438 15.033-2.015 9.703-4.546 6.574-8.818 14.486-4.27 7.909-1.066 14.536-7.046 20.949-5.98 6.414-4.378 15.392-4.378 15.392h40.68 40.682s1.601-8.978-4.379-15.392z" fill="#FFC29E" fill-rule="nonzero"/>
<path id="Shape" d="m538.88 168.61-7.343 38.481" stroke="#694814" stroke-width="1.2627"/>
<path id="Shape" d="m550.25 168.61-2.447 38.481" stroke="#694814" stroke-width="1.2627"/>
<path id="Shape" d="m561.62 168.61 2.447 38.481" stroke="#694814" stroke-width="1.2627"/>
<path id="Shape" d="m572.99 168.61 7.342 38.481" stroke="#694814" stroke-width="1.2627"/>
<path id="Shape" d="m582.25 327.02c-17.459-2.487-35.18-2.487-52.64 0l-1.683-11.852c18.575-2.648 37.432-2.648 56.008 0-0.561 3.952-1.123 7.902-1.685 11.852z" fill="#C73A32" fill-rule="nonzero"/>
<path id="Shape" d="m584.34 226.54-17.303 23.677-51.907-44.228s2.17-5.619 3.244-6.81c1.075-1.19 1.466-4.753-3.244-1.784 0 0-6.072-4.904-9.195-5.221-3.124-0.317-4.279 2.712-4.279 2.712s-3.962 1.025-4.43 3.982c-2.487 0.311-3.575 3.114-2.954 5.137-2.954 2.958-1.71 7.209 4.976 10.376 0 0 20.526 38.815 34.52 56.249 13.996 17.435 29.672 25.904 45.715 20.472 18.097-6.128 49.292-42.148 49.292-42.148l-44.435-22.414z" fill="#A26959" fill-rule="nonzero"/>
<path id="Shape" d="m567.03 250.22 9.63 7.835" stroke="#875547" stroke-width="1.2627"/>
<path id="Shape" d="m628.77 248.96-44.434-22.414-0.889 1.215 22.347 25.576c4.961 5.681 13.76 5.783 18.853 0.221 2.588-2.825 4.123-4.598 4.123-4.598z" fill="#875547" fill-rule="nonzero"/>
<path id="Shape" d="m631.21 171.34s17.408 13.394 25.34 38.164c0.622 1.942 0.804 4.006 0.451 6.013-0.576 3.285-2.054 8.176-5.825 10.604-5.979 3.848-6.408 4.491-8.328 10.048-1.922 5.558-2.99 7.909-7.261 10.048-4.27 2.138-6.833 10.261-6.833 10.261l-44.418-29.93s25.266-36.127 29.257-41.687c5.444-7.589 10.65-11.622 17.617-13.521z" fill="#FFC29E" fill-rule="nonzero"/>
<path id="Shape" d="m657.18 213.18c0.935-14.43-10.395-36.29-24.348-39.709" stroke="#694814" stroke-width="1.2627"/>
<path id="Shape" d="m160.42 103.1c-10.711 1.916-12.001 3.468-13.595 16.351-1.592-12.883-2.882-14.435-13.593-16.351 10.711-1.915 12.001-3.468 13.593-16.35 1.594 12.882 2.884 14.435 13.595 16.35z" fill="#E0840B" fill-rule="nonzero"/>
<path id="Shape" d="m746.42 120.61c-10.711 1.916-12.001 3.468-13.595 16.349-1.592-12.881-2.883-14.433-13.593-16.349 10.71-1.915 12.001-3.467 13.593-16.35 1.594 12.883 2.884 14.435 13.595 16.35z" fill="#E0840B" fill-rule="nonzero"/>
<path id="Shape" d="m288.73 180.25c-6.272 1.122-7.027 2.031-7.96 9.574-0.932-7.543-1.688-8.452-7.96-9.574 6.272-1.122 7.028-2.032 7.96-9.573 0.933 7.541 1.688 8.451 7.96 9.573z" fill="#E0840B" fill-rule="nonzero"/>
<path id="Shape" d="m618.78 158.43c-6.272 1.121-7.028 2.031-7.96 9.573-0.933-7.542-1.688-8.452-7.96-9.573 6.272-1.122 7.027-2.031 7.96-9.574 0.932 7.543 1.688 8.452 7.96 9.574z" fill="#E0840B" fill-rule="nonzero"/>
<path id="Shape" d="m776.01 372.56c-6.272 1.122-7.028 2.031-7.96 9.573-0.934-7.542-1.688-8.451-7.96-9.573 6.272-1.122 7.026-2.031 7.96-9.573 0.932 7.542 1.688 8.451 7.96 9.573z" fill="#E0840B" fill-rule="nonzero"/>
<path id="a" d="m26.401 344.44c-6.2719 1.123-7.0272 2.032-7.9605 9.575-0.932-7.543-1.6873-8.452-7.9592-9.575 6.2719-1.12 7.0272-2.031 7.9592-9.573 0.9333 7.542 1.6886 8.453 7.9605 9.573z" fill="#E0840B" fill-rule="nonzero"/>
</g>
<g transform="translate(582)" stroke="#FFC6BF" stroke-width="11">
<circle id="b" cx="30" cy="30" r="29.5"/>
</g>
<g transform="translate(1333 57)" fill="#FFC6BF" fill-rule="nonzero">
<circle cx="40" cy="40" r="40"/>
</g>
<g transform="translate(0 464)" fill="#FFC6BF" fill-rule="nonzero">
<g transform="translate(25.714 50.638) rotate(-90) translate(-50 -25)">
<path d="m0 0c3.3818e-15 27.614 22.386 50 50 50s50-22.386 50-50"/>
</g>
</g>
</g>
</g>
</svg>
