<?xml version="1.0" encoding="UTF-8"?>
<svg width="1440px" height="574px" viewBox="0 0 1440 574" version="1.1" xmlns="http://www.w3.org/2000/svg" xmlns:xlink="http://www.w3.org/1999/xlink">
    <!-- Generator: Sketch 50.2 (55047) - http://www.bohemiancoding.com/sketch -->
    <title>hero</title>
    <desc>Created with Sketch.</desc>
    <defs></defs>
    <g id="Page-1" stroke="none" stroke-width="1" fill="none" fill-rule="evenodd">
        <g id="hero" transform="translate(0.000000, 5.000000)">
            <g id="home_hero_background_2" transform="translate(654.000000, 137.000000)">
                <path d="M160.662,322.533 L195.058,431.661 L18.4409,431.661 C18.4409,431.661 40.6493,354.172 57.306,322.533 L160.662,322.533 Z" id="Shape" fill="#185E3D" fill-rule="nonzero"></path>
                <path d="M65.407,322.533 L43.906,431.661" id="Shape" stroke="#092E1C" stroke-width="1.06"></path>
                <path d="M86.286,338.53 L75.142,431" id="Shape" stroke="#092E1C" stroke-width="1.06"></path>
                <path d="M107,323 L107,431" id="Shape" stroke="#092E1C" stroke-width="1.06"></path>
                <path d="M129,323 L139,431" id="Shape" stroke="#092E1C" stroke-width="1.06"></path>
                <path d="M150,322.999 L170,430.999" id="Shape" stroke="#092E1C" stroke-width="1.06"></path>
                <path d="M109.769,355.554 C127.168,369.329 156.995,376.336 174.772,367.3 L160.662,322.533 L57.306,322.533 C54.617,327.642 51.783,333.951 48.92,340.93 C55.986,345.153 70.126,351.527 88.757,349.473 C96.284,348.643 103.83,350.852 109.769,355.554 Z" id="Shape" fill="#092E1C" fill-rule="nonzero"></path>
                <path d="M118.243,134.821 L121.092,148.094 C121.092,148.094 128.555,153.552 126.345,161.662 C124.135,169.773 115.296,171.159 115.296,171.159 L97.62,141.457 L118.243,134.821 Z" id="Shape" fill="#FF8D7E" fill-rule="nonzero"></path>
                <path d="M55.381,189.393 C77.243,187.215 135.357,181.428 135.357,181.428 L199.89,113.134 L231.132,31.683 C231.132,31.683 227.556,19.177 234.175,18.856 C235.777,9.236 240.956,11.053 242.877,14.26 C247.148,12.549 249.711,15.008 250.137,17.786 C252.807,16.291 255.69,18.535 254.943,22.169 C258.894,22.169 258.787,30.4 250.458,37.882 L232.142,114.56 C228.111,131.431 220.225,147.136 209.104,160.44 L166.084,211.907 L142.083,294.815 L63.926,294.815 C63.926,294.815 53.036,302.01 43.105,309.065 C33.176,316.12 19.7229,319.326 8.1906,312.592 C-6.2871,304.137 2.1051,276.677 11.0734,253.587 C20.0428,230.501 34.7611,191.445 55.381,189.393 Z" id="Shape" fill="#FF8D7E" fill-rule="nonzero"></path>
                <path d="M53.707,240.126 C53.707,240.126 43.28,266.712 40.1664,275.672 C37.0527,284.635 47.123,288.579 54.761,281.322 C60.869,275.519 76.61,281.322 76.61,281.322 L53.707,240.126 Z" id="Shape" fill="#C73A32" fill-rule="nonzero"></path>
                <path d="M32.2148,296.665 L55.598,234.028" id="Shape" stroke="#C73A32"></path>
                <path d="M73.93,218.314 L120.638,218.314 C126.019,218.314 131.034,220.949 134.151,225.34 C138.849,231.958 147.348,240.428 158.726,237.323 C158.726,237.323 171.131,251.087 154.114,268.66 L167.049,328.946 L50.152,328.946 L64.567,301.048 L50.773,244.245 C49.557,239.235 51.541,233.954 55.83,231.1 C58.994,228.993 62.734,226.004 66.081,222.017 C68.034,219.691 70.894,218.314 73.93,218.314 Z" id="Shape" fill="#FFE2DF" fill-rule="nonzero"></path>
                <path d="M92.943,320.333 C90.892,319.606 89.134,318.309 87.945,316.488 C85.222,312.316 79.973,310.841 73.847,311.76 C71.284,312.144 68.665,311.462 66.547,309.966 C64.87,308.779 62.819,308.261 60.944,308.061 L50.152,328.946 L99.924,328.946 C98.533,325.759 96.136,321.463 92.943,320.333 Z" id="Shape" fill="#FF7DA8" fill-rule="nonzero"></path>
                <path d="M96.742,280.204 C101.51,274.746 112.327,277.901 116.365,278.595 C120.404,279.29 123.481,275.216 128.482,279.276 C133.481,283.334 130.405,291.997 129.443,295.656 C128.482,299.314 133.552,306.714 126.559,309.519 C118.138,312.895 114.366,305.175 106.674,302.864 C98.981,300.554 86.123,292.36 96.742,280.204 Z" id="Shape" fill="#FF7DA8" fill-rule="nonzero"></path>
                <path d="M154.115,268.66 L149.868,248.959" id="Shape" stroke="#FF7DA8" stroke-width="1.26267"></path>
                <polygon id="Shape" fill="#FFF0F5" fill-rule="nonzero" points="129.062 182.055 131.263 226.964 122.015 226.964 116.559 183.273"></polygon>
                <path d="M155.348,274.408 C153.284,276.24 150.957,279.334 150.839,284.053 C150.626,292.603 150.198,299.053 147.209,305.342 C144.419,311.21 148.889,321.265 163.71,313.386 L155.348,274.408 Z" id="Shape" fill="#FF7DA8" fill-rule="nonzero"></path>
                <path d="M128.917,255.672 C133.748,256.09 137.091,250.118 137.997,243.199 C138.242,241.338 139.062,239.567 140.474,238.332 C141.823,237.154 142.732,235.882 143.158,234.477 C139.385,231.945 136.351,228.44 134.151,225.34 C131.034,220.949 126.019,218.315 120.638,218.315 L116.925,218.315 C119.037,229.253 124.517,255.293 128.917,255.672 Z" id="Shape" fill="#FF7DA8" fill-rule="nonzero"></path>
                <polygon id="Shape" fill="#FFF0F5" fill-rule="nonzero" points="59.83 188.949 65.421 225.476 72.414 223.338 73.6 187.578"></polygon>
                <path d="M56.064,274.746 L134.935,274.746 L117.07,159.416 C114.729,160.331 111.922,158.971 110.715,156.275 C109.475,153.507 110.395,150.398 112.77,149.331 C113.634,148.944 114.569,148.887 115.471,149.095 L114.895,145.382 C127.669,131.271 118.295,118.85 103.413,119.091 C79.599,119.475 68.647,130.102 67.51,149.405 C66.821,161.091 70.191,173.381 69.09,186.387 C67.989,199.395 58.96,209.757 58.74,221.882 C58.52,234.008 67.29,240.845 62.263,249.431 C52.345,266.371 56.064,274.746 56.064,274.746 Z" id="Shape" fill="#111C5C" fill-rule="nonzero"></path>
                <path d="M109.726,158.426 L121.438,274.746" id="Shape" stroke="#6273CC"></path>
                <path d="M98.75,158.426 L104.974,274.746" id="Shape" stroke="#6273CC"></path>
                <path d="M87.775,158.426 L88.511,274.746" id="Shape" stroke="#6273CC"></path>
                <path d="M76.799,158.426 L72.046,274.746" id="Shape" stroke="#6273CC"></path>
                <path d="M294.955,352.609 L313.468,431.661 L244.92,431.661 L236.925,403.023 L225.701,402.701 L228.753,431.661 L174.13,431.661 C174.13,431.661 161.617,391.799 179.254,346.904 L294.955,352.609 Z" id="Shape" fill="#24348C" fill-rule="nonzero"></path>
                <path d="M228.753,431.661 L225.7,402.701 L213.368,401.579 C213.368,401.579 209.792,406.762 213.943,412.218 C215.731,414.569 216.809,417.388 217.175,420.319 C217.876,425.952 218.494,431.661 218.494,431.661 L228.753,431.661 Z" id="Shape" fill="#111C5C" fill-rule="nonzero"></path>
                <path d="M210.539,401.579 L236.924,403.022" id="Shape" stroke="#6273CC" stroke-width="1.388"></path>
                <path d="M301.901,382.269 L294.956,352.608 L179.254,346.904 C178.148,349.721 177.16,352.518 176.28,355.287 L234.296,361.536 C237.549,361.886 240.713,362.778 243.672,364.176 C254.15,369.126 281.611,381.213 301.901,382.269 Z" id="Shape" fill="#111C5C" fill-rule="nonzero"></path>
                <path d="M178.638,366.144 L216.436,366.144 C216.436,366.144 213.632,391.958 196.215,391.958 C178.798,391.958 178.638,366.144 178.638,366.144 Z" id="Shape" stroke="#6273CC" stroke-width="1.388"></path>
                <path d="M247.06,366.144 L284.858,366.144 C284.858,366.144 282.054,391.958 264.637,391.958 C247.22,391.958 247.06,366.144 247.06,366.144 Z" id="Shape" stroke="#6273CC" stroke-width="1.388"></path>
                <path d="M189.627,195.687 L118.627,169.044 L72.183,108.276 C70.823,106.497 70.172,104.28 70.359,102.048 C70.548,99.789 70.738,96.732 70.699,93.914 C70.626,88.611 70.708,85.844 68.48,86.635 C66.202,87.446 67.361,92.5 65.852,95.113 C65.852,95.113 61.024,85.189 62.753,77.36 C63.032,76.093 61.769,75.018 60.545,75.442 C59.417,75.832 58.172,76.918 57.306,79.54 C53.92,77.787 52.348,82.409 52.612,84.416 C48.159,82.623 48.777,91.429 49.612,93.192 C49.612,93.192 47.644,93.814 48.408,99.522 C49.042,104.267 52.197,110.193 56.225,113.462 C56.225,113.462 76.853,164.366 85.967,182.833 C95.08,201.3 187.517,245.668 187.517,245.668 L189.627,195.687 Z" id="Shape" fill="#D08A77" fill-rule="nonzero"></path>
                <path d="M57.306,79.54 C57.306,79.54 57.831,88.244 60.675,95.515" id="Shape" stroke="#C73A32" stroke-width="1.08667"></path>
                <path d="M52.612,84.416 C52.57,87.848 54.723,94.763 56.036,97.568" id="Shape" stroke="#C73A32" stroke-width="1.08667"></path>
                <path d="M49.611,93.192 C50.497,95.82 52.56,100.165 52.56,100.165" id="Shape" stroke="#C73A32" stroke-width="1.08667"></path>
                <path d="M149.283,194.191 C151.703,202.356 154.838,210.786 155.956,221.416 C156.539,226.969 159.979,231.816 164.937,234.37 C178.078,241.137 187.516,245.668 187.516,245.668 L189.627,195.686 L151.63,181.427 C149.003,184.892 147.899,189.521 149.283,194.191 Z" id="Shape" fill="#C73A32" fill-rule="nonzero"></path>
                <path d="M232.688,143.27 C232.688,143.27 239.299,150.899 239.919,159.239 C240.539,167.577 244.078,168.959 243.109,175.383 C242.4,180.085 238.079,182.125 238.079,182.125 L235.768,205.456 L207.323,203.149 L214.221,176.27 L232.688,143.27 Z" id="Shape" fill="#D08A77" fill-rule="nonzero"></path>
                <path d="M187.424,192.384 L204.24,198.433 C204.24,198.433 218.064,191.858 242.357,200.357 L272.65,200.357 L294.954,352.608 L175.468,352.608 C175.468,352.608 181.07,333.008 185.996,322.988 C178.293,298.59 162.445,241.563 162.445,241.563 C162.445,241.563 157.862,219.53 170.253,198.581 C173.753,192.664 180.96,190.059 187.424,192.384 Z" id="Shape" fill="#FFC29E" fill-rule="nonzero"></path>
                <path d="M222.879,196.156 C222.088,196.099 221.325,196.064 220.581,196.04 L234.636,352.608 L236.924,352.608 L222.879,196.156 Z" id="Shape" fill="#24348C" fill-rule="nonzero"></path>
                <polygon id="Shape" fill="#24348C" fill-rule="nonzero" points="244.811 200.357 242.524 200.357 256.192 352.608 258.48 352.608"></polygon>
                <path d="M179.388,191.916 C178.628,192.092 177.884,192.328 177.164,192.623 L191.526,352.609 L193.814,352.609 L179.388,191.916 Z" id="Shape" fill="#24348C" fill-rule="nonzero"></path>
                <polygon id="Shape" fill="#24348C" fill-rule="nonzero" points="199.074 196.574 213.08 352.609 215.368 352.609 201.437 197.424"></polygon>
                <polygon id="Shape" fill="#24348C" fill-rule="nonzero" points="266.367 200.357 264.08 200.357 277.747 352.608 280.034 352.608"></polygon>
                <path d="M303.532,240.521 C303.532,240.521 284.583,200.357 272.65,200.357 C263.124,200.357 253.749,215.874 259.726,232.908 C262.095,239.66 277.646,271.3 288.4,292.94 C294.287,304.782 308.166,310.246 320.534,305.598 C331.117,301.62 337.876,291.206 337.206,279.91 L329.432,148.839 C329.432,148.839 331.059,136.056 329.719,133.485 C327.92,130.024 325.255,131.376 325.255,131.376 C325.255,131.376 322.663,127.717 318.99,130.095 C317.046,128.148 312.726,129.086 311.861,130.672 C309.413,129.952 307.324,131.376 306.965,134.132 C306.77,135.625 306.965,138.891 307.973,140.188 C305.74,143.504 307.262,150.023 313.599,150.666 L303.532,240.521 Z" id="Shape" fill="#D08A77" fill-rule="nonzero"></path>
                <path d="M307.985,140.212 L313.794,137.352" id="Shape" stroke="#C73A32" stroke-width="1.136"></path>
                <path d="M309.917,133.772 L310.89,138.782" id="Shape" stroke="#C73A32" stroke-width="1.136"></path>
                <path d="M221.488,137.77 C239.483,139.9 235.754,156.221 231.634,163.319 C231.634,163.319 226.804,160.125 225.741,164.915 C224.677,169.705 227.424,172.012 231.634,172.545 C231.634,172.545 229.571,190.135 217.411,190.135 C207.841,190.135 198.489,180.662 196.854,164.422 C194.904,145.071 208.083,136.184 221.488,137.77 Z" id="Shape" fill="#A6302A" fill-rule="nonzero"></path>
                <path d="M217.986,150.438 C217.986,145.605 216.076,141.262 213.037,138.199 C203.124,140.484 195.323,149.224 196.854,164.421 C196.914,165.027 196.989,165.62 197.071,166.208 C198.73,166.853 200.511,167.222 202.376,167.222 C210.997,167.222 217.986,159.707 217.986,150.438 Z" id="Shape" fill="#7A231F" fill-rule="nonzero"></path>
                <path d="M215.849,147.637 C215.849,156.067 209.494,162.901 201.655,162.901 C193.816,162.901 187.46,156.067 187.46,147.637 C187.46,139.207 193.816,132.373 201.655,132.373 C209.494,132.373 215.849,139.207 215.849,147.637 Z" id="Shape" fill="#A6302A" fill-rule="nonzero"></path>
                <path d="M670.288,126.682 C670.288,126.682 656.436,129.329 656.433,119.867 C656.432,111.744 664.122,111.53 664.122,111.53 C664.122,111.53 662.591,103.751 670.822,101.162 C678.295,98.81 682.113,106.719 682.113,106.719 C682.113,106.719 691.216,104.048 691.643,114.522 C698.37,113.454 701.186,120.712 699.506,124.722 C706.051,125.523 706.164,137.344 698.796,139.75 L691.429,148.942 L681.499,151.132 C681.499,151.132 669.166,133.496 670.288,126.682 Z" id="Shape" fill="#111C5C" fill-rule="nonzero"></path>
                <path d="M672.744,165.51 L667.299,149.904 C667.299,149.904 659.611,151.08 658.65,143.597 C657.689,136.116 664.951,131.197 664.951,131.197 L668.292,121.043 C668.292,121.043 671.569,121.899 674.132,121.043 C673.171,125.64 678.617,131.411 682.353,133.015 C686.198,130.557 689.401,131.519 689.401,135.259 C689.401,139 686.198,143.063 681.499,142.742 C683.635,149.582 691.429,148.942 691.429,148.942 L705.662,165.51 L672.744,165.51 Z" id="Shape" fill="#A26959" fill-rule="nonzero"></path>
                <path d="M672.744,165.51 L705.662,165.51 C705.662,165.51 698.556,157.237 695.322,153.474 C689.265,151.611 687.799,158.509 670.858,160.106 C671.569,162.197 672.744,165.51 672.744,165.51 Z" id="Shape" fill="#875547" fill-rule="nonzero"></path>
                <path d="M667.299,149.904 C667.299,149.904 672.424,150.652 679.044,145.201" id="Shape" stroke="#875547" stroke-width="1.26267"></path>
                <path d="M614.594,317.011 L613.271,431.882 L675.423,431.882 L674.085,385.669 L686.704,384.102 L696.911,431.882 L760.136,431.882 L747.162,370.313 C747.162,370.313 753.113,347.723 745.509,317.011 L614.594,317.011 Z" id="Shape" fill="#24348C" fill-rule="nonzero"></path>
                <path d="M686.704,336.322 C686.704,336.322 716.287,348.27 740.1,343.177 C745.396,342.045 748.977,337.022 748.272,331.648 C747.668,327.041 746.778,322.14 745.509,317.011 L614.594,317.011 L614.47,327.668 L686.704,336.322 Z" id="Shape" fill="#111C5C" fill-rule="nonzero"></path>
                <path d="M691.687,370.938 L666.673,391.872" id="Shape" stroke="#6273CC" stroke-width="1.28267"></path>
                <path d="M631.317,340.277 L666.673,340.277 C666.673,340.277 671.798,365.503 648.995,365.503 C626.191,365.503 631.317,340.277 631.317,340.277 Z" id="Shape" stroke="#6273CC" stroke-width="1.28267"></path>
                <path d="M702.516,340.277 L737.873,340.277 C737.873,340.277 742.997,365.503 720.194,365.503 C697.391,365.503 702.516,340.277 702.516,340.277 Z" id="Shape" stroke="#6273CC" stroke-width="1.28267"></path>
                <path d="M620.425,317.011 L622.56,431.563" id="Shape" stroke="#6273CC" stroke-width="1.28267"></path>
                <path d="M775.352,230.269 C775.352,230.269 780.798,262.567 783.36,280.846 C785.923,299.123 775.352,310.988 750.688,309.064 L732.826,232.926 L775.352,230.269 Z" id="Shape" fill="#A26959" fill-rule="nonzero"></path>
                <path d="M775.352,230.269 L732.826,232.926 L739.848,262.856 L778.318,248.225 C776.673,238.098 775.352,230.269 775.352,230.269 Z" id="Shape" fill="#875547" fill-rule="nonzero"></path>
                <path d="M749.178,296.452 L746.649,274.218 C751.153,261.819 752.221,243.861 752.221,243.861 L785.069,243.861 C785.069,243.861 782.933,227.613 775.887,220.559 C778.45,211.58 772.683,201.318 765.209,193.809 C764.141,182.238 756.668,174.169 745.777,171.389 C745.777,171.389 730.251,168.125 712.032,166.096 L711.449,161.716 L667.886,161.716 L668.395,165.367 C647.654,167.192 631.209,171.336 631.209,171.336 L611.67,298.376 C609.535,305.645 604.623,325.525 618.716,325.525 L719.939,325.525 C739.156,325.525 752.396,325.312 754.751,313.184 C757.105,301.057 749.178,296.452 749.178,296.452 Z" id="Shape" fill="#FFC29E" fill-rule="nonzero"></path>
                <path d="M768.051,243.862 C764.955,228.835 758.607,200.295 753.348,191.269 C755.421,200.193 752.221,243.862 752.221,243.862 L768.051,243.862 Z" id="Shape" fill="#AD6708" fill-rule="nonzero"></path>
                <path d="M657.001,215.514 C657.001,215.514 657.796,222.644 654.754,229.056 C651.711,235.47 651.069,245.024 651.069,245.024 L629.928,226.545 L657.001,215.514 Z" id="Shape" fill="#AD6708" fill-rule="nonzero"></path>
                <polygon id="Shape" fill="#185E3D" fill-rule="nonzero" points="488.023 431.661 306.729 431.661 315.695 381.217 479.057 381.217"></polygon>
                <path d="M479.057,381.216 L319.979,381.216 L316.43,394.871 C316.43,394.871 324.203,403.165 339.542,404.232 C354.879,405.298 362.312,399.987 377.969,401.074 C393.628,402.161 396.421,408.183 413.037,409.337 C429.654,410.491 428.503,403.941 443.225,404.643 C457.945,405.343 458.141,411.786 474.074,413.537 C478.289,413.999 481.829,413.867 484.784,413.437 L479.057,381.216 Z" id="Shape" fill="#092E1C" fill-rule="nonzero"></path>
                <path d="M233.695,262.032 L191.627,202.815 C191.627,202.815 194.722,190.309 187.783,188.813 C187.783,188.813 187.516,182.451 180.735,183.36 C176.532,183.924 171.384,185.23 167.402,186.331 C166.226,186.656 165.713,188.028 166.379,189.051 C167.41,190.304 167.988,191.864 168.05,193.486 C168.215,197.917 169.199,206.975 174.436,208.266 L202.197,296.665 L233.695,262.032 Z" id="Shape" fill="#FF8D7E" fill-rule="nonzero"></path>
                <path d="M221.077,244.272 C208.554,252.865 209.729,280.905 199.345,287.584 L202.197,296.666 L233.695,262.032 L221.077,244.272 Z" id="Shape" fill="#C73A32" fill-rule="nonzero"></path>
                <path d="M187.783,188.813 L188.908,194.279" id="Shape" stroke="#C73A32" stroke-width="1.26267"></path>
                <path d="M183.626,194.279 L180.9,183.346" id="Shape" stroke="#C73A32" stroke-width="1.26267"></path>
                <path d="M178.491,195.274 L175.764,184.34" id="Shape" stroke="#C73A32" stroke-width="1.26267"></path>
                <path d="M173.858,196.444 L171.13,185.51" id="Shape" stroke="#C73A32" stroke-width="1.26267"></path>
                <path d="M376.126,146.459 C378.512,149.975 378.51,154.142 376.12,155.767 C373.731,157.394 369.858,155.862 367.472,152.346 C365.086,148.831 365.088,144.663 367.478,143.036 C369.868,141.412 373.74,142.943 376.126,146.459 Z" id="Shape" fill="#FF8D7E" fill-rule="nonzero"></path>
                <path d="M498.705,98.917 L539.177,32.195 C540.68,29.716 541.159,26.76 540.559,23.923 C539.659,19.677 538.784,13.18 540.585,9.002 C542.802,3.865 546.644,6.242 546.644,6.242 C546.644,6.242 548.982,-0.378 553.051,1.005 C558.711,2.929 565.657,6.029 567.045,12.335 C568.285,17.968 563.982,24.454 557.799,30.041 C556.308,31.388 555.207,33.113 554.685,35.054 L533.713,112.892 L498.705,98.917 Z" id="Shape" fill="#FF8D7E" fill-rule="nonzero"></path>
                <path d="M506.381,88.623 C505.838,88.626 505.304,88.728 504.781,88.899 L498.705,98.916 L533.714,112.891 L537.306,99.561 C538.076,96.696 535.486,94.098 532.608,94.8 C515.975,98.857 517.285,88.574 506.381,88.623 Z" id="Shape" fill="#C73A32" fill-rule="nonzero"></path>
                <path d="M377.271,163.748 L371.799,199.394 L409.277,188.812 L406.346,157.707 C406.346,157.707 410.443,155.776 411.472,150.171 C412.5,144.565 408.167,135.507 408.167,135.507 L377.271,163.748 Z" id="Shape" fill="#FF8D7E" fill-rule="nonzero"></path>
                <path d="M348.049,190.737 C377.172,183.602 459.199,155.143 459.199,155.143 L497.638,99.985 L532.551,113.915 L475.214,264.171 L487.386,391.478 C487.386,391.478 481.301,398.533 465.285,397.892 C449.269,397.249 448.629,390.837 433.894,391.157 C419.159,391.478 420.761,397.933 404.104,397.933 C387.448,397.933 384.244,392.12 368.548,392.12 C352.853,392.12 345.806,397.933 330.431,397.933 C315.056,397.933 306.727,390.195 306.727,390.195 L328.83,272.187 C328.83,272.187 282.704,316.12 268.609,327.664 C254.516,339.208 229.638,341.132 213.835,312.058 C213.835,312.058 267.542,248.288 279.219,232.573 C297.438,208.053 317.939,198.112 348.049,190.737 Z" id="Shape" fill="#3A55D1" fill-rule="nonzero"></path>
                <path d="M226.235,327.686 L247.078,274.746 L242.982,277.204 C227.767,295.515 213.835,312.059 213.835,312.059 C217.551,318.895 221.773,323.999 226.235,327.686 Z" id="Shape" fill="#111C5C" fill-rule="nonzero"></path>
                <polygon id="Shape" fill="#111C5C" fill-rule="nonzero" points="497.637 99.986 487.335 114.77 522.129 141.23 532.551 113.916"></polygon>
                <path d="M475.214,264.171 L483.148,243.38 C466.902,252.778 436.998,269.318 436.998,269.318 L400.109,223.334 L373.062,240.763 C373.062,240.763 374.551,245.324 381.391,251.778 C388.23,258.234 386.979,262.635 388.892,267.557 C390.801,272.476 397.054,276.247 401.049,280.468 C405.045,284.69 404.994,293.161 411.688,301.579 L411.89,301.833 C422.456,315.146 440.902,319.213 456.076,311.576 L478.66,300.21 L475.214,264.171 Z" id="Shape" fill="#111C5C" fill-rule="nonzero"></path>
                <polygon id="Shape" fill="#111C5C" fill-rule="nonzero" points="374.072 306.562 374.072 299.788 380.838 299.788 380.838 298.028 374.072 298.028 374.072 291.254 372.314 291.254 372.314 298.028 365.549 298.028 365.549 299.788 372.314 299.788 372.314 306.562"></polygon>
                <polygon id="Shape" fill="#111C5C" fill-rule="nonzero" points="386.471 329.072 386.471 322.298 393.236 322.298 393.236 320.538 386.471 320.538 386.471 313.764 384.712 313.764 384.712 320.538 377.946 320.538 377.946 322.298 384.712 322.298 384.712 329.072"></polygon>
                <polygon id="Shape" fill="#111C5C" fill-rule="nonzero" points="398.868 306.562 398.868 299.788 405.635 299.788 405.635 298.028 398.868 298.028 398.868 291.254 397.11 291.254 397.11 298.028 390.345 298.028 390.345 299.788 397.11 299.788 397.11 306.562"></polygon>
                <polygon id="Shape" fill="#111C5C" fill-rule="nonzero" points="336.878 329.072 336.878 322.298 343.643 322.298 343.643 320.538 336.878 320.538 336.878 313.764 335.12 313.764 335.12 320.538 328.354 320.538 328.354 322.298 335.12 322.298 335.12 329.072"></polygon>
                <polygon id="Shape" fill="#111C5C" fill-rule="nonzero" points="473.258 306.562 473.258 299.788 478.62 299.788 478.452 298.028 473.258 298.028 473.258 291.254 471.499 291.254 471.499 298.028 464.733 298.028 464.733 299.788 471.499 299.788 471.499 306.562"></polygon>
                <polygon id="Shape" fill="#111C5C" fill-rule="nonzero" points="349.276 306.562 349.276 299.788 356.042 299.788 356.042 298.028 349.276 298.028 349.276 291.254 347.518 291.254 347.518 298.028 340.753 298.028 340.753 299.788 347.518 299.788 347.518 306.562"></polygon>
                <polygon id="Shape" fill="#111C5C" fill-rule="nonzero" points="460.86 329.072 460.86 322.298 467.625 322.298 467.625 320.538 460.86 320.538 460.86 313.764 459.1 313.764 459.1 320.538 452.335 320.538 452.335 322.298 459.1 322.298 459.1 329.072"></polygon>
                <polygon id="Shape" fill="#111C5C" fill-rule="nonzero" points="448.461 306.562 448.461 299.788 455.227 299.788 455.227 298.028 448.461 298.028 448.461 291.254 446.702 291.254 446.702 298.028 439.936 298.028 439.936 299.788 446.702 299.788 446.702 306.562"></polygon>
                <polygon id="Shape" fill="#111C5C" fill-rule="nonzero" points="423.665 306.562 423.665 299.788 430.431 299.788 430.431 298.028 423.665 298.028 423.665 291.254 421.907 291.254 421.907 298.028 415.141 298.028 415.141 299.788 421.907 299.788 421.907 306.562"></polygon>
                <polygon id="Shape" fill="#111C5C" fill-rule="nonzero" points="411.267 329.072 411.267 322.298 418.032 322.298 418.032 320.538 411.267 320.538 411.267 313.764 409.508 313.764 409.508 320.538 402.743 320.538 402.743 322.298 409.508 322.298 409.508 329.072"></polygon>
                <polygon id="Shape" fill="#111C5C" fill-rule="nonzero" points="436.063 329.072 436.063 322.298 442.829 322.298 442.829 320.538 436.063 320.538 436.063 313.764 434.305 313.764 434.305 320.538 427.538 320.538 427.538 322.298 434.305 322.298 434.305 329.072"></polygon>
                <polygon id="Shape" fill="#111C5C" fill-rule="nonzero" points="361.674 329.072 361.674 322.298 368.439 322.298 368.439 320.538 361.674 320.538 361.674 313.764 359.916 313.764 359.916 320.538 353.15 320.538 353.15 322.298 359.916 322.298 359.916 329.072"></polygon>
                <polygon id="Shape" fill="#111C5C" fill-rule="nonzero" points="471.499 199.269 471.499 206.043 464.733 206.043 464.733 207.803 471.499 207.803 471.499 214.577 473.258 214.577 473.258 207.803 480.024 207.803 480.024 206.043 473.258 206.043 473.258 199.269"></polygon>
                <polygon id="Shape" fill="#111C5C" fill-rule="nonzero" points="459.1 221.78 459.1 228.553 452.335 228.553 452.335 230.313 459.1 230.313 459.1 237.087 460.86 237.087 460.86 230.313 467.625 230.313 467.625 228.553 460.86 228.553 460.86 221.78"></polygon>
                <polygon id="Shape" fill="#111C5C" fill-rule="nonzero" points="446.703 199.269 446.703 206.043 439.936 206.043 439.936 207.803 446.703 207.803 446.703 214.577 448.461 214.577 448.461 207.803 455.227 207.803 455.227 206.043 448.461 206.043 448.461 199.269"></polygon>
                <polygon id="Shape" fill="#111C5C" fill-rule="nonzero" points="483.897 175.786 483.897 182.56 477.131 182.56 477.131 184.32 483.897 184.32 483.897 191.094 485.655 191.094 485.655 184.32 492.422 184.32 492.422 182.56 485.655 182.56 485.655 175.786"></polygon>
                <polygon id="Shape" fill="#111C5C" fill-rule="nonzero" points="473.258 260.569 473.258 253.796 479.174 253.796 479.846 252.036 473.258 252.036 473.258 245.262 471.499 245.262 471.499 252.036 464.733 252.036 464.733 253.796 471.499 253.796 471.499 260.569"></polygon>
                <polygon id="Shape" fill="#111C5C" fill-rule="nonzero" points="250.091 306.562 250.091 299.788 256.857 299.788 256.857 298.028 250.091 298.028 250.091 291.254 248.333 291.254 248.333 298.028 241.568 298.028 241.568 299.788 248.333 299.788 248.333 306.562"></polygon>
                <polygon id="Shape" fill="#111C5C" fill-rule="nonzero" points="434.305 175.786 434.305 182.56 427.539 182.56 427.539 184.32 434.305 184.32 434.305 191.094 436.063 191.094 436.063 184.32 442.829 184.32 442.829 182.56 436.063 182.56 436.063 175.786"></polygon>
                <polygon id="Shape" fill="#111C5C" fill-rule="nonzero" points="372.314 199.269 372.314 206.043 365.549 206.043 365.549 207.803 372.314 207.803 372.314 214.577 374.072 214.577 374.072 207.803 380.839 207.803 380.839 206.043 374.072 206.043 374.072 199.269"></polygon>
                <polygon id="Shape" fill="#111C5C" fill-rule="nonzero" points="384.712 221.78 384.712 228.553 377.946 228.553 377.946 230.313 384.712 230.313 384.712 237.087 386.471 237.087 386.471 230.313 393.236 230.313 393.236 228.553 386.471 228.553 386.471 221.78"></polygon>
                <polygon id="Shape" fill="#111C5C" fill-rule="nonzero" points="397.11 199.269 397.11 206.043 390.345 206.043 390.345 207.803 397.11 207.803 397.11 214.577 398.869 214.577 398.869 207.803 405.635 207.803 405.635 206.043 398.869 206.043 398.869 199.269"></polygon>
                <polygon id="Shape" fill="#111C5C" fill-rule="nonzero" points="421.907 199.269 421.907 206.043 415.141 206.043 415.141 207.803 421.907 207.803 421.907 214.577 423.665 214.577 423.665 207.803 430.431 207.803 430.431 206.043 423.665 206.043 423.665 199.269"></polygon>
                <polygon id="Shape" fill="#111C5C" fill-rule="nonzero" points="409.508 175.786 409.508 182.56 402.743 182.56 402.743 184.32 409.508 184.32 409.508 191.094 411.267 191.094 411.267 184.32 418.032 184.32 418.032 182.56 411.267 182.56 411.267 175.786"></polygon>
                <polygon id="Shape" fill="#111C5C" fill-rule="nonzero" points="398.868 352.554 398.868 345.781 405.635 345.781 405.635 344.02 398.868 344.02 398.868 337.247 397.11 337.247 397.11 344.02 390.345 344.02 390.345 345.781 397.11 345.781 397.11 352.554"></polygon>
                <polygon id="Shape" fill="#111C5C" fill-rule="nonzero" points="460.86 375.065 460.86 368.291 467.625 368.291 467.625 366.531 460.86 366.531 460.86 359.757 459.1 359.757 459.1 366.531 452.335 366.531 452.335 368.291 459.1 368.291 459.1 375.065"></polygon>
                <polygon id="Shape" fill="#111C5C" fill-rule="nonzero" points="448.461 352.554 448.461 345.781 455.227 345.781 455.227 344.02 448.461 344.02 448.461 337.247 446.702 337.247 446.702 344.02 439.936 344.02 439.936 345.781 446.702 345.781 446.702 352.554"></polygon>
                <polygon id="Shape" fill="#111C5C" fill-rule="nonzero" points="473.258 352.554 473.258 345.781 480.024 345.781 480.024 344.02 473.258 344.02 473.258 337.247 471.499 337.247 471.499 344.02 464.733 344.02 464.733 345.781 471.499 345.781 471.499 352.554"></polygon>
                <polygon id="Shape" fill="#111C5C" fill-rule="nonzero" points="442.829 366.531 436.063 366.531 436.063 359.757 434.305 359.757 434.305 366.531 427.538 366.531 427.538 368.291 434.305 368.291 434.305 375.065 436.063 375.065 436.063 368.291 442.829 368.291"></polygon>
                <polygon id="Shape" fill="#111C5C" fill-rule="nonzero" points="423.665 352.554 423.665 345.781 430.431 345.781 430.431 344.02 423.665 344.02 423.665 337.247 421.907 337.247 421.907 344.02 415.141 344.02 415.141 345.781 421.907 345.781 421.907 352.554"></polygon>
                <polygon id="Shape" fill="#111C5C" fill-rule="nonzero" points="411.267 375.065 411.267 368.291 418.032 368.291 418.032 366.531 411.267 366.531 411.267 359.757 409.508 359.757 409.508 366.531 402.743 366.531 402.743 368.291 409.508 368.291 409.508 375.065"></polygon>
                <path d="M430.431,390.014 L423.665,390.014 L423.665,383.24 L421.907,383.24 L421.907,390.014 L415.141,390.014 L415.141,391.774 L421.907,391.774 L421.907,393.651 C422.471,393.401 423.052,393.157 423.665,392.926 L423.665,391.774 L427.73,391.774 C428.555,391.612 429.45,391.476 430.431,391.372 L430.431,390.014 Z" id="Shape" fill="#111C5C" fill-rule="nonzero"></path>
                <polygon id="Shape" fill="#111C5C" fill-rule="nonzero" points="485.655 375.065 485.655 373.371 484.354 359.757 483.897 359.757 483.897 366.531 477.131 366.531 477.131 368.291 483.897 368.291 483.897 375.065"></polygon>
                <path d="M448.461,393.898 L448.461,391.773 L455.227,391.773 L455.227,390.013 L448.461,390.013 L448.461,383.239 L446.702,383.239 L446.702,390.013 L439.936,390.013 L439.936,391.462 C440.589,391.549 441.21,391.654 441.803,391.773 L446.702,391.773 L446.702,393.209 C447.296,393.43 447.88,393.662 448.461,393.898 Z" id="Shape" fill="#111C5C" fill-rule="nonzero"></path>
                <polygon id="Shape" fill="#111C5C" fill-rule="nonzero" points="521.092 109.344 521.092 114.057 514.326 114.057 514.326 115.816 521.092 115.816 521.092 122.59 522.85 122.59 522.85 115.816 529.616 115.816 529.616 114.057 522.85 114.057 522.85 110.045"></polygon>
                <path d="M225.295,299.788 L232.061,299.788 L232.061,298.028 L225.61,298.028 C224.895,298.882 224.203,299.708 223.537,300.503 L223.537,306.562 L225.295,306.562 L225.295,299.788 Z" id="Shape" fill="#111C5C" fill-rule="nonzero"></path>
                <polygon id="Shape" fill="#111C5C" fill-rule="nonzero" points="496.295 153.276 496.295 160.05 489.53 160.05 489.53 161.81 496.295 161.81 496.295 168.584 498.053 168.584 498.053 161.81 504.819 161.81 504.819 160.05 498.053 160.05 498.053 153.276"></polygon>
                <polygon id="Shape" fill="#111C5C" fill-rule="nonzero" points="312.082 368.291 318.847 368.291 318.847 366.531 312.082 366.531 312.082 361.605 310.324 370.993 310.324 375.065 312.082 375.065"></polygon>
                <path d="M446.703,161.81 L446.703,168.584 L448.461,168.584 L448.461,161.81 L455.227,161.81 L455.227,160.05 L448.461,160.05 L448.461,158.834 C447.893,159.027 447.306,159.229 446.703,159.434 L446.703,160.05 L444.902,160.05 C443.343,160.581 441.684,161.145 439.936,161.739 L439.936,161.81 L446.703,161.81 Z" id="Shape" fill="#111C5C" fill-rule="nonzero"></path>
                <polygon id="Shape" fill="#111C5C" fill-rule="nonzero" points="471.499 153.276 471.499 160.05 464.733 160.05 464.733 161.81 471.499 161.81 471.499 168.584 473.258 168.584 473.258 161.81 480.024 161.81 480.024 160.05 473.258 160.05 473.258 153.276"></polygon>
                <polygon id="Shape" fill="#111C5C" fill-rule="nonzero" points="324.48 352.554 324.48 345.781 331.246 345.781 331.246 344.02 324.48 344.02 324.48 337.247 322.721 337.247 322.721 344.02 315.956 344.02 315.956 345.781 322.721 345.781 322.721 352.554"></polygon>
                <polygon id="Shape" fill="#111C5C" fill-rule="nonzero" points="459.1 175.786 459.1 182.56 452.335 182.56 452.335 184.32 459.1 184.32 459.1 191.094 460.86 191.094 460.86 184.32 467.625 184.32 467.625 182.56 460.86 182.56 460.86 175.786"></polygon>
                <polygon id="Shape" fill="#111C5C" fill-rule="nonzero" points="349.276 352.554 349.276 345.781 356.042 345.781 356.042 344.02 349.276 344.02 349.276 337.247 347.518 337.247 347.518 344.02 340.753 344.02 340.753 345.781 347.518 345.781 347.518 352.554"></polygon>
                <polygon id="Shape" fill="#111C5C" fill-rule="nonzero" points="386.471 375.065 386.471 368.291 393.236 368.291 393.236 366.531 386.471 366.531 386.471 359.757 384.712 359.757 384.712 366.531 377.946 366.531 377.946 368.291 384.712 368.291 384.712 375.065"></polygon>
                <polygon id="Shape" fill="#111C5C" fill-rule="nonzero" points="374.072 352.554 374.072 345.781 380.838 345.781 380.838 344.02 374.072 344.02 374.072 337.247 372.314 337.247 372.314 344.02 365.549 344.02 365.549 345.781 372.314 345.781 372.314 352.554"></polygon>
                <polygon id="Shape" fill="#111C5C" fill-rule="nonzero" points="460.86 283.079 460.86 276.306 467.625 276.306 467.625 274.546 460.86 274.546 460.86 267.772 459.1 267.772 459.1 274.546 452.335 274.546 452.335 276.306 459.1 276.306 459.1 283.079"></polygon>
                <polygon id="Shape" fill="#111C5C" fill-rule="nonzero" points="336.878 375.065 336.878 368.291 343.643 368.291 343.643 366.531 336.878 366.531 336.878 359.757 335.12 359.757 335.12 366.531 328.354 366.531 328.354 368.291 335.12 368.291 335.12 375.065"></polygon>
                <polygon id="Shape" fill="#111C5C" fill-rule="nonzero" points="361.674 375.065 361.674 368.291 368.439 368.291 368.439 366.531 361.674 366.531 361.674 359.757 359.916 359.757 359.916 366.531 353.15 366.531 353.15 368.291 359.916 368.291 359.916 375.065"></polygon>
                <polygon id="Shape" fill="#111C5C" fill-rule="nonzero" points="483.897 129.794 483.897 136.567 477.131 136.567 477.131 138.327 483.897 138.327 483.897 145.1 485.655 145.1 485.655 138.327 492.422 138.327 492.422 136.567 485.655 136.567 485.655 129.794"></polygon>
                <polygon id="Shape" fill="#111C5C" fill-rule="nonzero" points="324.48 299.788 331.246 299.788 331.246 298.028 324.48 298.028 324.48 295.409 322.721 304.796 322.721 306.562 324.48 306.562"></polygon>
                <path d="M285.528,237.087 L287.286,237.087 L287.286,230.313 L294.051,230.313 L294.051,228.553 L287.286,228.553 L287.286,222.827 C286.697,223.465 286.11,224.114 285.528,224.774 L285.528,228.553 L282.338,228.553 C281.869,229.133 281.401,229.715 280.937,230.313 L285.528,230.313 L285.528,237.087 Z" id="Shape" fill="#111C5C" fill-rule="nonzero"></path>
                <path d="M306.45,207.803 L306.45,206.875 C305.96,207.18 305.47,207.486 304.985,207.803 L306.45,207.803 Z" id="Shape" fill="#111C5C" fill-rule="nonzero"></path>
                <path d="M384.712,179.962 L384.712,182.56 L377.946,182.56 L377.946,184.32 L384.712,184.32 L384.712,191.094 L386.471,191.094 L386.471,184.32 L393.236,184.32 L393.236,182.56 L386.471,182.56 L386.471,179.403 C385.883,179.59 385.297,179.776 384.712,179.962 Z" id="Shape" fill="#111C5C" fill-rule="nonzero"></path>
                <path d="M423.665,168.584 L423.665,167.226 C423.083,167.419 422.495,167.616 421.907,167.813 L421.907,168.584 L423.665,168.584 Z" id="Shape" fill="#111C5C" fill-rule="nonzero"></path>
                <polygon id="Shape" fill="#111C5C" fill-rule="nonzero" points="501.928 184.32 505.685 184.32 506.357 182.56 501.928 182.56"></polygon>
                <path d="M359.916,191.094 L361.674,191.094 L361.674,187.016 C361.08,187.189 360.495,187.358 359.916,187.525 L359.916,191.094 Z" id="Shape" fill="#111C5C" fill-rule="nonzero"></path>
                <polygon id="Shape" fill="#111C5C" fill-rule="nonzero" points="409.508 221.78 409.508 228.553 402.743 228.553 402.743 230.313 409.508 230.313 409.508 237.087 411.267 237.087 411.267 230.313 418.032 230.313 418.032 228.553 411.267 228.553 411.267 221.78"></polygon>
                <path d="M301.401,298.028 L299.683,298.028 L299.683,291.254 L297.925,291.254 L297.925,298.028 L291.16,298.028 L291.16,299.788 L297.925,299.788 L297.925,301.264 C299.088,300.183 300.249,299.103 301.401,298.028 Z" id="Shape" fill="#111C5C" fill-rule="nonzero"></path>
                <polygon id="Shape" fill="#111C5C" fill-rule="nonzero" points="434.305 221.78 434.305 228.553 427.539 228.553 427.539 230.313 434.305 230.313 434.305 237.087 436.063 237.087 436.063 230.313 442.829 230.313 442.829 228.553 436.063 228.553 436.063 221.78"></polygon>
                <polygon id="Shape" fill="#111C5C" fill-rule="nonzero" points="483.897 221.78 483.897 228.553 477.131 228.553 477.131 230.313 483.897 230.313 483.897 237.087 485.55 237.087 485.655 236.809 485.655 230.313 488.134 230.313 488.806 228.553 485.655 228.553 485.655 221.78"></polygon>
                <polygon id="Shape" fill="#111C5C" fill-rule="nonzero" points="496.295 206.043 489.53 206.043 489.53 207.803 496.295 207.803 496.295 208.928 498.053 204.32 498.053 199.269 496.295 199.269"></polygon>
                <polygon id="Shape" fill="#111C5C" fill-rule="nonzero" points="480.604 320.538 477.131 320.538 477.131 322.298 480.772 322.298"></polygon>
                <path d="M349.276,395.05 L349.276,391.774 L356.042,391.774 L356.042,390.013 L349.276,390.013 L349.276,383.24 L347.518,383.24 L347.518,390.013 L340.753,390.013 L340.753,391.774 L347.518,391.774 L347.518,395.5 C348.105,395.351 348.69,395.2 349.276,395.05 Z" id="Shape" fill="#111C5C" fill-rule="nonzero"></path>
                <path d="M372.314,392.242 C372.918,392.281 373.506,392.33 374.072,392.387 L374.072,391.773 L380.839,391.773 L380.839,390.013 L374.072,390.013 L374.072,383.239 L372.314,383.239 L372.314,390.013 L365.549,390.013 L365.549,391.773 L372.314,391.773 L372.314,392.242 Z" id="Shape" fill="#111C5C" fill-rule="nonzero"></path>
                <path d="M398.868,397.718 L398.868,391.773 L405.635,391.773 L405.635,390.014 L398.868,390.014 L398.868,383.241 L397.11,383.241 L397.11,390.014 L390.345,390.014 L390.345,391.773 L397.11,391.773 L397.11,397.542 C397.677,397.609 398.266,397.666 398.868,397.718 Z" id="Shape" fill="#111C5C" fill-rule="nonzero"></path>
                <polygon id="Shape" fill="#111C5C" fill-rule="nonzero" points="448.461 260.569 448.461 253.796 455.227 253.796 455.227 252.036 448.461 252.036 448.461 245.262 446.702 245.262 446.702 252.036 439.936 252.036 439.936 253.796 446.702 253.796 446.702 260.569"></polygon>
                <polygon id="Shape" fill="#111C5C" fill-rule="nonzero" points="514.326 161.678 514.947 160.049 514.326 160.049"></polygon>
                <path d="M324.48,397.52 L324.48,391.775 L331.246,391.775 L331.246,390.014 L324.48,390.014 L324.48,383.241 L322.721,383.241 L322.721,390.014 L315.956,390.014 L315.956,391.775 L322.721,391.775 L322.721,397.247 C323.29,397.35 323.882,397.438 324.48,397.52 Z" id="Shape" fill="#111C5C" fill-rule="nonzero"></path>
                <polygon id="Shape" fill="#111C5C" fill-rule="nonzero" points="229.169 322.298 235.935 322.298 235.935 329.072 237.693 329.072 237.693 322.298 244.458 322.298 244.458 320.538 237.693 320.538 237.693 313.764 235.935 313.764 235.935 320.538 229.169 320.538"></polygon>
                <polygon id="Shape" fill="#111C5C" fill-rule="nonzero" points="508.694 176.438 508.942 175.786 508.694 175.786"></polygon>
                <polygon id="Shape" fill="#111C5C" fill-rule="nonzero" points="496.295 107.284 496.295 114.056 489.53 114.056 489.53 115.816 496.295 115.816 496.295 122.59 498.053 122.59 498.053 115.816 504.819 115.816 504.819 114.056 498.053 114.056 498.053 107.284"></polygon>
                <path d="M244.459,275.427 C244.216,275.719 243.972,276.013 243.729,276.306 L244.459,276.306 L244.459,275.427 Z" id="Shape" fill="#111C5C" fill-rule="nonzero"></path>
                <polygon id="Shape" fill="#111C5C" fill-rule="nonzero" points="517.217 136.567 510.452 136.567 510.452 129.795 508.694 129.795 508.694 136.567 501.928 136.567 501.928 138.327 508.694 138.327 508.694 145.101 510.452 145.101 510.452 138.327 517.217 138.327"></polygon>
                <path d="M471.499,397.728 C472.097,397.671 472.697,397.616 473.258,397.539 L473.258,391.774 L480.024,391.774 L480.024,390.014 L473.258,390.014 L473.258,383.24 L471.499,383.24 L471.499,390.014 L464.733,390.014 L464.733,391.774 L471.499,391.774 L471.499,397.728 Z" id="Shape" fill="#111C5C" fill-rule="nonzero"></path>
                <polygon id="Shape" fill="#111C5C" fill-rule="nonzero" points="361.674 283.079 361.674 276.306 368.439 276.306 368.439 274.546 361.674 274.546 361.674 267.772 359.916 267.772 359.916 274.546 353.15 274.546 353.15 276.306 359.916 276.306 359.916 283.079"></polygon>
                <polygon id="Shape" fill="#111C5C" fill-rule="nonzero" points="374.072 260.569 374.072 253.796 380.838 253.796 380.838 252.036 374.072 252.036 374.072 245.262 372.314 245.262 372.314 252.036 365.549 252.036 365.549 253.796 372.314 253.796 372.314 260.569"></polygon>
                <polygon id="Shape" fill="#111C5C" fill-rule="nonzero" points="349.276 260.569 349.276 253.796 356.042 253.796 356.042 252.036 349.276 252.036 349.276 245.262 347.518 245.262 347.518 252.036 340.753 252.036 340.753 253.796 347.518 253.796 347.518 260.569"></polygon>
                <polygon id="Shape" fill="#111C5C" fill-rule="nonzero" points="260.731 267.772 260.731 274.546 253.965 274.546 253.965 276.306 260.731 276.306 260.731 283.079 262.49 283.079 262.49 276.306 269.255 276.306 269.255 274.546 262.49 274.546 262.49 267.772"></polygon>
                <polygon id="Shape" fill="#111C5C" fill-rule="nonzero" points="336.878 283.079 336.878 276.306 343.643 276.306 343.643 274.546 336.878 274.546 336.878 267.772 335.12 267.772 335.12 274.546 328.387 274.546 328.354 274.725 328.354 276.306 335.12 276.306 335.12 283.079"></polygon>
                <polygon id="Shape" fill="#111C5C" fill-rule="nonzero" points="262.49 329.072 262.49 322.298 269.255 322.298 269.255 320.538 262.49 320.538 262.49 313.764 260.731 313.764 260.731 320.538 253.965 320.538 253.965 322.298 260.731 322.298 260.731 329.072"></polygon>
                <polygon id="Shape" fill="#111C5C" fill-rule="nonzero" points="423.665 260.569 423.665 253.796 430.431 253.796 430.431 252.036 423.665 252.036 423.665 245.262 421.907 245.262 421.907 252.036 415.141 252.036 415.141 253.796 421.907 253.796 421.907 260.569"></polygon>
                <polygon id="Shape" fill="#111C5C" fill-rule="nonzero" points="386.471 283.079 386.471 276.306 393.236 276.306 393.236 274.546 386.471 274.546 386.471 267.772 384.712 267.772 384.712 274.546 377.946 274.546 377.946 276.306 384.712 276.306 384.712 283.079"></polygon>
                <polygon id="Shape" fill="#111C5C" fill-rule="nonzero" points="436.063 283.079 436.063 276.306 442.829 276.306 442.829 274.546 436.063 274.546 436.063 267.772 434.305 267.772 434.305 274.546 427.538 274.546 427.538 276.306 434.305 276.306 434.305 283.079"></polygon>
                <polygon id="Shape" fill="#111C5C" fill-rule="nonzero" points="411.267 283.079 411.267 276.306 418.032 276.306 418.032 274.546 411.267 274.546 411.267 267.772 409.508 267.772 409.508 274.546 402.743 274.546 402.743 276.306 409.508 276.306 409.508 283.079"></polygon>
                <polygon id="Shape" fill="#111C5C" fill-rule="nonzero" points="398.868 260.569 398.868 253.796 405.635 253.796 405.635 252.036 398.868 252.036 398.868 245.262 397.11 245.262 397.11 252.036 390.345 252.036 390.345 253.796 397.11 253.796 397.11 260.569"></polygon>
                <polygon id="Shape" fill="#111C5C" fill-rule="nonzero" points="274.887 306.562 274.887 299.788 281.654 299.788 281.654 298.028 274.887 298.028 274.887 291.254 273.129 291.254 273.129 298.028 266.364 298.028 266.364 299.788 273.129 299.788 273.129 306.562"></polygon>
                <polygon id="Shape" fill="#111C5C" fill-rule="nonzero" points="287.286 283.079 287.286 276.306 294.051 276.306 294.051 274.546 287.286 274.546 287.286 267.772 285.527 267.772 285.527 274.546 278.761 274.546 278.761 276.306 285.527 276.306 285.527 283.079"></polygon>
                <polygon id="Shape" fill="#111C5C" fill-rule="nonzero" points="347.518 199.269 347.518 206.043 340.753 206.043 340.753 207.803 347.518 207.803 347.518 214.577 349.276 214.577 349.276 207.803 356.042 207.803 356.042 206.043 349.276 206.043 349.276 199.269"></polygon>
                <polygon id="Shape" fill="#111C5C" fill-rule="nonzero" points="299.684 260.569 299.684 253.796 306.45 253.796 306.45 252.036 299.684 252.036 299.684 245.262 297.925 245.262 297.925 252.036 291.16 252.036 291.16 253.796 297.925 253.796 297.925 260.569"></polygon>
                <polygon id="Shape" fill="#111C5C" fill-rule="nonzero" points="310.324 283.079 312.082 283.079 312.082 276.306 318.847 276.306 318.847 274.546 312.082 274.546 312.082 267.772 310.324 267.772 310.324 274.546 303.558 274.546 303.558 276.306 310.324 276.306"></polygon>
                <polygon id="Shape" fill="#111C5C" fill-rule="nonzero" points="273.129 245.262 273.129 252.036 266.364 252.036 266.364 253.796 273.129 253.796 273.129 260.569 274.888 260.569 274.888 253.796 281.654 253.796 281.654 252.036 274.888 252.036 274.888 245.262"></polygon>
                <polygon id="Shape" fill="#111C5C" fill-rule="nonzero" points="331.246 252.036 324.48 252.036 324.48 245.262 322.721 245.262 322.721 252.036 315.956 252.036 315.956 253.796 322.721 253.796 322.721 260.569 324.48 260.569 324.48 253.796 331.246 253.796"></polygon>
                <polygon id="Shape" fill="#111C5C" fill-rule="nonzero" points="310.324 221.78 310.324 228.553 303.558 228.553 303.558 230.313 310.324 230.313 310.324 237.087 312.082 237.087 312.082 230.313 318.847 230.313 318.847 228.553 312.082 228.553 312.082 221.78"></polygon>
                <polygon id="Shape" fill="#111C5C" fill-rule="nonzero" points="359.916 221.78 359.916 228.553 353.15 228.553 353.15 230.313 359.916 230.313 359.916 237.087 361.675 237.087 361.675 230.313 368.439 230.313 368.439 228.553 361.675 228.553 361.675 221.78"></polygon>
                <path d="M299.684,214.577 L299.684,211.54 C299.094,211.988 298.507,212.444 297.925,212.908 L297.925,214.577 L299.684,214.577 Z" id="Shape" fill="#111C5C" fill-rule="nonzero"></path>
                <polygon id="Shape" fill="#111C5C" fill-rule="nonzero" points="322.722 199.269 322.722 206.043 315.957 206.043 315.957 207.803 322.722 207.803 322.722 214.577 324.48 214.577 324.48 207.803 331.246 207.803 331.246 206.043 324.48 206.043 324.48 199.269"></polygon>
                <polygon id="Shape" fill="#111C5C" fill-rule="nonzero" points="335.12 221.78 335.12 228.553 328.354 228.553 328.354 230.313 335.12 230.313 335.12 237.087 336.878 237.087 336.878 230.313 343.643 230.313 343.643 228.553 336.878 228.553 336.878 221.78"></polygon>
                <path d="M254.195,278.281 L260.175,297.093" id="Shape" stroke="#6273CC" stroke-width="1.26267"></path>
                <path d="M250.351,278.28 L248.215,302.865" id="Shape" stroke="#6273CC" stroke-width="1.26267"></path>
                <path d="M317.405,262.674 C314.552,278.176 296.749,282.4 301.054,298.351 C315.544,284.841 328.83,272.187 328.83,272.187 L330.936,257.627 C331.858,251.259 323.17,248.472 320.237,254.197 C319.016,256.581 318.01,259.388 317.405,262.674 Z" id="Shape" fill="#111C5C" fill-rule="nonzero"></path>
                <path d="M482.552,215.244 C477.16,214.355 472.342,218.718 472.687,224.178 L475.214,264.171 L493.213,217.005 L482.552,215.244 Z" id="Shape" fill="#111C5C" fill-rule="nonzero"></path>
                <path d="M463.043,158.562 C463.043,158.562 480.554,177.589 474.36,209.015" id="Shape" stroke="#6273CC" stroke-width="1.26267"></path>
                <path d="M238.642,261.101 L246.641,268.612 C249.368,271.173 249.667,275.403 247.328,278.323 L219.086,313.576 C216.124,317.272 210.458,317.124 207.693,313.28 L199.309,301.623 C197.324,298.861 197.551,295.083 199.854,292.581 L228.48,261.472 C231.176,258.543 235.74,258.375 238.642,261.101 Z" id="Shape" fill="#6273CC" fill-rule="nonzero"></path>
                <path d="M239.941,264.491 L206.777,305.343" id="Shape" stroke="#111C5C" stroke-width="1.26267"></path>
                <path d="M499.096,96.92 L534.333,110.638 C535.316,111.021 535.84,112.096 535.534,113.107 L531.169,127.564 C530.822,128.708 529.566,129.304 528.462,128.846 L489.098,112.507 C487.896,112.008 487.472,110.518 488.232,109.459 L496.723,97.624 C497.262,96.875 498.237,96.585 499.096,96.92 Z" id="Shape" fill="#6273CC" fill-rule="nonzero"></path>
                <path d="M495.822,103.727 L530.454,119.414" id="Shape" stroke="#111C5C" stroke-width="1.26267"></path>
                <path d="M555.336,1.781 L552.113,8.102" id="Shape" stroke="#C73A32" stroke-width="1.26267"></path>
                <path d="M559.386,3.968 L556.162,10.289" id="Shape" stroke="#C73A32" stroke-width="1.26267"></path>
                <path d="M563.436,6.604 L560.213,12.926" id="Shape" stroke="#C73A32" stroke-width="1.26267"></path>
                <path d="M412.499,144.566 C411.193,148.61 407.908,151.169 405.158,150.279 C402.408,149.39 401.238,145.391 402.543,141.345 C403.849,137.301 407.134,134.744 409.884,135.632 C412.633,136.522 413.804,140.522 412.499,144.566 Z" id="Shape" fill="#FF8D7E" fill-rule="nonzero"></path>
                <path d="M377.271,163.748 L398.609,159.451 C400.963,158.976 402.901,157.333 403.758,155.089 C405.807,149.722 409.277,139.361 409.277,130.699 C409.277,118.407 397.2,111.354 382.303,114.781 C369.674,117.685 360.035,130.338 367.803,146.617 C372.724,156.932 377.271,163.748 377.271,163.748 Z" id="Shape" fill="#111C5C" fill-rule="nonzero"></path>
                <polygon id="Shape" fill="#E0840B" fill-rule="nonzero" points="633.782 431.661 478.087 431.661 500.84 358.128 611.03 358.128"></polygon>
                <path d="M714.972,223.765 L724.724,214.626 L731.949,197.4 L744.958,187.586 C745.483,187.19 746.222,187.256 746.669,187.74 L746.878,187.968 C747.379,188.512 747.318,189.367 746.742,189.832 L740.07,195.226 L746.866,192.253 C748.542,191.52 750.499,191.928 751.743,193.272 L755.752,197.601 C756.659,198.58 756.571,200.116 755.558,200.984 L749.15,206.475 C748.326,207.179 747.726,208.113 747.449,209.161 C746.408,213.093 742.859,223.249 733.871,223.765 L724.724,241.563 L714.972,223.765 Z" id="Shape" fill="#FF8D7E" fill-rule="nonzero"></path>
                <path d="M752.222,193.809 L741.076,200.948" id="Shape" stroke="#C73A32" stroke-width="1.26267"></path>
                <path d="M743.605,204.056 L754.751,196.916" id="Shape" stroke="#C73A32" stroke-width="1.26267"></path>
                <path d="M396.896,223.765 L387.146,214.626 L379.92,197.4 L366.91,187.586 C366.386,187.19 365.646,187.256 365.201,187.74 L364.992,187.968 C364.489,188.512 364.552,189.367 365.128,189.832 L371.799,195.226 L365.004,192.253 C363.328,191.52 361.37,191.928 360.126,193.272 L356.116,197.601 C355.21,198.58 355.299,200.116 356.311,200.984 L362.72,206.475 C363.543,207.179 364.143,208.113 364.421,209.161 C365.461,213.093 369.01,223.249 377.998,223.765 L387.146,241.563 L396.896,223.765 Z" id="Shape" fill="#FF8D7E" fill-rule="nonzero"></path>
                <path d="M370.793,200.948 L359.648,193.808" id="Shape" stroke="#C73A32" stroke-width="1.26267"></path>
                <path d="M368.264,204.056 L357.119,196.916" id="Shape" stroke="#C73A32" stroke-width="1.26267"></path>
                <path d="M716.541,217.573 L671.89,256.046 C671.89,256.046 633.559,224.488 624.322,216.07 C615.087,207.65 603.769,198.327 589.034,197.684 C574.3,197.043 555.935,197.684 555.935,197.684 C555.935,197.684 537.57,197.043 522.835,197.684 C508.101,198.327 496.782,207.65 487.548,216.07 C478.311,224.488 439.98,256.046 439.98,256.046 L395.328,217.573 L371.911,239.65 C371.911,239.65 374.207,243.862 382.109,248.958 C390.01,254.057 389.583,258.612 392.359,263.101 C395.135,267.591 401.97,270.157 406.667,273.578 C411.365,276.997 412.86,285.335 420.974,292.39 L421.218,292.602 C434.035,303.762 452.911,304.391 466.44,294.11 L501.054,267.805 L511.276,302.889 C512.487,307.045 512.377,311.476 510.961,315.567 L491.23,372.559 L555.935,372.559 L620.64,372.559 L600.91,315.567 C599.493,311.476 599.382,307.045 600.594,302.889 L610.816,267.805 L645.429,294.11 C658.958,304.391 677.835,303.762 690.65,292.602 L690.896,292.39 C699.01,285.335 700.505,276.997 705.203,273.578 C709.902,270.157 716.734,267.591 719.511,263.101 C722.287,258.612 721.86,254.057 729.76,248.958 C737.663,243.862 739.957,239.65 739.957,239.65 L716.541,217.573 Z" id="Shape" fill="#FFE2DF" fill-rule="nonzero"></path>
                <path d="M503.462,222.163 C503.462,222.163 516.158,304.567 600.184,312.861 C599.519,309.565 599.646,306.144 600.594,302.89 L610.816,267.804 L542.481,254.139 L503.462,222.163 Z" id="Shape" fill="#FF7DA8" fill-rule="nonzero"></path>
                <polyline id="Shape" stroke="#FF7DA8" stroke-width="1.26267" points="542.38 284.979 548.786 320.104 540.885 349.042"></polyline>
                <polyline id="Shape" stroke="#FF7DA8" stroke-width="1.26267" points="569.49 284.979 563.083 320.104 570.984 349.042"></polyline>
                <path d="M592.237,191.698 C586.257,185.285 589.461,178.658 585.19,170.749 C580.92,162.837 578.388,165.966 576.373,156.263 C573.872,144.239 566.185,141.23 555.934,141.23 C545.684,141.23 537.997,144.239 535.496,156.263 C533.481,165.966 530.95,162.837 526.678,170.749 C522.408,178.658 525.612,185.285 519.632,191.698 C513.652,198.112 515.254,207.09 515.254,207.09 L555.934,207.09 L596.616,207.09 C596.616,207.09 598.217,198.112 592.237,191.698 Z" id="Shape" fill="#FFC29E" fill-rule="nonzero"></path>
                <path d="M538.878,168.61 L531.535,207.091" id="Shape" stroke="#694814" stroke-width="1.26267"></path>
                <path d="M550.249,168.61 L547.802,207.091" id="Shape" stroke="#694814" stroke-width="1.26267"></path>
                <path d="M561.621,168.61 L564.068,207.091" id="Shape" stroke="#694814" stroke-width="1.26267"></path>
                <path d="M572.992,168.61 L580.334,207.091" id="Shape" stroke="#694814" stroke-width="1.26267"></path>
                <path d="M582.254,327.022 C564.795,324.535 547.074,324.535 529.614,327.022 L527.931,315.17 C546.506,312.522 565.363,312.522 583.939,315.17 C583.378,319.122 582.816,323.072 582.254,327.022 Z" id="Shape" fill="#C73A32" fill-rule="nonzero"></path>
                <path d="M584.336,226.545 L567.033,250.222 L515.126,205.994 C515.126,205.994 517.296,200.375 518.37,199.184 C519.445,197.994 519.836,194.431 515.126,197.4 C515.126,197.4 509.054,192.496 505.931,192.179 C502.807,191.862 501.652,194.891 501.652,194.891 C501.652,194.891 497.69,195.916 497.222,198.873 C494.735,199.184 493.647,201.987 494.268,204.01 C491.314,206.968 492.558,211.219 499.244,214.386 C499.244,214.386 519.77,253.201 533.764,270.635 C547.76,288.07 563.436,296.539 579.479,291.107 C597.576,284.979 628.771,248.959 628.771,248.959 L584.336,226.545 Z" id="Shape" fill="#A26959" fill-rule="nonzero"></path>
                <path d="M567.034,250.221 L576.664,258.056" id="Shape" stroke="#875547" stroke-width="1.26267"></path>
                <path d="M628.771,248.959 L584.337,226.545 L583.448,227.76 L605.795,253.336 C610.756,259.017 619.555,259.119 624.648,253.557 C627.236,250.732 628.771,248.959 628.771,248.959 Z" id="Shape" fill="#875547" fill-rule="nonzero"></path>
                <path d="M631.21,171.336 C631.21,171.336 648.618,184.73 656.55,209.5 C657.172,211.442 657.354,213.506 657.001,215.513 C656.425,218.798 654.947,223.689 651.176,226.117 C645.197,229.965 644.768,230.608 642.848,236.165 C640.926,241.723 639.858,244.074 635.587,246.213 C631.317,248.351 628.754,256.474 628.754,256.474 L584.336,226.544 C584.336,226.544 609.602,190.417 613.593,184.857 C619.037,177.268 624.243,173.235 631.21,171.336 Z" id="Shape" fill="#FFC29E" fill-rule="nonzero"></path>
                <path d="M657.18,213.183 C658.115,198.753 646.785,176.893 632.832,173.474" id="Shape" stroke="#694814" stroke-width="1.26267"></path>
                <path d="M160.423,103.101 C149.712,105.017 148.422,106.569 146.828,119.452 C145.236,106.569 143.946,105.017 133.235,103.101 C143.946,101.186 145.236,99.633 146.828,86.751 C148.422,99.633 149.712,101.186 160.423,103.101 Z" id="Shape" fill="#E0840B" fill-rule="nonzero"></path>
                <path d="M746.42,120.608 C735.709,122.524 734.419,124.076 732.825,136.957 C731.233,124.076 729.942,122.524 719.232,120.608 C729.942,118.693 731.233,117.141 732.825,104.258 C734.419,117.141 735.709,118.693 746.42,120.608 Z" id="Shape" fill="#E0840B" fill-rule="nonzero"></path>
                <path d="M288.732,180.25 C282.46,181.372 281.705,182.281 280.772,189.824 C279.84,182.281 279.084,181.372 272.812,180.25 C279.084,179.128 279.84,178.218 280.772,170.677 C281.705,178.218 282.46,179.128 288.732,180.25 Z" id="Shape" fill="#E0840B" fill-rule="nonzero"></path>
                <path d="M618.776,158.426 C612.504,159.547 611.748,160.457 610.816,167.999 C609.883,160.457 609.128,159.547 602.856,158.426 C609.128,157.304 609.883,156.395 610.816,148.852 C611.748,156.395 612.504,157.304 618.776,158.426 Z" id="Shape" fill="#E0840B" fill-rule="nonzero"></path>
                <path d="M776.011,372.558 C769.739,373.68 768.983,374.589 768.051,382.131 C767.117,374.589 766.363,373.68 760.091,372.558 C766.363,371.436 767.117,370.527 768.051,362.985 C768.983,370.527 769.739,371.436 776.011,372.558 Z" id="Shape" fill="#E0840B" fill-rule="nonzero"></path>
                <path d="M26.4011,344.44 C20.1292,345.563 19.3739,346.472 18.4406,354.015 C17.5086,346.472 16.7533,345.563 10.4814,344.44 C16.7533,343.32 17.5086,342.409 18.4406,334.867 C19.3739,342.409 20.1292,343.32 26.4011,344.44 Z" id="Shape" fill="#E0840B" fill-rule="nonzero"></path>
            </g>
            <g id="ellipse_circle" transform="translate(582.000000, 0.000000)" stroke="#FFC6BF" stroke-width="11">
                <circle id="Oval" cx="30" cy="30" r="29.5"></circle>
            </g>
            <g id="ellipse_full" transform="translate(1333.000000, 57.000000)" fill="#FFC6BF" fill-rule="nonzero">
                <circle id="Oval" cx="40" cy="40" r="40"></circle>
            </g>
            <g id="half_circle_stands" transform="translate(0.000000, 464.000000)" fill="#FFC6BF" fill-rule="nonzero">
                <g id="half_circle" transform="translate(25.714435, 50.637824) rotate(-90.000000) translate(-25.714435, -50.637824) translate(-24.285565, 25.637824)">
                    <path d="M0,0 C3.38176876e-15,27.6142375 22.3857625,50 50,50 C77.6142375,50 100,27.6142375 100,0" id="Shape"></path>
                </g>
            </g>
        </g>
    </g>
</svg>