<svg width="50px" height="50px" viewBox="0 0 80 80" version="1.1" xmlns="http://www.w3.org/2000/svg" xmlns:xlink="http://www.w3.org/1999/xlink">
    <g id="FranceRelance" stroke="none" stroke-width="1" fill="none" fill-rule="evenodd">
        <g id="relance" fill-rule="nonzero">
            <path d="M39.9978,80 C17.9439,80 0,62.0561 0,39.9978 C0,17.9439 17.9439,0 39.9978,0 C62.052,0 79.996,17.9439 79.996,39.9978 C80,62.0561 62.056,80 39.9978,80 Z M39.9978,2.19875 C19.1561,2.19875 2.1988,19.1561 2.1988,39.9978 C2.1988,60.8395 19.1561,77.7968 39.9978,77.7968 C60.839,77.7968 77.797,60.8395 77.797,39.9978 C77.801,19.1561 60.844,2.19875 39.9978,2.19875 Z" id="Shape" fill="#2FAC66"></path>
            <path d="M39.9967,60.3617 C28.7685,60.3617 19.6328,51.226 19.6328,39.9978 C19.6328,28.7696 28.7685,19.6339 39.9967,19.6339 C51.2249,19.6339 60.361,28.7696 60.361,39.9978 C60.361,51.226 51.2249,60.3617 39.9967,60.3617 Z M39.9967,20.4612 C29.2241,20.4612 20.4601,29.2252 20.4601,39.9978 C20.4601,50.7703 29.2241,59.5344 39.9967,59.5344 C50.7692,59.5344 59.533,50.7703 59.533,39.9978 C59.538,29.2252 50.7692,20.4612 39.9967,20.4612 Z" id="Shape" fill="#2FAC66"></path>
            <polygon id="Shape" fill="#E20E18" points="59.954 35.4187 53.2578 47.0158 59.541 50.6435 66.237 39.0464"></polygon>
            <polygon id="Shape" fill="#FFFFFF" points="53.6724 31.7897 46.9766 43.3868 53.2598 47.0146 59.956 35.4174"></polygon>
            <polygon id="Shape" fill="#253574" points="47.395 28.1631 40.6992 39.7603 46.9824 43.388 53.6782 31.7909"></polygon>
            <path d="M47.6632,29.1766 L65.227,39.3165 L59.272,49.629 L41.7084,39.4891 L47.6632,29.1766 Z M47.3889,28.1635 L40.6953,39.7589 L59.546,50.6421 L66.24,39.0467 L47.3889,28.1635 Z" id="Shape" fill="#253574"></path>
            <polygon id="Shape" fill="#253574" points="47.6352 27.3329 34.3281 50.388 35.0408 50.7994 48.3479 27.7442"></polygon>
            <polygon id="Shape" fill="#253574" points="32.6035 28.1135 13.7539 38.9966 20.4497 50.5938 39.2993 39.7106"></polygon>
            <polygon id="Shape" fill="#FFE910" points="28.536 43.8954 28.7705 43.3822 29.3102 43.4486 28.9032 43.0858 29.1465 42.5948 28.6732 42.8691 28.2706 42.5151 28.3723 43.0416 27.8945 43.3159 28.4298 43.3601"></polygon>
            <polygon id="Shape" fill="#FFE910" points="24.3045 36.3259 24.539 35.8259 25.0787 35.879 24.6761 35.5163 24.915 35.0296 24.4461 35.2995 24.0391 34.9544 24.1452 35.4764 23.6719 35.7463 24.1983 35.7861"></polygon>
            <polygon id="Shape" fill="#FFE910" points="22.4808 42.3381 22.7153 41.8382 23.2639 41.8868 22.8613 41.5241 23.1135 41.0419 22.6357 41.3206 22.2198 40.9711 22.3215 41.4975 21.8438 41.7762 22.3702 41.8028"></polygon>
            <polygon id="Shape" fill="#FFE910" points="30.324 37.7946 30.5585 37.2947 31.1027 37.3478 30.7045 36.9762 30.9478 36.5072 30.4745 36.7771 30.063 36.4276 30.1648 36.9585 29.6914 37.2328 30.2134 37.2593"></polygon>
            <polygon id="Shape" fill="#FFE910" points="26.5902 35.6932 26.8291 35.1889 27.3732 35.2375 26.9707 34.8792 27.214 34.3925 26.7406 34.6668 26.3292 34.3085 26.4309 34.8438 25.9531 35.1225 26.484 35.1579"></polygon>
            <polygon id="Shape" fill="#FFE910" points="28.786 36.2816 29.0249 35.7773 29.5691 35.826 29.1621 35.4588 29.4054 34.9765 28.932 35.2464 28.525 34.8969 28.6179 35.4322 28.1445 35.7021 28.6798 35.7375"></polygon>
            <polygon id="Shape" fill="#FFE910" points="30.7699 39.9669 31.0043 39.4714 31.5529 39.5201 31.1503 39.1573 31.3981 38.6662 30.9203 38.9405 30.5089 38.591 30.6062 39.1219 30.1328 39.3962 30.6637 39.4404"></polygon>
            <polygon id="Shape" fill="#FFE910" points="30.1561 42.1966 30.395 41.6878 30.9436 41.7453 30.5365 41.3781 30.7843 40.8915 30.3109 41.1658 29.8951 40.8163 29.9968 41.3472 29.5234 41.6215 30.0543 41.6569"></polygon>
            <polygon id="Shape" fill="#FFE910" points="26.3485 44.3953 26.583 43.8866 27.136 43.9397 26.729 43.5725 26.9767 43.0858 26.4989 43.3601 26.0875 43.0106 26.1848 43.5415 25.707 43.8158 26.2379 43.8556"></polygon>
            <polygon id="Shape" fill="#FFE910" points="24.2074 43.7715 24.4463 43.276 24.986 43.3203 24.5878 42.9619 24.8356 42.4709 24.3578 42.7452 23.9508 42.4001 24.0437 42.9265 23.5703 43.2008 24.1056 43.2407"></polygon>
            <polygon id="Shape" fill="#FFE910" points="21.9071 40.25 22.1416 39.75 22.6902 39.7987 22.2832 39.4315 22.5353 38.9449 22.0531 39.2192 21.6417 38.8741 21.739 39.405 21.2656 39.6748 21.7965 39.7147"></polygon>
            <polygon id="Shape" fill="#FFE910" points="22.454 38.091 22.6885 37.5911 23.2326 37.6442 22.83 37.2814 23.0734 36.7992 22.6044 37.0691 22.1841 36.7151 22.2903 37.2505 21.8125 37.5247 22.3434 37.5646"></polygon>
            <polygon id="Shape" fill="#253574" points="32.3689 27.3298 31.6562 27.7412 44.966 50.7937 45.6786 50.3822"></polygon>
            <polygon id="Shape" fill="#2FAC66" points="9.8633 25.4914 12.7212 20.4922 14.1679 21.3195 12.3054 24.58 14.3404 25.7435 15.9242 22.9741 17.3709 23.8014 15.7871 26.5708 19.4369 28.659 18.4415 30.3976"></polygon>
            <path d="M16.1211,16.4707 L18.4393,14.5373 C20.1072,13.1482 21.8502,13.1438 23.027,14.555 C23.7924,15.4752 23.9207,16.5282 23.4385,17.5368 L28.6146,18.9172 L26.8052,20.4258 L22.2219,19.0454 L21.4299,19.7046 L23.987,22.7749 L22.4475,24.0579 L16.1211,16.4707 Z M18.7269,16.4707 L20.3593,18.4349 L21.2264,17.7138 C21.8768,17.1697 21.9387,16.4751 21.4255,15.8601 C20.9477,15.285 20.2443,15.2098 19.5895,15.754 L18.7269,16.4707 Z" id="Shape" fill="#2FAC66"></path>
            <path d="M30.3273,8.04288 L32.8668,7.37927 L38.9764,15.9973 L36.9148,16.5326 L35.3531,14.2852 L31.5263,15.2806 L31.2608,18.0058 L29.1992,18.5411 L30.3273,8.04288 Z M34.3223,12.7899 L32.0748,9.53821 L31.6988,13.4712 L34.3223,12.7899 Z" id="Shape" fill="#2FAC66"></path>
            <polygon id="Shape" fill="#2FAC66" points="42.3801 6.42371 44.8974 6.94574 47.7686 14.8382 49.2241 7.84382 51.1884 8.25084 49.1755 17.9262 46.6582 17.4042 43.787 9.51169 42.3315 16.5061 40.3672 16.0991"></polygon>
            <path d="M58.878,21.2222 L59.369,23.1555 C57.9,23.5625 56.259,23.275 54.8522,22.1645 C52.4013,20.2356 52.2111,17.0326 53.9586,14.8162 C55.706,12.5997 58.86,12.0335 61.311,13.9623 C62.718,15.0684 63.373,16.6079 63.342,18.1121 L61.342,18.0988 C61.395,17.1167 61.037,16.1345 60.152,15.4356 C58.688,14.2853 56.75,14.6038 55.578,16.0903 C54.4098,17.5768 54.5514,19.5366 56.016,20.6913 C56.901,21.3859 57.936,21.5053 58.878,21.2222 Z" id="Shape" fill="#2FAC66"></path>
            <polygon id="Shape" fill="#2FAC66" points="67.757 21.2752 70.544 26.3142 69.088 27.1194 67.27 23.8367 65.222 24.9693 66.766 27.7609 65.31 28.566 63.766 25.7745 61.545 27.0043 63.364 30.2914 61.908 31.0966 59.121 26.0576"></polygon>
            <path d="M17.1205,47.4833 L18.4654,50.1864 C19.4343,52.133 19.0317,53.8274 17.3904,54.6459 C16.3153,55.1812 15.2624,55.0573 14.3953,54.3539 L11.8559,59.0699 L10.8074,56.9596 L13.2096,52.8187 L12.7495,51.8985 L9.1749,53.677 L8.2812,51.8808 L17.1205,47.4833 Z M16.5232,50.0227 L14.236,51.1597 L14.7404,52.1684 C15.1164,52.9249 15.78,53.1461 16.5011,52.7922 C17.1692,52.4604 17.4036,51.7924 17.0276,51.0314 L16.5232,50.0227 Z" id="Shape" fill="#2FAC66"></path>
            <polygon id="Shape" fill="#2FAC66" points="21.537 55.2961 25.6779 59.2955 24.5232 60.4944 21.8245 57.8886 20.1965 59.5742 22.4926 61.7906 21.3379 62.9896 19.0418 60.7775 17.2766 62.6047 19.9753 65.2104 18.8206 66.4093 14.6797 62.41"></polygon>
            <polygon id="Shape" fill="#2FAC66" points="27.416 60.3661 29.2166 61.2421 25.6907 68.4887 29.0662 70.13 28.2699 71.7669 23.0938 69.2496"></polygon>
            <path d="M36.7583,63.6355 L39.3729,63.8523 L42.284,74.0055 L40.1604,73.8285 L39.4305,71.1918 L35.4931,70.8644 L34.3384,73.3463 L32.2148,73.1693 L36.7583,63.6355 Z M38.9527,69.4398 L37.9086,65.6307 L36.254,69.2186 L38.9527,69.4398 Z" id="Shape" fill="#2FAC66"></path>
            <polygon id="Shape" fill="#2FAC66" points="43.9336 63.9275 46.3447 63.0426 52.9498 68.2232 50.49 61.5208 52.3702 60.8306 55.772 70.1034 53.3612 70.9882 46.7561 65.8033 49.2159 72.5057 47.3357 73.1958"></polygon>
            <path d="M63.98,59.5256 L65.958,59.269 C66.183,60.7776 65.701,62.3702 64.431,63.6355 C62.224,65.8343 59.021,65.6396 57.03,63.6399 C55.039,61.6403 54.8576,58.4373 57.065,56.2385 C58.335,54.9732 59.941,54.5087 61.427,54.7211 L61.175,56.7075 C60.206,56.5349 59.189,56.7738 58.388,57.5702 C57.07,58.8841 57.154,60.8484 58.49,62.1889 C59.826,63.5293 61.79,63.6222 63.108,62.3083 C63.905,61.5075 64.148,60.49 63.98,59.5256 Z" id="Shape" fill="#2FAC66"></path>
            <polygon id="Shape" fill="#2FAC66" points="60.613 52.2303 62.98 46.979 64.498 47.6603 62.954 51.0845 65.09 52.049 66.4 49.1424 67.917 49.8237 66.608 52.7303 68.922 53.7743 70.466 50.3501 71.983 51.0359 69.616 56.2828"></polygon>
        </g>
    </g>
</svg>
