<svg width="191" height="76" viewBox="0 0 191 76" fill="none" xmlns="http://www.w3.org/2000/svg">
<path d="M88.9679 53.0967H148.28V66.6816H88.9679V53.0967Z" fill="#3A55D1"/>
<path d="M97.9357 57.8912C97.9357 58.9567 97.2254 60.111 95.4496 60.111H94.9168V62.6859H94.0289V55.4939H95.5384C96.959 55.4939 97.9357 56.3818 97.9357 57.8024V57.8912ZM96.959 57.8912C96.959 57.0033 96.4263 56.4706 95.4496 56.4706H94.9168V59.3119H95.4496C96.5151 59.3119 96.959 58.6903 96.959 57.8912Z" fill="black"/>
<path d="M97.9357 57.8912C97.9357 58.9567 97.2254 60.111 95.4496 60.111H94.9168V62.6859H94.0289V55.4939H95.5384C96.959 55.4939 97.9357 56.3818 97.9357 57.8024V57.8912ZM96.959 57.8912C96.959 57.0033 96.4263 56.4706 95.4496 56.4706H94.9168V59.3119H95.4496C96.5151 59.3119 96.959 58.6903 96.959 57.8912Z" fill="white"/>
<path d="M102.642 57.0034H101.754L101.043 56.1155L100.422 57.0034H99.5339L100.688 55.4052H101.487L102.642 57.0034ZM100.955 57.5361C101.665 57.5361 102.198 57.7137 102.642 58.1577C103.086 58.6904 103.352 59.3119 103.352 60.111C103.352 60.9989 103.086 61.6205 102.642 62.1532C102.198 62.5084 101.665 62.7747 100.866 62.7747C100.244 62.7747 99.7115 62.5972 99.2675 62.1532C98.8236 61.7093 98.5572 60.9989 98.5572 60.111C98.5572 59.3119 98.8236 58.6904 99.2675 58.1577C99.7115 57.7137 100.244 57.5361 100.955 57.5361ZM100.955 58.2464C100.067 58.2464 99.5339 59.0456 99.5339 60.111C99.5339 61.2653 100.067 61.9756 100.955 61.9756C101.842 61.9756 102.375 61.2653 102.375 60.1998C102.464 59.0456 101.842 58.1577 100.955 58.1577V58.2464Z" fill="black"/>
<path d="M102.642 57.0034H101.754L101.043 56.1155L100.422 57.0034H99.5339L100.688 55.4052H101.487L102.642 57.0034ZM100.955 57.5361C101.665 57.5361 102.198 57.7137 102.642 58.1577C103.086 58.6904 103.352 59.3119 103.352 60.111C103.352 60.9989 103.086 61.6205 102.642 62.1532C102.198 62.5084 101.665 62.7747 100.866 62.7747C100.244 62.7747 99.7115 62.5972 99.2675 62.1532C98.8236 61.7093 98.5572 60.9989 98.5572 60.111C98.5572 59.3119 98.8236 58.6904 99.2675 58.1577C99.7115 57.7137 100.244 57.5361 100.955 57.5361ZM100.955 58.2464C100.067 58.2464 99.5339 59.0456 99.5339 60.111C99.5339 61.2653 100.067 61.9756 100.955 61.9756C101.842 61.9756 102.375 61.2653 102.375 60.1998C102.464 59.0456 101.842 58.1577 100.955 58.1577V58.2464Z" fill="white"/>
<path d="M106.282 62.5972L105.572 62.7748C104.861 62.7748 104.684 62.3308 104.684 61.7981V55.1388H105.572V61.3541C105.572 61.7981 105.66 61.8869 105.927 61.8869H106.282V62.5972Z" fill="black"/>
<path d="M106.282 62.5972L105.572 62.7748C104.861 62.7748 104.684 62.3308 104.684 61.7981V55.1388H105.572V61.3541C105.572 61.7981 105.66 61.8869 105.927 61.8869H106.282V62.5972Z" fill="white"/>
<path d="M111.165 60.3773H107.88C107.88 61.2652 108.502 61.9756 109.478 61.9756C109.922 61.9756 110.366 61.798 110.722 61.6204L110.988 62.2419C110.544 62.5971 109.922 62.7747 109.301 62.7747C107.703 62.7747 106.904 61.4428 106.904 60.111C106.904 58.6015 107.791 57.4473 109.035 57.4473C110.366 57.4473 111.165 58.5127 111.165 60.111V60.3773ZM110.189 59.5782C110.189 58.9567 109.745 58.2464 109.035 58.2464C108.324 58.2464 107.88 58.8679 107.88 59.5782H110.189Z" fill="black"/>
<path d="M111.165 60.3773H107.88C107.88 61.2652 108.502 61.9756 109.478 61.9756C109.922 61.9756 110.366 61.798 110.722 61.6204L110.988 62.2419C110.544 62.5971 109.922 62.7747 109.301 62.7747C107.703 62.7747 106.904 61.4428 106.904 60.111C106.904 58.6015 107.791 57.4473 109.035 57.4473C110.366 57.4473 111.165 58.5127 111.165 60.111V60.3773ZM110.189 59.5782C110.189 58.9567 109.745 58.2464 109.035 58.2464C108.324 58.2464 107.88 58.8679 107.88 59.5782H110.189Z" fill="white"/>
<path d="M118.89 60.3773H115.694C115.694 61.2652 116.226 61.9756 117.203 61.9756C117.647 61.9756 118.091 61.798 118.446 61.6204L118.713 62.2419C118.269 62.5971 117.647 62.7747 117.026 62.7747C115.427 62.7747 114.628 61.4428 114.628 60.111C114.628 58.6015 115.516 57.4473 116.759 57.4473C118.091 57.4473 118.89 58.5127 118.89 60.111V60.3773ZM117.825 59.5782C117.825 58.9567 117.47 58.2464 116.67 58.2464C115.96 58.2464 115.516 58.8679 115.516 59.5782H117.825Z" fill="black"/>
<path d="M118.89 60.3773H115.694C115.694 61.2652 116.226 61.9756 117.203 61.9756C117.647 61.9756 118.091 61.798 118.446 61.6204L118.713 62.2419C118.269 62.5971 117.647 62.7747 117.026 62.7747C115.427 62.7747 114.628 61.4428 114.628 60.111C114.628 58.6015 115.516 57.4473 116.759 57.4473C118.091 57.4473 118.89 58.5127 118.89 60.111V60.3773ZM117.825 59.5782C117.825 58.9567 117.47 58.2464 116.67 58.2464C115.96 58.2464 115.516 58.8679 115.516 59.5782H117.825Z" fill="white"/>
<path d="M127.414 62.5972H126.526V59.4895C126.526 58.868 126.349 58.424 125.638 58.424C125.106 58.424 124.573 58.7792 124.218 59.1344V62.5972H123.33V59.4895C123.33 58.7792 123.152 58.3352 122.442 58.3352C121.909 58.3352 121.376 58.6904 121.021 59.0456V62.5972H120.133V57.7137H120.844L120.932 58.3352C121.643 57.8025 122.175 57.6249 122.708 57.6249C123.33 57.6249 123.862 57.8913 124.04 58.424C124.573 57.8913 125.283 57.5361 125.816 57.5361C126.704 57.5361 127.414 57.9801 127.414 59.2231V62.7748V62.5972Z" fill="black"/>
<path d="M127.414 62.5972H126.526V59.4895C126.526 58.868 126.349 58.424 125.638 58.424C125.106 58.424 124.573 58.7792 124.218 59.1344V62.5972H123.33V59.4895C123.33 58.7792 123.152 58.3352 122.442 58.3352C121.909 58.3352 121.376 58.6904 121.021 59.0456V62.5972H120.133V57.7137H120.844L120.932 58.3352C121.643 57.8025 122.175 57.6249 122.708 57.6249C123.33 57.6249 123.862 57.8913 124.04 58.424C124.573 57.8913 125.283 57.5361 125.816 57.5361C126.704 57.5361 127.414 57.9801 127.414 59.2231V62.7748V62.5972Z" fill="white"/>
<path d="M133.185 60.111C133.185 61.798 131.942 62.7747 130.61 62.7747C130.255 62.7747 130.078 62.7747 129.811 62.5971V65.2608H128.923V57.7136C129.279 57.6248 129.811 57.4473 130.699 57.4473C132.209 57.4473 133.185 58.3352 133.185 60.0222V60.111ZM132.297 60.111C132.297 58.8679 131.41 58.3352 130.522 58.3352L129.811 58.424V61.798L130.61 61.9756C131.587 61.9756 132.209 61.2652 132.209 60.111H132.297Z" fill="black"/>
<path d="M133.185 60.111C133.185 61.798 131.942 62.7747 130.61 62.7747C130.255 62.7747 130.078 62.7747 129.811 62.5971V65.2608H128.923V57.7136C129.279 57.6248 129.811 57.4473 130.699 57.4473C132.209 57.4473 133.185 58.3352 133.185 60.0222V60.111ZM132.297 60.111C132.297 58.8679 131.41 58.3352 130.522 58.3352L129.811 58.424V61.798L130.61 61.9756C131.587 61.9756 132.209 61.2652 132.209 60.111H132.297Z" fill="white"/>
<path d="M136.116 62.5972L135.316 62.7748C134.695 62.7748 134.429 62.3308 134.429 61.7981V55.1388H135.316V61.3541C135.316 61.7981 135.405 61.8869 135.672 61.8869H136.027L136.116 62.5972Z" fill="black"/>
<path d="M136.116 62.5972L135.316 62.7748C134.695 62.7748 134.429 62.3308 134.429 61.7981V55.1388H135.316V61.3541C135.316 61.7981 135.405 61.8869 135.672 61.8869H136.027L136.116 62.5972Z" fill="white"/>
<path d="M139.134 57.5361C139.756 57.5361 140.377 57.7137 140.733 58.1577C141.177 58.6904 141.443 59.3119 141.443 60.1111C141.443 60.999 141.177 61.6205 140.733 62.1532C140.289 62.5084 139.756 62.7748 139.046 62.7748C138.424 62.7748 137.803 62.5972 137.447 62.1532C136.915 61.7093 136.737 60.999 136.737 60.1111C136.737 59.3119 136.915 58.6904 137.447 58.1577C137.803 57.7137 138.335 57.5361 139.046 57.5361H139.134ZM139.134 58.2465C138.158 58.2465 137.625 59.0456 137.625 60.1111C137.625 61.2653 138.158 61.9756 139.046 61.9756C139.934 61.9756 140.466 61.2653 140.466 60.1998C140.466 59.0456 140.022 58.1577 139.134 58.1577V58.2465Z" fill="black"/>
<path d="M139.134 57.5361C139.756 57.5361 140.377 57.7137 140.733 58.1577C141.177 58.6904 141.443 59.3119 141.443 60.1111C141.443 60.999 141.177 61.6205 140.733 62.1532C140.289 62.5084 139.756 62.7748 139.046 62.7748C138.424 62.7748 137.803 62.5972 137.447 62.1532C136.915 61.7093 136.737 60.999 136.737 60.1111C136.737 59.3119 136.915 58.6904 137.447 58.1577C137.803 57.7137 138.335 57.5361 139.046 57.5361H139.134ZM139.134 58.2465C138.158 58.2465 137.625 59.0456 137.625 60.1111C137.625 61.2653 138.158 61.9756 139.046 61.9756C139.934 61.9756 140.466 61.2653 140.466 60.1998C140.466 59.0456 140.022 58.1577 139.134 58.1577V58.2465Z" fill="white"/>
<path d="M143.13 55.4939C143.485 55.4939 143.751 55.6715 143.751 56.0267C143.751 56.3818 143.485 56.6482 143.13 56.6482C142.965 56.6482 142.807 56.5827 142.69 56.4662C142.574 56.3496 142.508 56.1915 142.508 56.0267C142.508 55.8618 142.574 55.7038 142.69 55.5872C142.807 55.4706 142.965 55.4052 143.13 55.4052V55.4939ZM143.663 62.5972H142.686V57.7137H143.574V62.7747L143.663 62.5972Z" fill="black"/>
<path d="M143.13 55.4939C143.485 55.4939 143.751 55.6715 143.751 56.0267C143.751 56.3818 143.485 56.6482 143.13 56.6482C142.965 56.6482 142.807 56.5827 142.69 56.4662C142.574 56.3496 142.508 56.1915 142.508 56.0267C142.508 55.8618 142.574 55.7038 142.69 55.5872C142.807 55.4706 142.965 55.4052 143.13 55.4052V55.4939ZM143.663 62.5972H142.686V57.7137H143.574V62.7747L143.663 62.5972Z" fill="white"/>
<path d="M75.4717 37.7359C75.4717 42.6914 74.4957 47.5984 72.5993 52.1768C70.7029 56.7551 67.9233 60.9151 64.4192 64.4192C60.9151 67.9233 56.7551 70.7029 52.1768 72.5993C47.5984 74.4957 42.6914 75.4717 37.7359 75.4717C32.7803 75.4717 27.8733 74.4957 23.295 72.5993C18.7167 70.7029 14.5567 67.9233 11.0526 64.4192C7.54848 60.9151 4.76888 56.7551 2.87247 52.1768C0.976067 47.5984 -7.38434e-08 42.6914 0 37.7359C1.49133e-07 27.7277 3.97573 18.1294 11.0526 11.0526C18.1294 3.97573 27.7277 0 37.7359 0C47.744 0 57.3423 3.97573 64.4192 11.0526C71.496 18.1294 75.4717 27.7277 75.4717 37.7359Z" fill="#23333B"/>
<path d="M88.7015 26.2819V11.01H91.454V23.8846H96.8702V26.2819H88.7015ZM105.305 26.2819L104.861 25.3052C104.151 25.9268 103.174 26.5483 101.665 26.5483C99.6227 26.5483 98.1133 25.2164 98.1133 22.9967C98.1133 20.7769 99.8891 19.5339 102.642 19.4451L104.595 19.3563V19.0899C104.595 17.758 103.707 17.2253 102.553 17.2253C101.31 17.2253 100.422 17.5805 99.7115 18.0244L98.8236 16.2486C100.075 15.3895 101.569 14.9539 103.086 15.0055C105.749 15.0055 107.436 16.071 107.436 19.0011V23.3518C107.436 24.9501 107.525 25.7492 107.614 26.1931H105.305V26.2819ZM104.595 21.2209L102.997 21.3097C101.487 21.3984 100.866 21.8424 100.866 22.8191C100.866 23.707 101.487 24.3285 102.642 24.3285C102.998 24.3471 103.355 24.2938 103.69 24.1718C104.026 24.0497 104.334 23.8615 104.595 23.6182V21.2209ZM119.157 26.4595C117.647 26.4595 116.493 26.1931 115.516 25.6604V9.85571H118.269V15.3607C118.89 15.1831 119.601 15.0055 120.4 15.0055C123.063 15.0055 125.638 16.7814 125.638 20.333C125.638 24.2397 122.619 26.4595 119.157 26.4595ZM119.867 17.4029C119.157 17.4029 118.713 17.5805 118.357 17.758V23.9734C118.801 24.1509 119.157 24.1509 119.689 24.1509C121.554 24.1509 122.886 22.5527 122.886 20.5105C122.886 18.9123 121.731 17.4029 119.867 17.4029ZM136.559 24.8613C136.048 25.3756 135.439 25.7821 134.768 26.0566C134.097 26.3312 133.378 26.4682 132.653 26.4595C131.143 26.4595 129.811 26.0155 128.924 25.1276C128.362 24.5733 127.922 23.9081 127.631 23.1743C127.341 22.4405 127.206 21.6543 127.236 20.8657C127.236 19.1787 127.858 17.6693 128.835 16.6038C129.35 16.1013 129.962 15.7085 130.634 15.449C131.305 15.1896 132.022 15.0689 132.741 15.0943C134.429 15.0943 135.76 15.6271 136.737 16.6926C137.722 17.8184 138.231 19.2828 138.158 20.7769C138.158 22.3751 137.536 23.8846 136.559 24.8613ZM132.564 17.2253C130.788 17.2253 129.989 18.7347 129.989 20.7769C129.989 22.9079 130.966 24.3285 132.653 24.3285C134.429 24.3285 135.228 22.8191 135.228 20.7769C135.228 18.646 134.251 17.2253 132.564 17.2253ZM147.303 26.2819V19.889C147.303 18.7347 147.126 17.4917 145.705 17.4917C144.728 17.4917 143.751 18.0244 142.952 18.646V26.2819H140.2V15.3607H142.597L142.864 16.515C143.941 15.626 145.285 15.1255 146.682 15.0943C148.369 15.0943 150.144 16.071 150.144 19.0011V26.2819H147.303ZM159.823 26.2819V19.889C159.823 18.7347 159.645 17.4917 158.224 17.4917C157.248 17.4917 156.271 18.0244 155.472 18.646V26.2819H152.719V15.3607H155.117L155.383 16.515C156.46 15.626 157.805 15.1255 159.201 15.0943C160.888 15.0943 162.664 16.071 162.664 19.0011V26.2819H159.823ZM167.458 21.4872C167.547 23.0855 168.879 24.2397 170.566 24.2397C171.632 24.2397 172.431 23.9734 173.407 23.4406L174.118 25.2164C172.875 26.1043 171.454 26.4595 170.122 26.4595C166.304 26.4595 164.706 23.707 164.706 20.7769C164.706 17.6693 166.571 15.0943 169.678 15.0943C172.608 15.0943 174.562 17.3141 174.562 20.6881V21.4872H167.458ZM169.589 17.1365C168.258 17.1365 167.458 18.3796 167.458 19.5339H171.72C171.632 18.3796 170.921 17.1365 169.589 17.1365Z" fill="black"/>
<path d="M95.0944 46.7037L94.6504 45.727C93.9401 46.3485 92.9634 46.97 91.454 46.97C89.4118 46.97 87.9024 45.6382 87.9024 43.4184C87.9024 41.1987 89.6782 39.9556 92.4307 39.8668L94.3841 39.778V39.5117C94.3841 38.1798 93.4962 37.6471 92.3419 37.6471C91.0988 37.6471 90.2109 38.0022 89.5006 38.4462L88.6127 36.6704C89.864 35.8113 91.3577 35.3757 92.8746 35.4273C95.5383 35.4273 97.2254 36.4928 97.2254 39.4229V43.7736C97.2254 45.3718 97.3141 46.1709 97.4029 46.6149H95.0944V46.7037ZM94.4728 41.6426L92.8746 41.7314C91.3652 41.8202 90.7437 42.2642 90.7437 43.2408C90.7437 44.1288 91.3652 44.7503 92.5195 44.7503C92.8761 44.7689 93.2327 44.7155 93.5683 44.5935C93.9039 44.4715 94.2115 44.2832 94.4728 44.04V41.6426ZM102.286 46.8812C100.422 46.8812 99.8003 45.8158 99.8003 44.4839V30.2775H102.553V43.2408C102.553 44.04 102.73 44.3951 103.263 44.3951L104.062 44.3063L104.417 46.3485C103.618 46.7925 102.908 46.8812 102.286 46.8812ZM109.212 46.8812C107.259 46.8812 106.548 45.8158 106.548 44.3063V37.8246H104.595V35.7825H106.548V33.2963L109.301 32.4972V35.8713H112.675L111.876 37.9134H109.301V43.4184C109.301 44.3063 109.656 44.6615 110.366 44.6615C111.077 44.6615 111.787 44.3063 112.231 44.04L112.941 45.8158C111.787 46.5261 110.278 46.8812 109.212 46.8812ZM116.493 41.909C116.582 43.5072 117.913 44.6615 119.601 44.6615C120.666 44.6615 121.465 44.3951 122.442 43.8624L123.152 45.6382C121.909 46.5261 120.488 46.8812 119.157 46.8812C115.339 46.8812 113.74 44.1288 113.74 41.1987C113.74 38.091 115.605 35.5161 118.713 35.5161C121.643 35.5161 123.596 37.7358 123.596 41.1099V41.909H116.493ZM118.535 37.5583C117.203 37.5583 116.404 38.8013 116.404 39.9556H120.666C120.577 38.8013 119.956 37.5583 118.535 37.5583ZM131.765 38.3574C131.36 38.1242 130.9 38.0017 130.433 38.0022C129.811 38.0022 129.101 38.2686 128.302 38.9789V46.7037H125.549V35.7825H127.858L128.124 36.9367C129.279 35.96 130.078 35.5161 131.143 35.5161C131.676 35.5161 132.209 35.6937 132.653 35.96L131.765 38.3574ZM141.265 46.7037V40.3108C141.265 39.1565 141.088 37.9134 139.667 37.9134C138.69 37.9134 137.714 38.4462 136.915 39.0677V46.7037H134.162V35.7825H136.559L136.826 36.9367C137.903 36.0477 139.248 35.5473 140.644 35.5161C142.331 35.5161 144.107 36.4928 144.107 39.4229V46.7037H141.265ZM153.252 46.7037L152.808 45.727C152.098 46.3485 151.121 46.97 149.612 46.97C147.569 46.97 146.06 45.6382 146.06 43.4184C146.06 41.1987 147.836 39.9556 150.588 39.8668L152.542 39.778V39.5117C152.542 38.1798 151.654 37.6471 150.5 37.6471C149.256 37.6471 148.369 38.0022 147.658 38.4462L146.77 36.6704C148.022 35.8113 149.515 35.3757 151.032 35.4273C153.696 35.4273 155.383 36.4928 155.383 39.4229V43.7736C155.383 45.3718 155.472 46.1709 155.561 46.6149H153.252V46.7037ZM152.542 41.6426L150.943 41.7314C149.434 41.8202 148.813 42.2642 148.813 43.2408C148.813 44.1288 149.434 44.7503 150.588 44.7503C150.945 44.7689 151.302 44.7155 151.637 44.5935C151.973 44.4715 152.28 44.2832 152.542 44.04V41.6426ZM165.15 46.7037V40.3108C165.15 39.1565 164.972 37.9134 163.552 37.9134C162.575 37.9134 161.598 38.4462 160.799 39.0677V46.7037H158.047V35.7825H160.444L160.71 36.9367C161.787 36.0477 163.132 35.5473 164.528 35.5161C166.215 35.5161 167.991 36.4928 167.991 39.4229V46.7037H165.15ZM175.272 46.8812C171.72 46.8812 169.856 44.3063 169.856 41.2875C169.856 38.0022 172.253 35.5161 175.538 35.5161C177.048 35.5161 178.025 35.8713 178.646 36.3152L178.557 38.535C177.758 38.0022 176.959 37.6471 175.805 37.6471C173.94 37.6471 172.608 39.1565 172.608 41.1987C172.608 43.0633 173.585 44.7503 175.805 44.7503C176.87 44.7503 177.669 44.3951 178.38 43.9512L179.09 45.8158C178.291 46.3485 176.781 46.8812 175.272 46.8812ZM182.997 41.909C183.086 43.5072 184.417 44.6615 186.104 44.6615C187.17 44.6615 187.969 44.3951 188.946 43.8624L189.656 45.6382C188.413 46.5261 186.992 46.8812 185.66 46.8812C181.842 46.8812 180.244 44.1288 180.244 41.1987C180.244 38.091 182.109 35.5161 185.217 35.5161C188.147 35.5161 190.1 37.7358 190.1 41.1099V41.909H182.997ZM185.039 37.5583C183.707 37.5583 182.908 38.8013 182.908 39.9556H187.17C187.081 38.8013 186.46 37.5583 185.039 37.5583Z" fill="black"/>
<path d="M58.0688 27.7026C58.0688 13.141 45.6382 7.99113 37.4695 7.90234H37.3807H37.2919C29.0344 7.99113 16.6038 13.141 16.6038 27.7026L16.6926 29.0344C17.8468 42.7969 35.3385 60.8213 36.2264 61.798L37.2031 62.8635V62.9523L37.2919 63.0411V62.9523L38.2686 61.8868C39.2453 60.9101 56.737 42.8857 57.8025 29.1232C57.9683 28.6674 58.0582 28.1875 58.0688 27.7026ZM37.2919 35.161C36.5816 35.161 35.8713 35.0722 35.1609 34.8058C33.7142 34.329 32.4508 33.4156 31.5444 32.1913C30.6381 30.9669 30.1335 29.4919 30.0999 27.9689C30.1335 26.446 30.6381 24.9709 31.5444 23.7466C32.4508 22.5223 33.7142 21.6089 35.1609 21.1321C35.8713 20.9545 36.5816 20.7769 37.2919 20.7769C38.2397 20.765 39.1802 20.9429 40.0582 21.3001C40.9362 21.6573 41.7338 22.1866 42.404 22.8569C43.0742 23.5271 43.6035 24.3247 43.9607 25.2026C44.3179 26.0806 44.4958 27.0212 44.4839 27.9689C44.4958 28.9167 44.3179 29.8573 43.9607 30.7353C43.6035 31.6132 43.0742 32.4108 42.404 33.081C41.7338 33.7513 40.9362 34.2806 40.0582 34.6378C39.1802 34.995 38.2397 35.1729 37.2919 35.161Z" fill="white"/>
</svg>
