<svg width="129px" height="67px" viewBox="0 0 129 67" version="1.1" xmlns="http://www.w3.org/2000/svg" xmlns:xlink="http://www.w3.org/1999/xlink">
    <g id="Page-1" stroke="none" stroke-width="1" fill="none" fill-rule="evenodd">
        <g id="europesengage" fill-rule="nonzero">
            <path d="M53.568,38.985 C50.311,46.507 42.487,51.842 33.354,51.842 C24.98,51.842 17.706,47.337 14.072,40.763 L14.072,66.295 L128.457,66.295 L128.457,38.985 L53.568,38.985 Z" id="Shape" fill="#1E4485"></path>
            <path d="M16.101,16.947 C16.567,18.843 15.129,20.739 12.76,21.982 C12.507,21.982 12.381,21.805 12.465,21.628 C13.566,20.976 14.324,19.437 14.071,18.488 C13.943,18.014 13.902,18.132 13.395,17.954 C12.931,17.836 12.547,17.304 12.464,16.888 C12.294,16.118 12.759,15.229 13.604,15.053 C14.452,14.815 15.722,15.289 16.101,16.947" id="Shape" fill="#1E4485"></path>
            <path d="M5.321,39.755 C2.909,39.755 1.471,39.105 0.371,38.452 L1.388,36.438 C2.148,36.911 3.585,37.623 5.447,37.623 C7.517,37.623 9,36.735 9,35.137 C9,31.048 1.389,32.471 1.389,26.605 C1.389,24.177 3.121,22.162 6.927,22.162 C8.703,22.162 10.058,22.577 11.157,23.052 L11.157,25.302 C9.97,24.829 8.786,24.355 7.054,24.355 C5.322,24.355 3.924,24.947 3.924,26.488 C3.924,30.22 11.705,29.273 11.705,34.78 C11.705,38.273 8.785,39.755 5.321,39.755" id="Shape" fill="#1E4485"></path>
            <path d="M73.442,24.412 C71.158,24.412 69.636,25.952 69.636,28.262 C69.636,30.632 71.157,32.291 73.442,32.291 C75.64,32.291 77.334,30.869 77.334,28.32 C77.333,25.952 75.685,24.412 73.442,24.412 M70.904,39.4 C69.974,39.933 68.496,40.88 68.496,42.481 C68.496,44.257 70.608,45.62 73.865,45.62 C77.162,45.62 79.151,44.436 79.151,42.599 C79.151,39.577 73.103,39.991 70.904,39.4 M73.695,47.753 C68.622,47.753 65.789,45.562 65.789,42.777 C65.789,40.939 67.058,39.577 68.959,38.57 C68.071,38.098 67.817,37.326 67.817,36.556 C67.817,35.726 68.367,34.482 69.721,33.357 C67.988,32.351 66.973,30.336 66.973,28.262 C66.973,24.768 69.806,22.161 73.189,22.161 C74.456,22.161 75.343,22.339 76.148,22.754 C76.359,22.872 76.444,22.813 76.573,22.693 C77.415,21.923 79.151,21.152 81.264,21.508 L80.503,23.877 C79.615,23.641 78.771,23.581 78.051,23.936 C79.321,25.062 79.996,26.542 79.996,28.319 C79.996,31.934 77.333,34.481 73.399,34.481 C72.636,34.481 71.918,34.362 71.286,34.125 C70.736,34.719 70.438,35.251 70.438,36.08 C70.438,38.51 82.025,36.023 82.025,42.36 C82.026,45.147 79.532,47.753 73.695,47.753" id="Shape" fill="#1E4485"></path>
            <path d="M92.089,31.343 L88.749,31.403 C85.705,31.522 84.52,32.588 84.52,34.424 C84.52,36.141 85.58,37.504 87.777,37.504 C89.975,37.504 91.287,36.379 92.09,35.607 L92.09,31.343 L92.089,31.343 Z M92.894,39.4 L92.216,37.74 C91.201,38.748 89.553,39.755 87.057,39.755 C84.35,39.755 81.942,37.801 81.942,34.601 C81.942,31.284 84.224,29.271 88.665,29.151 L92.09,29.032 L92.09,28.261 C92.09,25.36 90.567,24.411 88.453,24.411 C86.299,24.411 84.945,25.299 84.056,25.951 L82.999,24.114 C85.028,22.634 86.805,22.159 88.918,22.159 C92.09,22.159 94.669,23.581 94.669,27.848 L94.669,32.941 C94.669,37.681 94.796,38.866 95.008,39.399 L92.894,39.399 L92.894,39.4 Z" id="Shape" fill="#1E4485"></path>
            <path d="M104.014,24.412 C101.774,24.412 100.209,25.952 100.209,28.262 C100.209,30.632 101.773,32.291 104.014,32.291 C106.215,32.291 107.907,30.869 107.907,28.32 C107.906,25.952 106.256,24.412 104.014,24.412 M101.479,39.4 C100.547,39.933 99.067,40.88 99.067,42.481 C99.067,44.257 101.18,45.62 104.44,45.62 C107.737,45.62 109.723,44.436 109.723,42.599 C109.723,39.577 103.678,39.991 101.479,39.4 M104.268,47.753 C99.194,47.753 96.36,45.562 96.36,42.777 C96.36,40.939 97.63,39.577 99.577,38.57 C98.645,38.098 98.389,37.326 98.389,36.556 C98.389,35.726 98.942,34.482 100.295,33.357 C98.561,32.351 97.545,30.336 97.545,28.262 C97.545,24.768 100.377,22.161 103.762,22.161 C105.03,22.161 105.918,22.339 106.723,22.754 C106.93,22.872 107.061,22.813 107.145,22.693 C107.989,21.923 109.723,21.152 111.838,21.508 L111.076,23.877 C110.187,23.641 109.342,23.581 108.625,23.936 C109.893,25.062 110.568,26.542 110.568,28.319 C110.568,31.934 107.906,34.481 103.972,34.481 C103.21,34.481 102.49,34.362 101.859,34.125 C101.351,34.719 101.011,35.251 101.011,36.08 C101.011,38.51 112.599,36.023 112.599,42.36 C112.6,45.147 110.146,47.753 104.268,47.753" id="Shape" fill="#1E4485"></path>
            <path d="M120.336,24.353 C117.844,24.353 116.277,26.545 116.277,29.21 L124.183001,29.21 C124.184,26.9 122.875,24.353 120.336,24.353 Z M116.277,31.403 C116.277,34.601 118.095,37.446 121.818,37.446 C123.256,37.446 124.82,36.911 125.791,36.26 L126.594,38.037 C125.371,39.045 123.256,39.755 121.313,39.755 C116.067,39.755 113.487,35.432 113.487,30.632 C113.487,25.775 116.278,22.16 120.296,22.16 C124.609,22.16 127.021,25.597 127.021,30.81 L127.021,31.403 L116.277,31.403 Z" id="Shape" fill="#1E4485"></path>
            <path d="M61.686,39.222 L61.686,28.915 C61.686,26.782 61.305,24.471 58.768,24.471 C56.697,24.471 54.878,25.893 53.568,27.078 L53.568,38.987 L50.987,38.987 L50.987,22.457 L53.102,22.457 L53.441,24.412 C55.429,22.99 57.12,21.982 59.444,21.982 C61.856,21.982 64.266,23.76 64.266,27.907 L64.266,39.221 L61.686,39.221 L61.686,39.222 Z" id="Shape" fill="#1E4485"></path>
            <path d="M77.459,1.131 C77.67,2.078 76.994,3.026 75.81,3.618 C75.682,3.618 75.64,3.499 75.682,3.44 C76.233,3.085 76.571,2.374 76.444,1.9 C76.401,1.662 76.401,1.721 76.148,1.605 C75.894,1.544 75.724,1.307 75.682,1.071 C75.599,0.715 75.81,0.299 76.233,0.182 C76.658,0.063 77.249,0.299 77.459,1.131" id="Shape" fill="#1E4485"></path>
            <path d="M73.822,14.816 C72.766,14.816 72.301,14.104 72.301,13.216 L72.301,1.783 L73.653,1.783 L73.653,12.623 C73.653,13.454 73.822,13.629 74.332,13.629 C74.456,13.629 74.585,13.629 74.796,13.571 L74.966,14.519 C74.584,14.696 74.246,14.816 73.822,14.816" id="Shape" fill="#1E4485"></path>
            <polygon id="Shape" fill="#1E4485" points="79.573 14.638 79.573 2.67 85.451 2.67 84.945 3.915 80.925 3.915 80.925 7.884 84.903 7.884 84.903 9.127 80.925 9.127 80.925 13.393 85.493 13.393 85.493 14.638"></polygon>
            <path d="M93.443,14.638 L93.062,13.749 C92.429,14.283 91.455,14.815 90.313,14.815 C89.13,14.815 87.694,14.223 87.694,11.794 L87.694,6.048 L89.003,6.048 L89.003,11.676 C89.003,13.098 89.596,13.631 90.696,13.631 C91.795,13.631 92.598,12.979 92.978,12.504 L92.978,6.048 L94.29,6.048 L94.29,11.024 C94.29,13.749 94.332,14.283 94.5,14.638 L93.443,14.638 Z" id="Shape" fill="#08519F"></path>
            <path d="M100.887,7.351 C100.676,7.291 100.42,7.231 100.041,7.231 C99.531,7.231 98.728,7.647 98.18,8.239 L98.18,14.637 L96.826,14.637 L96.826,6.047 L97.926,6.047 L98.096,6.994 C99.28,5.928 99.955,5.81 100.547,5.81 C100.93,5.81 101.268,5.987 101.436,6.047 L100.887,7.351 Z" id="Shape" fill="#08519F"></path>
            <path d="M105.791,6.936 C104.143,6.936 103.254,8.24 103.254,10.253 C103.254,12.326 104.186,13.629 105.791,13.629 C107.398,13.629 108.371,12.326 108.371,10.253 C108.371,8.239 107.441,6.936 105.791,6.936 M108.498,13.749 C107.82,14.4 106.85,14.816 105.748,14.816 C104.691,14.816 103.76,14.459 103.086,13.749 C102.324,12.978 101.9,11.735 101.9,10.313 C101.9,8.892 102.324,7.706 103.086,6.936 C103.76,6.225 104.691,5.811 105.791,5.811 C106.891,5.811 107.82,6.225 108.498,6.936 C109.258,7.706 109.68,8.892 109.68,10.313 C109.68,11.734 109.258,12.919 108.498,13.749" id="Shape" fill="#08519F"></path>
            <path d="M114.418,6.995 C113.781,6.995 113.318,7.114 112.938,7.234 L112.938,13.334 C113.405,13.514 113.741,13.629 114.333,13.629 C116.11,13.629 117.335,12.386 117.335,10.254 C117.334,8.002 115.98,6.995 114.418,6.995 M114.377,14.816 C113.74,14.816 113.275,14.696 112.938,14.52 L112.938,18.904 L111.627,18.904 L111.627,6.403 C112.176,6.167 113.19,5.811 114.418,5.811 C117.039,5.811 118.688,7.47 118.688,10.255 C118.688,13.216 116.531,14.816 114.377,14.816" id="Shape" fill="#08519F"></path>
            <path d="M123.637,6.936 C122.367,6.936 121.565,8.061 121.565,9.423 L125.624,9.423 C125.623,8.239 124.947,6.936 123.637,6.936 Z M121.523,10.549 C121.523,12.208 122.494,13.631 124.396,13.631 C125.115,13.631 125.917,13.334 126.427,13.038 L126.849,13.927 C126.214,14.459 125.115,14.815 124.144,14.815 C121.435,14.815 120.124,12.623 120.124,10.135 C120.124,7.648 121.522,5.811 123.593,5.811 C125.833,5.811 127.06,7.589 127.06,10.255 L127.06,10.55 L121.523,10.55 L121.523,10.549 Z" id="Shape" fill="#08519F"></path>
            <path d="M69.845,55.811 C68.578,55.811 67.774,56.935 67.774,58.298 L71.836,58.298 C71.835,57.114 71.16,55.811 69.845,55.811 Z M67.733,59.423 C67.733,61.081 68.706,62.502 70.61,62.502 C71.329,62.502 72.131,62.268 72.637,61.912 L73.019,62.799 C72.426,63.333 71.329,63.688 70.312,63.688 C67.651,63.688 66.337,61.497 66.337,59.069 C66.337,56.581 67.733,54.685 69.806,54.685 C72.046,54.685 73.231,56.462 73.231,59.128 L73.231,59.424 L67.733,59.424 L67.733,59.423 Z" id="Shape" fill="#FFFFFF"></path>
            <path d="M79.447,63.51 L79.447,58.24 C79.447,57.172 79.277,55.987 77.968,55.987 C76.909,55.987 75.981,56.698 75.303,57.291 L75.303,63.51 L73.99,63.51 L73.99,54.922 L75.049,54.922 L75.26,55.929 C76.276,55.218 77.12,54.683 78.307,54.683 C79.533,54.683 80.801,55.573 80.801,57.765 L80.801,63.511 L79.447,63.511 L79.447,63.51 Z" id="Shape" fill="#FFFFFF"></path>
            <polygon id="Shape" fill="#FFFFFF" points="91.625 52.789 87.608 52.789 87.608 56.818 91.583 56.818 91.583 58.06 87.608 58.06 87.608 63.51 86.255 63.51 86.255 51.544 92.133 51.544"></polygon>
            <path d="M96.699,56.224 C96.531,56.165 96.277,56.105 95.896,56.105 C95.388,56.105 94.544,56.52 93.993,57.113 L93.993,63.509 L92.681,63.509 L92.681,54.921 L93.782,54.921 L93.951,55.928 C95.134,54.802 95.769,54.684 96.403,54.684 C96.784,54.684 97.124,54.859 97.292,54.98 L96.699,56.224 Z" id="Shape" fill="#FFFFFF"></path>
            <path d="M102.365,59.363 L100.631,59.423 C99.11,59.483 98.477,60.016 98.477,60.963 C98.477,61.854 99.026,62.563 100.166,62.563 C101.268,62.563 101.943,61.971 102.365,61.557 L102.365,59.363 Z M102.746,63.51 L102.408,62.682 C101.9,63.215 101.053,63.688 99.787,63.688 C98.391,63.688 97.164,62.682 97.164,61.082 C97.164,59.364 98.35,58.356 100.592,58.241 L102.365,58.241 L102.365,57.825 C102.365,56.343 101.603,55.87 100.504,55.87 C99.406,55.87 98.688,56.286 98.223,56.641 L97.713,55.692 C98.729,54.923 99.658,54.684 100.715,54.684 C102.365,54.684 103.678,55.396 103.678,57.588 L103.678,60.254 C103.678,62.684 103.76,63.217 103.846,63.512 L102.746,63.512 L102.746,63.51 Z" id="Shape" fill="#FFFFFF"></path>
            <path d="M110.654,63.51 L110.654,58.24 C110.654,57.172 110.484,55.987 109.174,55.987 C108.117,55.987 107.186,56.698 106.512,57.291 L106.512,63.51 L105.157,63.51 L105.157,54.922 L106.257,54.922 L106.425,55.929 C107.443,55.218 108.327,54.683 109.513,54.683 C110.74,54.683 111.966,55.573 111.966,57.765 L111.966,63.511 L110.654,63.511 L110.654,63.51 Z" id="Shape" fill="#FFFFFF"></path>
            <path d="M116.701,63.688 C114.078,63.688 112.685,61.616 112.685,59.305 C112.685,56.935 114.078,54.684 116.953,54.684 C117.717,54.684 118.562,54.921 119.154,55.275 L119.154,56.519 C118.601,56.165 117.843,55.868 116.91,55.868 C115.094,55.868 114.035,57.29 114.035,59.245 C114.035,61.141 115.094,62.561 116.869,62.561 C117.801,62.561 118.476,62.266 119.027,61.91 L119.406,62.858 C118.771,63.274 117.801,63.688 116.701,63.688" id="Shape" fill="#FFFFFF"></path>
            <path d="M123.465,55.811 C122.199,55.811 121.395,56.935 121.395,58.298 L125.454,58.298 C125.453,57.114 124.777,55.811 123.465,55.811 Z M121.352,59.423 C121.352,61.081 122.325,62.502 124.229,62.502 C124.948,62.502 125.75,62.268 126.26,61.912 L126.639,62.799 C126.047,63.333 124.948,63.688 123.932,63.688 C121.268,63.688 119.955,61.497 119.955,59.069 C119.955,56.581 121.351,54.685 123.422,54.685 C125.666,54.685 126.891,56.462 126.891,59.128 L126.891,59.424 L121.352,59.424 L121.352,59.423 Z" id="Shape" fill="#FFFFFF"></path>
            <path d="M70.904,39.4 C73.103,39.991 79.151,39.578 79.151,42.599 C79.151,44.436 77.164,45.62 73.865,45.62 C70.61,45.62 68.496,44.258 68.496,42.481 C68.496,40.88 69.974,39.933 70.904,39.4 M65.789,42.777 C65.789,45.562 68.622,47.753 73.695,47.753 C79.53,47.753 82.026,45.147 82.026,42.362 C82.026,40.702 81.264,39.637 80.083,38.984 L68.327,38.984 C66.759,39.933 65.789,41.177 65.789,42.777" id="Shape" fill="#FFFFFF"></path>
            <path d="M101.479,39.4 C103.676,39.991 109.723,39.578 109.723,42.599 C109.723,44.436 107.737,45.62 104.44,45.62 C101.182,45.62 99.067,44.258 99.067,42.481 C99.066,40.88 100.547,39.933 101.479,39.4 M96.359,42.777 C96.359,45.562 99.193,47.753 104.267,47.753 C110.146,47.753 112.599,45.147 112.599,42.362 C112.599,40.702 111.837,39.637 110.654,38.984 L98.898,38.984 C97.375,39.933 96.359,41.177 96.359,42.777" id="Shape" fill="#FFFFFF"></path>
            <path d="M42.107,13.038 C38.557,11.319 33.271,10.788 28.619,12.09 C20.162,14.459 14.579,21.924 14.199,30.218 L14.199,30.277 L14.199,30.632 L14.199,30.692 L14.199,31.403 L14.199,31.818 L14.199,31.877 C14.199,32.352 14.242,32.766 14.283,33.24 C14.283,33.299 14.327,33.299 14.327,33.358 L14.327,33.594 C14.452,34.543 14.621,35.489 14.876,36.438 C14.918,36.498 14.918,36.498 14.918,36.557 C15.214,37.565 15.55,38.572 15.977,39.459 L16.018,39.52 C16.481,40.526 17.034,41.474 17.623,42.363 C17.668,42.422 17.706,42.482 17.706,42.54 L17.752,42.54 C18.133,43.133 18.555,43.665 19.022,44.2 C23.882,49.826 31.791,52.492 39.446,50.36 C43.926,49.056 49.719,45.858 53.569,38.985 L50.988,38.985 C48.705,43.548 44.098,46.805 38.977,47.933 C32.888,49.296 26.041,45.086 22.404,39.521 C22.361,39.401 22.446,39.521 22.446,39.521 C22.446,39.521 31.327,36.677 35.638,34.307 C41.306,31.167 48.747,22.932 47.858,17.068 C46.294,15.585 45.364,14.638 42.107,13.038" id="Shape" fill="#1E4485"></path>
            <polygon id="Shape" fill="#FCEE23" points="40.036 22.813 42.954 20.622 45.914 22.813 44.773 19.317 47.774 17.185 44.093 17.185 42.954 13.629 41.811 17.185 38.133 17.185 41.136 19.317"></polygon>
            <polygon id="Shape" fill="#FCEE23" points="16.397 39.52 19.357 37.386 22.318 39.52 21.176 36.082 24.179 33.891 20.5 33.891 19.357 30.396 18.216 33.949 14.537 33.891 17.541 36.082"></polygon>
            <polygon id="Shape" fill="#FCEE23" points="22.275 33.12 28.872 28.321 35.469 33.12 32.932 25.36 39.613 20.562 31.41 20.562 28.872 12.684 26.333 20.562 18.089 20.562 24.772 25.36"></polygon>
        </g>
    </g>
</svg>
